<svg width="700" height="400" viewbox = "0 0 700 400"  xmlns="http://www.w3.org/2000/svg">
<!--<json>{
  "glyph": "0326,0362,0203,0203,0203,0203,0203,0203,0203,0203,0335,0203,0203,0203,0203,0203,0203,0203,0203,0203,0203,0203,0203,0203,0203,0203,0203,0203,0335,0203,0203,0203,0203,0203,0203,0203,0203,0335,0203,0203,0203,0203,0203,0203,0203,0203,0203,0203,0203,0203,0203,0203,0203,0203,0203,0363,0335,0327,0333,0333,0333,0333,0333,0333,0333,0333,0333,0333,0333,0333,0333,0333,0333,0333,0333,0332,0332,0332,0332,0322,0220,0220,0220,0332,0332,0332,0332,0332,0331,0331,0331,0332,0332,0332,0332,0332,0332,0332,0332,0333,0333,0333,0333,0220,0220,0220,0336,0333,0337,0336,0333,0350,0334,0343,0334,0330,0330,0330,0335,0335,0342,0335,0335,0330,0330,0334,0334,0330,0337,0334,0343,0335,0330,0335,0335,0336,0342,0304,0333,0333,0330,0332,0337,0220,0220,0220,0220,0220,0220,0220,0336,0334,0331,0333,0337,0350,0335,0343,0335,0336,0331,0334,0334,0331,0335,0343,0334,0330,0330,0330,0335,0335,0342,0304,0332,0330,0330,0330,0335,0330,0330,0330,0342,0335,0335,0331,0331,0331,0331,0331,0331,0331,0337,0326,0332,0332,0332,0332,0332,0332,0332,0332,0332,0332,0332,0332,0332,0330,0330,0330,0330,0330,0330,0330,0336,0330,0332,0330,0337,0331,0333,0336,0341,0337,0337,0333,0333,0333,0333,0333,0333,0333,0333,0336,0332,0336,0341,0337,0337,0331,0331,0331,0323,0331,0333,0336,0330,0332,0335,0362,0203,0203,0203,0334,0203,0203,0203,0203,0203,0203,0203,0203,0203,0203,0203,0334,0203,0203,0203,0203,0203,0203,0203,0203,0203,0203,0203,0203,0203,0203,0203,0203,0203,0203,0203,0203,0203,0203,0203,0334,0203,0203,0203,0203,0203,0203,0203,0203,0203,0203,0203,0334,0203,0203,0203,0334,0203,0203,0203,0203,0203,0203,0203,0203,0335,0203,0203,0203,0203,0203,0203,0203,0203,0203,0203,0203,0203,0203,0203,0203,0203,0203,0335,0203,0203,0203,0203,0203,0203,0203,0203,0354,0335,0335,0330,0330,0330,0330,0330,0330,0330,0330,0332,0343,0332,0332,0332,0332,0332,0332,0332,0332,0332,0332,0332,0332,0332,0332,0332,0343,0333,0333,0333,0333,0333,0333,0333,0333,0333,0333,0330,0333,0330,0333,0333,0333,0333,0333,0333,0333,0336,0332,0331,0331,0331,0331,0331,0331,0331,0331,0331,0331,0331,0331,0331,0331,0331,0331,0331,0341,0330,0330,0330,0330,0330,0330,0330,0330,0330,0330,0330,0330,0330,0330,0330,0330,0341,0332,0332,0332,0332,0332,0332,0332,0332,0332,0332,0332,0332,0332,0332,0332,0332,0332,0332,0332,0332,0332,0332,0332,0332,0332,0332,0332,0332,0332,0332,0332,0332,0332,0332,0332,0332,0332,0332,0332,0332,0341,0331,0331,0331,0331,0331,0331,0331,0331,0331,0331,0331,0331,0331,0331,0331,0331,0341,0333,0333,0333,0333,0333,0333,0333,0333,0333,0333,0333,0333,0331,0331,0332,0332,0332,0332,0332,0331,0332,0332,0332,0332,0337,0332,0332,0332,0327,0334,0342,0333,0333,0333,0333,0333,0333,0333,0333,0333,0333,0333,0342,0335,0342,0333,0333,0333,0333,0333,0333,0333,0333,0333,0333,0333,0333,0333,0333,0333,0333,0333,0333,0333,0333,0333,0333,0333,0342,0335,0342,0332,0333,0333,0333,0333,0333,0333,0333,0333,0333,0333,0333,0333,0342,0335,0342,0333,0333,0333,0342,0335,0335,0331,0333,0336,0331,0337,063,0332,040,0155,0155,0365,0333,0330,0333,0330,0333,0330,0333,0330,0333,0330,0330,0330,0332,061,061,040,0155,0155,0365,0330,0330,0330,0332,0330,0332,0330,0330,0332,0332,0332,0332,0332,0332,0332,0332,0332,0332,0332,0332,0332,0332,062,063,040,0155,0155,0365,073,073,",
  "x0": 116.5098585801529,
  "y0": 344.70613633324626,
  "unit": 23.32536901048666,
  "width": 700,
  "height": 400,
  "style": {
    "color0": "black",
    "fill0": "#00000030",
    "line0": 1,
    "color1": "black",
    "fill1": "black",
    "line1": 3,
    "color2": "red",
    "fill2": "red",
    "line2": 3,
    "color3": "#FF7900",
    "fill3": "#FF7900",
    "line3": 3,
    "color4": "yellow",
    "fill4": "yellow",
    "line4": 3,
    "color5": "green",
    "fill5": "green",
    "line5": 3,
    "color6": "blue",
    "fill6": "#8080ff30",
    "line6": 3,
    "color7": "purple",
    "fill7": "purple",
    "line7": 3
  },
  "shapes": [
    "0220:0313,0336,0333,0337,0342,0332,0342,0336,0336,0336,0316,0336,0332,0337,0313,0337,0337,0337,0342,0336,0336,0316,0336,0313,0336,0333,0337,0337,0337,0333,0333,0333,0333,0333,0336,0336,0336,0333,0337,0337,0337,0316,0337,0342,0316,0336,0313,0336,0336,0336,0332,0337,0337,0337,0316,0337,0313,0336,0332,0337,0330,",
    "0221:0336,0335,0331,0337,0342,0336,0334,0333,0337,",
    "0222:0220,0221,0336,0333,0337,0316,0336,0313,0336,0336,0336,0333,0362,0203,0334,0203,0337,0337,0337,0316,0337,0203,0336,0313,0336,0336,0336,0203,0334,0203,0364,0335,0335,0333,0337,0337,0337,0316,0337,0313,0336,0333,0337,",
    "0223:0336,0333,0337,0316,0336,0313,0336,0336,0336,0330,0332,0334,0331,0337,0337,0337,0316,0337,0342,0335,0336,0362,0203,0203,0203,0203,0313,0336,0203,0336,0203,0336,0203,0334,0337,0337,0337,0203,0203,0203,0203,0203,0334,0203,0203,0203,0203,0336,0203,0336,0203,0336,0203,0354,0335,0335,0337,0337,0337,0333,0333,0336,0333,0337,0316,0337,0313,0336,0333,0313,0337,0336,0332,0330,0336,0330,0316,0336,0330,0330,0330,0330,0313,0336,0330,0337,0337,0337,0316,0337,0313,0336,0313,0337,0331,0220,",
    "01220:0333,0200,0336,0332,0336,0330,0220,0331,0331,0333,0333,0337,0337,",
    "01221:0333,0200,0336,0332,0336,0330,0220,0221,0331,0331,0333,0333,0337,0337,",
    "01222:0333,0200,0336,0330,0332,0336,0331,0220,0221,0222,0331,0333,0331,0333,0331,0333,0331,0333,0331,0331,0337,0337,0337,",
    "01223:0333,0200,0336,0332,0336,0223,0223,0223,0223,0331,0333,0331,0333,0331,0331,0337,0337,",
    "01224:0333,0200,0336,0332,0337,0224,0336,0333,0337,0331,",
    "01225:0333,0200,0336,0330,0332,0336,0331,0337,0225,0333,0336,0331,0337,0337,",
    "01226:0333,0200,0336,0330,0332,0336,0332,0337,0336,0330,0332,0337,0226,0336,0333,0330,0337,0337,0331,",
    "01227:0333,0200,0336,0332,0336,0330,0337,0227,0331,0336,0331,0337,0333,0337,",
    "01230:0333,0200,0336,0332,0337,0230,0336,0333,0337,0331,",
    "01231:0333,0200,0336,0332,0337,0342,0336,0330,0335,0342,0335,0342,0335,0342,0335,0337,0231,0336,0333,0331,0337,",
    "01232:0333,0200,0336,0330,0332,0336,0331,0337,0232,0333,0336,0331,0337,0337,",
    "01233:0333,0200,0336,0330,0332,0336,0331,0337,0233,0331,0336,0333,0333,0331,0337,0337,",
    "01234:0333,0200,0336,0330,0332,0336,0331,0333,0332,0337,0234,0333,0331,0336,0331,0337,0337,",
    "01235:0333,0200,0336,0330,0332,0336,0332,0330,0337,0235,0331,0336,0333,0331,0337,0337,",
    "01236:0333,0200,0336,0330,0332,0336,0331,0337,0236,0336,0333,0331,0333,0337,0337,",
    "01237:0333,0200,0336,0330,0332,0336,0237,",
    "0240:0220,0336,0331,0333,0336,0321,0335,0342,0335,0335,0342,0335,0330,0330,0332,0332,0337,0337,",
    "01240:0333,0200,0336,0330,0332,0210,0240,0211,0333,0331,0337,",
    "0241:0220,0336,0321,0343,0332,0350,0335,0336,0342,0334,0334,0342,0335,0304,0337,0333,0337,",
    "01241:0333,0200,0336,0332,0330,0210,0241,0211,0333,0331,0337,",
    "0242:0220,0321,0336,0343,0333,0336,0350,0335,0342,0334,0334,0342,0335,0337,0304,0332,0337,",
    "01242:0333,0200,0336,0330,0332,0210,0242,0211,0333,0331,0337,",
    "0243:0220,0336,0331,0332,0336,0321,0343,0332,0350,0334,0336,0342,0335,0335,0342,0337,0334,0334,0335,0304,0332,0330,0330,0337,0337,0333,",
    "01243:0333,0200,0336,0330,0332,0210,0243,0211,0333,0331,0337,",
    "0244:0220,0336,0331,0333,0336,0321,0343,0333,0350,0336,0335,0342,0334,0334,0342,0335,0337,0304,0333,0330,0330,0337,0337,0332,",
    "01244:0333,0200,0336,0330,0332,0210,0244,0211,0333,0331,0337,",
    "0245:0210,0332,0332,0362,0335,0203,0203,0203,0203,0334,0203,0363,0332,0332,0331,0211,",
    "01245:0333,0200,0336,0330,0332,0336,0245,0337,0333,0331,0337,",
    "0246:0210,0332,0332,0335,0306,0336,0330,0335,0335,0335,0321,0362,0203,0335,0335,0203,0364,0331,0350,0335,0337,0366,0333,0333,0333,0333,0334,0334,0334,0334,0367,0335,0336,0342,0334,0334,0342,0330,0330,0330,0330,0335,0335,0335,0304,0337,0211,",
    "01246:0333,0200,0336,0330,0332,0336,0246,",
    "0247:0330,0332,0336,0332,0336,0221,0333,0333,0333,0222,0333,0333,0333,0223,0333,0333,0333,0225,0333,0331,0331,0331,0332,0332,0332,0332,0332,0332,0332,0332,0332,0332,0332,0332,0333,0333,0226,0331,0331,0331,0333,0333,0333,0333,0333,0333,0333,0333,0333,0333,0333,0333,0333,0330,0333,0330,0330,0333,0330,0331,0332,0332,0332,0332,0332,0332,0332,0332,0332,0332,0332,0332,0227,0333,0333,0333,0230,0333,0331,0331,0331,0331,0332,0332,0332,0330,0332,0332,0332,0332,0332,0332,0333,0333,0231,0333,0333,0333,0232,0331,0333,0330,0333,0333,0233,0333,0333,0333,0234,0330,0330,0332,0330,0332,0332,0337,0337,",
    "01247:0333,0200,0336,0330,0332,0220,0336,0247,0337,0331,0333,0337,"
  ]
}</json>-->	<path d = "M117 345 L117 321 L117 298 L117 275 L117 251 L117 228 L117 205 L117 181 L117 158 L140 158 L163 158 L186 158 L210 158 L233 158 L256 158 L280 158 L303 158 L326 158 L350 158 L373 158 L396 158 L420 158 L443 158 L466 158 L490 158 L513 158 L513 181 L513 205 L513 228 L513 251 L513 275 L513 298 L513 321 L513 345 L490 345 L466 345 L443 345 L420 345 L396 345 L373 345 L350 345 L326 345 L303 345 L280 345 L256 345 L233 345 L210 345 L186 345 L163 345 L140 345 L117 345 Z" stroke = "#0000ff" stroke-width = "3" fill = "rgba(128, 128, 255, 0.19)" />    <line x1="431" y1="345" x2="431" y2="321" style="stroke:#ff0000;stroke-width:3" />
    <line x1="408" y1="345" x2="408" y2="321" style="stroke:#ff0000;stroke-width:3" />
    <line x1="407" y1="345" x2="407" y2="321" style="stroke:#ff0000;stroke-width:3" />
    <line x1="432" y1="345" x2="432" y2="321" style="stroke:#ff0000;stroke-width:3" />
    <line x1="431" y1="321" x2="431" y2="298" style="stroke:#ff0000;stroke-width:3" />
    <line x1="408" y1="321" x2="408" y2="298" style="stroke:#ff0000;stroke-width:3" />
    <line x1="407" y1="321" x2="407" y2="298" style="stroke:#ff0000;stroke-width:3" />
    <line x1="432" y1="321" x2="432" y2="298" style="stroke:#ff0000;stroke-width:3" />
    <line x1="431" y1="298" x2="431" y2="275" style="stroke:#ff0000;stroke-width:3" />
    <line x1="408" y1="298" x2="408" y2="275" style="stroke:#ff0000;stroke-width:3" />
    <line x1="407" y1="298" x2="407" y2="275" style="stroke:#ff0000;stroke-width:3" />
    <line x1="432" y1="298" x2="432" y2="275" style="stroke:#ff0000;stroke-width:3" />
    <line x1="221" y1="345" x2="221" y2="321" style="stroke:#ff0000;stroke-width:3" />
    <line x1="198" y1="345" x2="198" y2="321" style="stroke:#ff0000;stroke-width:3" />
    <line x1="198" y1="345" x2="198" y2="321" style="stroke:#ff0000;stroke-width:3" />
    <line x1="222" y1="345" x2="222" y2="321" style="stroke:#ff0000;stroke-width:3" />
    <line x1="221" y1="321" x2="221" y2="298" style="stroke:#ff0000;stroke-width:3" />
    <line x1="198" y1="321" x2="198" y2="298" style="stroke:#ff0000;stroke-width:3" />
    <line x1="198" y1="321" x2="198" y2="298" style="stroke:#ff0000;stroke-width:3" />
    <line x1="222" y1="321" x2="222" y2="298" style="stroke:#ff0000;stroke-width:3" />
    <line x1="221" y1="298" x2="221" y2="275" style="stroke:#ff0000;stroke-width:3" />
    <line x1="198" y1="298" x2="198" y2="275" style="stroke:#ff0000;stroke-width:3" />
    <line x1="198" y1="298" x2="198" y2="275" style="stroke:#ff0000;stroke-width:3" />
    <line x1="222" y1="298" x2="222" y2="275" style="stroke:#ff0000;stroke-width:3" />
  <path d="M221.47401912734261 274.73002930178626           A11.66268450524333 11.66268450524333 0 0 1 233.13670363258595 263.06734479654295" fill = "none" stroke = "#ff0000" stroke-width = "3" />
    <line x1="198" y1="275" x2="198" y2="263" style="stroke:#ff0000;stroke-width:3" />
  <path d="M198.14865011685595 263.06734479654295           A23.32536901048666 23.32536901048666 0 0 1 221.47401912734261 239.7419757860563" fill = "none" stroke = "#ff0000" stroke-width = "3" />
    <line x1="221" y1="240" x2="233" y2="240" style="stroke:#ff0000;stroke-width:3" />
    <line x1="233" y1="263" x2="256" y2="263" style="stroke:#ff0000;stroke-width:3" />
    <line x1="233" y1="240" x2="256" y2="240" style="stroke:#ff0000;stroke-width:3" />
    <line x1="233" y1="239" x2="256" y2="239" style="stroke:#ff0000;stroke-width:3" />
    <line x1="233" y1="264" x2="256" y2="264" style="stroke:#ff0000;stroke-width:3" />
    <line x1="256" y1="263" x2="280" y2="263" style="stroke:#ff0000;stroke-width:3" />
    <line x1="256" y1="240" x2="280" y2="240" style="stroke:#ff0000;stroke-width:3" />
    <line x1="256" y1="239" x2="280" y2="239" style="stroke:#ff0000;stroke-width:3" />
    <line x1="256" y1="264" x2="280" y2="264" style="stroke:#ff0000;stroke-width:3" />
    <line x1="280" y1="263" x2="303" y2="263" style="stroke:#ff0000;stroke-width:3" />
    <line x1="280" y1="240" x2="303" y2="240" style="stroke:#ff0000;stroke-width:3" />
    <line x1="280" y1="239" x2="303" y2="239" style="stroke:#ff0000;stroke-width:3" />
    <line x1="280" y1="264" x2="303" y2="264" style="stroke:#ff0000;stroke-width:3" />
    <line x1="303" y1="263" x2="326" y2="263" style="stroke:#ff0000;stroke-width:3" />
    <line x1="303" y1="240" x2="326" y2="240" style="stroke:#ff0000;stroke-width:3" />
    <line x1="303" y1="239" x2="326" y2="239" style="stroke:#ff0000;stroke-width:3" />
    <line x1="303" y1="264" x2="326" y2="264" style="stroke:#ff0000;stroke-width:3" />
    <line x1="326" y1="263" x2="350" y2="263" style="stroke:#ff0000;stroke-width:3" />
    <line x1="326" y1="240" x2="350" y2="240" style="stroke:#ff0000;stroke-width:3" />
    <line x1="326" y1="239" x2="350" y2="239" style="stroke:#ff0000;stroke-width:3" />
    <line x1="326" y1="264" x2="350" y2="264" style="stroke:#ff0000;stroke-width:3" />
    <line x1="350" y1="263" x2="373" y2="263" style="stroke:#ff0000;stroke-width:3" />
    <line x1="350" y1="240" x2="373" y2="240" style="stroke:#ff0000;stroke-width:3" />
    <line x1="350" y1="239" x2="373" y2="239" style="stroke:#ff0000;stroke-width:3" />
    <line x1="350" y1="264" x2="373" y2="264" style="stroke:#ff0000;stroke-width:3" />
    <line x1="373" y1="263" x2="396" y2="263" style="stroke:#ff0000;stroke-width:3" />
    <line x1="373" y1="240" x2="396" y2="240" style="stroke:#ff0000;stroke-width:3" />
    <line x1="373" y1="239" x2="396" y2="239" style="stroke:#ff0000;stroke-width:3" />
    <line x1="373" y1="264" x2="396" y2="264" style="stroke:#ff0000;stroke-width:3" />
  <path d="M408.0769712112359 239.7419757860563           A23.32536901048666 23.32536901048666 0 0 1 431.40234022172257 263.06734479654295" fill = "none" stroke = "#ff0000" stroke-width = "3" />
  <path d="M396.4142867059926 263.06734479654295           A11.66268450524333 11.66268450524333 0 0 1 408.0769712112359 274.73002930178626" fill = "none" stroke = "#ff0000" stroke-width = "3" />
    <line x1="396" y1="240" x2="408" y2="240" style="stroke:#ff0000;stroke-width:3" />
    <line x1="431" y1="263" x2="431" y2="275" style="stroke:#ff0000;stroke-width:3" />
<circle cx="140" cy = "181" r = "11.66268450524333" stroke = "#0000ff" stroke-width = "3" fill = "none" />
<circle cx="490" cy = "181" r = "11.66268450524333" stroke = "#0000ff" stroke-width = "3" fill = "none" />
	<path d = "M513 345 L536 345 L560 345 L583 345 L583 321 L583 298 L583 275 L583 251 L583 228 L583 205 L583 181 L583 158 L583 135 L583 111 L583 88 L560 88 L536 88 L513 88 L490 88 L466 88 L443 88 L420 88 L396 88 L373 88 L350 88 L326 88 L303 88 L280 88 L256 88 L233 88 L210 88 L186 88 L163 88 L140 88 L117 88 L93 88 L70 88 L47 88 L47 111 L47 135 L47 158 L47 181 L47 205 L47 228 L47 251 L47 275 L47 298 L47 321 L47 345 L70 345 L93 345 L117 345 L117 321 L117 298 L117 275 L117 251 L117 228 L117 205 L117 181 L117 158 L140 158 L163 158 L186 158 L210 158 L233 158 L256 158 L280 158 L303 158 L326 158 L350 158 L373 158 L396 158 L420 158 L443 158 L466 158 L490 158 L513 158 L513 181 L513 205 L513 228 L513 251 L513 275 L513 298 L513 321 L513 345 Z" stroke = "#ff7900" stroke-width = "3" fill = "none" />  <path d="M466.3903937374524 158.1031842493528           A23.32536901048666 23.32536901048666 0 0 1 513.0411317584258 158.1031842493528" fill = "none" stroke = "#ff7900" stroke-width = "3" />
  <path d="M116.50985858015241 158.1031842493528           A23.32536901048666 23.32536901048666 0 0 1 163.16059660112575 158.1031842493528" fill = "none" stroke = "#ff7900" stroke-width = "3" />
<circle cx="548" cy = "310" r = "11.66268450524333" stroke = "#ff7900" stroke-width = "3" fill = "none" />
<circle cx="548" cy = "123" r = "11.66268450524333" stroke = "#ff7900" stroke-width = "3" fill = "none" />
<circle cx="82" cy = "123" r = "11.66268450524333" stroke = "#ff7900" stroke-width = "3" fill = "none" />
<circle cx="82" cy = "310" r = "11.66268450524333" stroke = "#ff7900" stroke-width = "3" fill = "none" />
    <line x1="47" y1="345" x2="23" y2="345" style="stroke:#800080;stroke-width:3" />
    <line x1="47" y1="88" x2="23" y2="88" style="stroke:#800080;stroke-width:3" />
    <line x1="47" y1="88" x2="47" y2="65" style="stroke:#800080;stroke-width:3" />
    <line x1="583" y1="88" x2="583" y2="65" style="stroke:#800080;stroke-width:3" />
    <line x1="583" y1="88" x2="606" y2="88" style="stroke:#800080;stroke-width:3" />
    <line x1="583" y1="345" x2="606" y2="345" style="stroke:#800080;stroke-width:3" />
    <line x1="583" y1="345" x2="583" y2="368" style="stroke:#800080;stroke-width:3" />
    <line x1="513" y1="345" x2="513" y2="368" style="stroke:#800080;stroke-width:3" />
    <text x="513" y = "380" fill = "#800080" font-size = "23.32536901048666px" font-family = "Arial">3 mm</text>
    <text x="606" y = "216" fill = "#800080" font-size = "23.32536901048666px" font-family = "Arial">11 mm</text>
    <text x="233" y = "76" fill = "#800080" font-size = "23.32536901048666px" font-family = "Arial">23 mm</text>
</svg>