<svg width="700" height="700" viewbox = "0 0 700 700"  xmlns="http://www.w3.org/2000/svg">
<!--<json>{
  "glyph": "0331,0331,0331,0331,0331,0331,0331,0331,0331,0331,0332,0332,0332,0332,0332,0332,0332,0332,0336,0332,0337,0323,0362,0203,0203,0203,0203,0203,0203,0203,0203,0203,0203,0203,0203,0203,0203,0203,0203,0203,0203,0203,0203,0335,0203,0203,0203,0203,0203,0203,0203,0203,0203,0203,0203,0203,0203,0203,0203,0203,0203,0335,0203,0203,0203,0203,0203,0203,0203,0203,0203,0203,0203,0203,0203,0203,0203,0203,0203,0203,0203,0203,0335,0203,0203,0203,0203,0203,0203,0203,0203,0203,0203,0203,0203,0203,0203,0203,0203,0203,0354,0335,0333,0333,0333,0333,0337,0337,0337,0337,0362,0203,0336,0336,0203,0354,0335,0335,0332,0332,0332,0336,0336,0332,0333,0333,0333,0333,0337,0337,0337,0362,0203,0203,0336,0203,0364,0335,0335,0336,0336,0330,0330,0330,0330,0330,0330,0334,0330,0330,0201,0201,0201,0201,0201,0335,0330,0330,0330,0330,0330,0330,0330,0330,0330,0330,0330,0330,0330,0330,0335,0335,0330,0330,0330,0330,0330,0330,0334,0201,0201,0201,0201,0201,0334,0335,0335,0332,0343,0335,0335,0331,0331,0331,0331,0331,0331,0331,0331,0343,0332,0332,0332,0332,0332,0332,0332,0343,0330,0330,0330,0330,0330,0330,0330,0330,0335,0335,0343,0335,0335,0331,0331,0331,0331,0331,0331,0331,0331,0331,0331,0331,0331,0331,0331,0332,0330,0332,0332,0330,0341,0330,0330,0330,0330,0330,0330,0330,0330,0330,0330,0330,0330,0330,0330,0330,0330,0341,0333,0333,0333,0333,0333,0333,0333,0333,0333,0333,0333,0333,0333,0341,0331,0331,0331,0331,0331,0331,0331,0331,0331,0331,0331,0331,0331,0331,0331,0331,0341,0327,0333,0331,0331,0342,0332,0342,0332,0342,0332,0332,0342,0332,0342,0332,0342,0332,0342,0332,0342,0332,0342,0332,0342,0332,0342,0332,0332,0342,0332,0342,0332,0342,0335,0332,0331,0342,0332,0342,0332,0342,0332,0342,0332,0342,0332,0342,0337,0342,0336,0332,0342,0332,0342,0332,0342,0332,0342,0332,0342,0332,0342,0332,0342,0332,0342,0337,0342,0336,0332,0342,0332,0342,0332,0342,0332,0342,0332,0342,0330,0335,0331,0342,0332,0342,0332,0342,0332,0332,0342,0332,0342,0332,0342,0332,0342,0332,0342,0332,0342,0332,0342,0332,0342,0332,0332,0342,0332,0342,0332,0342,0335,0331,0332,0342,0332,0342,0332,0342,0332,0342,0332,0342,0332,0342,0337,0342,0336,0332,0342,0332,0342,0332,0342,0332,0342,0332,0342,0332,0342,0332,0342,0332,0337,0342,0336,0332,0342,0332,0342,0332,0342,0332,0342,0332,0342,0335,0331,0332,0332,0332,0332,0332,0332,0332,0332,0332,0332,0332,0332,0332,0332,0332,0332,0332,0330,0333,0330,0333,0330,0333,0330,0333,0330,0333,0330,0333,0330,0333,0330,0330,0330,0330,0332,061,067,040,0155,0155,040,0365,0331,0331,0170,040,062,060,040,0155,0155,0365,",
  "x0": 350,
  "y0": 350,
  "unit": 33.92780946979877,
  "width": 700,
  "height": 700,
  "style": {
    "color0": "black",
    "fill0": "#00000030",
    "line0": 1,
    "color1": "black",
    "fill1": "black",
    "line1": 3,
    "color2": "red",
    "fill2": "red",
    "line2": 3,
    "color3": "#FF7900",
    "fill3": "#FF7900",
    "line3": 3,
    "color4": "yellow",
    "fill4": "yellow",
    "line4": 3,
    "color5": "green",
    "fill5": "green",
    "line5": 3,
    "color6": "blue",
    "fill6": "#8080ff30",
    "line6": 3,
    "color7": "purple",
    "fill7": "purple",
    "line7": 3
  },
  "shapes": [
    "0220:0313,0336,0333,0337,0342,0332,0342,0336,0336,0336,0316,0336,0332,0337,0313,0337,0337,0337,0342,0336,0336,0316,0336,0313,0336,0333,0337,0337,0337,0333,0333,0333,0333,0333,0336,0336,0336,0333,0337,0337,0337,0316,0337,0342,0316,0336,0313,0336,0336,0336,0332,0337,0337,0337,0316,0337,0313,0336,0332,0337,0330,",
    "0221:0336,0335,0331,0337,0342,0336,0334,0333,0337,",
    "0222:0220,0221,0336,0333,0337,0316,0336,0313,0336,0336,0336,0333,0362,0203,0334,0203,0337,0337,0337,0316,0337,0203,0336,0313,0336,0336,0336,0203,0334,0203,0364,0335,0335,0333,0337,0337,0337,0316,0337,0313,0336,0333,0337,",
    "0223:0336,0333,0337,0316,0336,0313,0336,0336,0336,0330,0332,0334,0331,0337,0337,0337,0316,0337,0342,0335,0336,0362,0203,0203,0203,0203,0313,0336,0203,0336,0203,0336,0203,0334,0337,0337,0337,0203,0203,0203,0203,0203,0334,0203,0203,0203,0203,0336,0203,0336,0203,0336,0203,0354,0335,0335,0337,0337,0337,0333,0333,0336,0333,0337,0316,0337,0313,0336,0333,0313,0337,0336,0332,0330,0336,0330,0316,0336,0330,0330,0330,0330,0313,0336,0330,0337,0337,0337,0316,0337,0313,0336,0313,0337,0331,0220,",
    "0224:0336,0336,0336,0201,0330,0330,0337,0341,0330,0341,0330,0336,0201,0337,0337,0337,",
    "0225:0336,0336,0201,0330,0341,0211,0211,0211,0336,0332,0336,0333,0343,0335,0335,0332,0332,0343,0335,0335,0332,0337,0337,0210,0210,0210,0331,0331,0337,0337,",
    "0226:0336,0336,0341,0332,0334,0342,0335,0335,0330,0330,0342,0334,0330,0332,0342,0331,0350,0335,0342,0335,0335,0342,0335,0335,0342,0335,0335,0342,0335,0304,0333,0333,0337,0332,0337,",
    "0227:0335,0312,0336,0306,0362,0203,0334,0334,0313,0337,0203,0334,0334,0203,0334,0334,0336,0203,0354,0304,0334,0312,0337,0313,0330,",
    "0230:0336,0336,0201,0334,0362,0203,0335,0203,0203,0335,0203,0203,0335,0203,0203,0335,0203,0354,0335,0333,0330,0334,0337,0342,0336,0330,0335,0330,0342,0330,0337,0337,",
    "0231:0336,0336,0336,0336,0347,0337,0337,0337,0337,",
    "0232:0336,0201,0336,0336,0330,0341,0331,0337,0337,0331,0337,",
    "0233:0342,0336,0330,0336,0336,0331,0334,0306,0362,0203,0335,0335,0203,0203,0335,0335,0203,0203,0335,0335,0203,0363,0330,0335,0335,0330,0330,0335,0331,0337,0342,0336,0330,0334,0337,0331,0336,0333,0335,0304,0334,0331,0331,0331,0337,0337,0337,0330,",
    "0234:0201,0336,0331,0350,0335,0336,0331,0337,0342,0336,0330,0334,0334,0331,0337,0342,0336,0330,0335,0337,0331,0304,0337,0330,",
    "0235:0336,0366,0330,0333,0333,0336,0331,0337,0367,0335,0335,0366,0331,0333,0333,0367,0335,0335,0337,",
    "0236:0201,0336,0336,0334,0306,0362,0336,0203,0335,0335,0203,0203,0335,0335,0203,0203,0335,0335,0203,0363,0304,0335,0337,0337,0337,0331,",
    "0237:0330,0335,0336,0336,0366,0337,0337,0333,0334,0334,0336,0336,0331,0367,0366,0335,0332,0337,0337,0331,0336,0336,0335,0367,0334,0337,0337,0330,",
    "01220:0333,0200,0336,0332,0336,0330,0220,0331,0331,0333,0333,0337,0337,",
    "01221:0333,0200,0336,0332,0336,0330,0220,0221,0331,0331,0333,0333,0337,0337,",
    "01222:0333,0200,0336,0330,0332,0336,0331,0220,0221,0222,0331,0333,0331,0333,0331,0333,0331,0333,0331,0331,0337,0337,0337,",
    "01223:0333,0200,0336,0332,0336,0223,0223,0223,0223,0331,0333,0331,0333,0331,0331,0337,0337,",
    "01224:0333,0200,0336,0332,0337,0224,0336,0333,0337,0331,",
    "01225:0333,0200,0336,0330,0332,0336,0331,0337,0225,0333,0336,0331,0337,0337,",
    "01226:0333,0200,0336,0330,0332,0336,0332,0337,0336,0330,0332,0337,0226,0336,0333,0330,0337,0337,0331,",
    "01227:0333,0200,0336,0332,0336,0330,0337,0227,0331,0336,0331,0337,0333,0337,",
    "01230:0333,0200,0336,0332,0337,0230,0336,0333,0337,0331,",
    "01231:0333,0200,0336,0332,0337,0342,0336,0330,0335,0342,0335,0342,0335,0342,0335,0337,0231,0336,0333,0331,0337,",
    "01232:0333,0200,0336,0330,0332,0336,0331,0337,0232,0333,0336,0331,0337,0337,",
    "01233:0333,0200,0336,0330,0332,0336,0331,0337,0233,0331,0336,0333,0333,0331,0337,0337,",
    "01234:0333,0200,0336,0330,0332,0336,0331,0333,0332,0337,0234,0333,0331,0336,0331,0337,0337,",
    "01235:0333,0200,0336,0330,0332,0336,0332,0330,0337,0235,0331,0336,0333,0331,0337,0337,",
    "01236:0333,0200,0336,0330,0332,0336,0331,0337,0236,0336,0333,0331,0333,0337,0337,",
    "01237:0333,0200,0336,0330,0332,0336,0237,",
    "0240:0220,0336,0331,0333,0336,0321,0335,0342,0335,0335,0342,0335,0330,0330,0332,0332,0337,0337,",
    "01240:0333,0200,0336,0330,0332,0210,0240,0211,0333,0331,0337,",
    "0241:0220,0336,0321,0343,0332,0350,0335,0336,0342,0334,0334,0342,0335,0304,0337,0333,0337,",
    "01241:0333,0200,0336,0332,0330,0210,0241,0211,0333,0331,0337,",
    "0242:0220,0321,0336,0343,0333,0336,0350,0335,0342,0334,0334,0342,0335,0337,0304,0332,0337,",
    "01242:0333,0200,0336,0330,0332,0210,0242,0211,0333,0331,0337,",
    "0243:0220,0336,0331,0332,0336,0321,0343,0332,0350,0334,0336,0342,0335,0335,0342,0337,0334,0334,0335,0304,0332,0330,0330,0337,0337,0333,",
    "01243:0333,0200,0336,0330,0332,0210,0243,0211,0333,0331,0337,",
    "0244:0220,0336,0331,0333,0336,0321,0343,0333,0350,0336,0335,0342,0334,0334,0342,0335,0337,0304,0333,0330,0330,0337,0337,0332,",
    "01244:0333,0200,0336,0330,0332,0210,0244,0211,0333,0331,0337,",
    "0245:0210,0332,0332,0362,0335,0203,0203,0203,0203,0334,0203,0363,0332,0332,0331,0211,",
    "01245:0333,0200,0336,0330,0332,0336,0245,0337,0333,0331,0337,",
    "0246:0210,0332,0332,0335,0306,0336,0330,0335,0335,0335,0321,0362,0203,0335,0335,0203,0364,0331,0350,0335,0337,0366,0333,0333,0333,0333,0334,0334,0334,0334,0367,0335,0336,0342,0334,0334,0342,0330,0330,0330,0330,0335,0335,0335,0304,0337,0211,",
    "01246:0333,0200,0336,0330,0332,0336,0246,",
    "0247:0330,0332,0336,0332,0336,0221,0333,0333,0333,0222,0333,0333,0333,0223,0333,0333,0333,0225,0333,0331,0331,0331,0332,0332,0332,0332,0332,0332,0332,0332,0332,0332,0332,0332,0333,0333,0226,0331,0331,0331,0333,0333,0333,0333,0333,0333,0333,0333,0333,0333,0333,0333,0333,0330,0333,0330,0330,0333,0330,0331,0332,0332,0332,0332,0332,0332,0332,0332,0332,0332,0332,0332,0227,0333,0333,0333,0230,0333,0331,0331,0331,0331,0332,0332,0332,0330,0332,0332,0332,0332,0332,0332,0333,0333,0231,0333,0333,0333,0232,0331,0333,0330,0333,0333,0233,0333,0333,0333,0234,0330,0330,0332,0330,0332,0332,0337,0337,",
    "01247:0333,0200,0336,0330,0332,0220,0336,0247,0337,0331,0333,0337,"
  ]
}</json>-->	<path d = "M62 689 L62 655 L62 621 L62 587 L62 554 L62 520 L62 486 L62 452 L62 418 L62 384 L62 350 L62 316 L62 282 L62 248 L62 214 L62 180 L62 146 L62 113 L62 79 L62 45 L62 11 L96 11 L129 11 L163 11 L197 11 L231 11 L265 11 L299 11 L333 11 L367 11 L401 11 L435 11 L469 11 L503 11 L537 11 L571 11 L604 11 L638 11 L638 45 L638 79 L638 113 L638 146 L638 180 L638 214 L638 248 L638 282 L638 316 L638 350 L638 384 L638 418 L638 452 L638 486 L638 520 L638 554 L638 587 L638 621 L638 655 L638 689 L604 689 L571 689 L537 689 L503 689 L469 689 L435 689 L401 689 L367 689 L333 689 L299 689 L265 689 L231 689 L197 689 L163 689 L129 689 L96 689 L62 689 Z" stroke = "#ff7900" stroke-width = "3" fill = "none" />	<path d = "M197 689 L197 146 L197 11 Z" stroke = "#ff7900" stroke-width = "3" fill = "none" />	<path d = "M503 11 L503 282 L503 554 L503 689 " stroke = "#ff7900" stroke-width = "3" fill = "none" />    <line x1="435" y1="486" x2="401" y2="486" style="stroke:#ff7900;stroke-width:3" />
    <line x1="401" y1="486" x2="367" y2="486" style="stroke:#ff7900;stroke-width:3" />
    <line x1="367" y1="486" x2="333" y2="486" style="stroke:#ff7900;stroke-width:3" />
    <line x1="333" y1="486" x2="299" y2="486" style="stroke:#ff7900;stroke-width:3" />
    <line x1="299" y1="486" x2="265" y2="486" style="stroke:#ff7900;stroke-width:3" />
    <line x1="265" y1="214" x2="299" y2="214" style="stroke:#ff7900;stroke-width:3" />
    <line x1="299" y1="214" x2="333" y2="214" style="stroke:#ff7900;stroke-width:3" />
    <line x1="333" y1="214" x2="367" y2="214" style="stroke:#ff7900;stroke-width:3" />
    <line x1="367" y1="214" x2="401" y2="214" style="stroke:#ff7900;stroke-width:3" />
    <line x1="401" y1="214" x2="435" y2="214" style="stroke:#ff7900;stroke-width:3" />
  <path d="M502.6751426140945 214.28876212080465           A33.92780946979877 33.92780946979877 0 0 1 434.81952367449696 214.2887621208047" fill = "none" stroke = "#ff7900" stroke-width = "3" />
  <path d="M434.8195236744974 485.7112378791949           A33.92780946979877 33.92780946979877 0 0 1 502.67514261409497 485.71123787919487" fill = "none" stroke = "#ff7900" stroke-width = "3" />
  <path d="M197.324857385906 485.7112378791953           A33.92780946979877 33.92780946979877 0 0 1 265.18047632550355 485.71123787919527" fill = "none" stroke = "#ff7900" stroke-width = "3" />
  <path d="M265.18047632550287 214.28876212080505           A33.92780946979877 33.92780946979877 0 0 1 197.32485738590532 214.288762120805" fill = "none" stroke = "#ff7900" stroke-width = "3" />
<circle cx="129" cy = "621" r = "33.92780946979877" stroke = "#ff7900" stroke-width = "3" fill = "none" />
<circle cx="129" cy = "79" r = "33.92780946979877" stroke = "#ff7900" stroke-width = "3" fill = "none" />
<circle cx="571" cy = "79" r = "33.92780946979877" stroke = "#ff7900" stroke-width = "3" fill = "none" />
<circle cx="571" cy = "621" r = "33.92780946979877" stroke = "#ff7900" stroke-width = "3" fill = "none" />
    <line x1="604" y1="689" x2="604" y2="655" style="stroke:#800080;stroke-width:3" />
    <line x1="571" y1="689" x2="571" y2="655" style="stroke:#800080;stroke-width:3" />
    <line x1="537" y1="689" x2="537" y2="655" style="stroke:#800080;stroke-width:3" />
    <line x1="469" y1="689" x2="469" y2="655" style="stroke:#800080;stroke-width:3" />
    <line x1="435" y1="689" x2="435" y2="655" style="stroke:#800080;stroke-width:3" />
    <line x1="401" y1="689" x2="401" y2="655" style="stroke:#800080;stroke-width:3" />
    <line x1="367" y1="689" x2="367" y2="655" style="stroke:#800080;stroke-width:3" />
    <line x1="333" y1="689" x2="333" y2="655" style="stroke:#800080;stroke-width:3" />
    <line x1="299" y1="689" x2="299" y2="655" style="stroke:#800080;stroke-width:3" />
    <line x1="265" y1="689" x2="265" y2="655" style="stroke:#800080;stroke-width:3" />
    <line x1="231" y1="689" x2="231" y2="655" style="stroke:#800080;stroke-width:3" />
    <line x1="163" y1="689" x2="163" y2="655" style="stroke:#800080;stroke-width:3" />
    <line x1="129" y1="689" x2="129" y2="655" style="stroke:#800080;stroke-width:3" />
    <line x1="96" y1="689" x2="96" y2="655" style="stroke:#800080;stroke-width:3" />
    <line x1="62" y1="655" x2="96" y2="655" style="stroke:#800080;stroke-width:3" />
    <line x1="62" y1="621" x2="96" y2="621" style="stroke:#800080;stroke-width:3" />
    <line x1="62" y1="587" x2="96" y2="587" style="stroke:#800080;stroke-width:3" />
    <line x1="62" y1="554" x2="96" y2="554" style="stroke:#800080;stroke-width:3" />
    <line x1="62" y1="520" x2="96" y2="520" style="stroke:#800080;stroke-width:3" />
    <line x1="62" y1="486" x2="96" y2="486" style="stroke:#800080;stroke-width:3" />
    <line x1="62" y1="486" x2="129" y2="486" style="stroke:#800080;stroke-width:3" />
    <line x1="62" y1="452" x2="96" y2="452" style="stroke:#800080;stroke-width:3" />
    <line x1="62" y1="418" x2="96" y2="418" style="stroke:#800080;stroke-width:3" />
    <line x1="62" y1="384" x2="96" y2="384" style="stroke:#800080;stroke-width:3" />
    <line x1="62" y1="350" x2="96" y2="350" style="stroke:#800080;stroke-width:3" />
    <line x1="62" y1="316" x2="96" y2="316" style="stroke:#800080;stroke-width:3" />
    <line x1="62" y1="282" x2="96" y2="282" style="stroke:#800080;stroke-width:3" />
    <line x1="62" y1="248" x2="96" y2="248" style="stroke:#800080;stroke-width:3" />
    <line x1="62" y1="214" x2="96" y2="214" style="stroke:#800080;stroke-width:3" />
    <line x1="62" y1="214" x2="129" y2="214" style="stroke:#800080;stroke-width:3" />
    <line x1="62" y1="180" x2="96" y2="180" style="stroke:#800080;stroke-width:3" />
    <line x1="62" y1="146" x2="96" y2="146" style="stroke:#800080;stroke-width:3" />
    <line x1="62" y1="113" x2="96" y2="113" style="stroke:#800080;stroke-width:3" />
    <line x1="62" y1="79" x2="96" y2="79" style="stroke:#800080;stroke-width:3" />
    <line x1="62" y1="45" x2="96" y2="45" style="stroke:#800080;stroke-width:3" />
    <line x1="96" y1="11" x2="96" y2="45" style="stroke:#800080;stroke-width:3" />
    <line x1="129" y1="11" x2="129" y2="45" style="stroke:#800080;stroke-width:3" />
    <line x1="163" y1="11" x2="163" y2="45" style="stroke:#800080;stroke-width:3" />
    <line x1="231" y1="11" x2="231" y2="45" style="stroke:#800080;stroke-width:3" />
    <line x1="265" y1="11" x2="265" y2="45" style="stroke:#800080;stroke-width:3" />
    <line x1="299" y1="11" x2="299" y2="45" style="stroke:#800080;stroke-width:3" />
    <line x1="333" y1="11" x2="333" y2="45" style="stroke:#800080;stroke-width:3" />
    <line x1="367" y1="11" x2="367" y2="45" style="stroke:#800080;stroke-width:3" />
    <line x1="401" y1="11" x2="401" y2="45" style="stroke:#800080;stroke-width:3" />
    <line x1="435" y1="11" x2="435" y2="45" style="stroke:#800080;stroke-width:3" />
    <line x1="469" y1="11" x2="469" y2="45" style="stroke:#800080;stroke-width:3" />
    <line x1="537" y1="11" x2="537" y2="45" style="stroke:#800080;stroke-width:3" />
    <line x1="571" y1="11" x2="571" y2="45" style="stroke:#800080;stroke-width:3" />
    <line x1="604" y1="11" x2="604" y2="45" style="stroke:#800080;stroke-width:3" />
    <line x1="638" y1="45" x2="604" y2="45" style="stroke:#800080;stroke-width:3" />
    <line x1="638" y1="79" x2="604" y2="79" style="stroke:#800080;stroke-width:3" />
    <line x1="638" y1="113" x2="604" y2="113" style="stroke:#800080;stroke-width:3" />
    <line x1="638" y1="146" x2="604" y2="146" style="stroke:#800080;stroke-width:3" />
    <line x1="638" y1="180" x2="604" y2="180" style="stroke:#800080;stroke-width:3" />
    <line x1="638" y1="214" x2="604" y2="214" style="stroke:#800080;stroke-width:3" />
    <line x1="638" y1="214" x2="571" y2="214" style="stroke:#800080;stroke-width:3" />
    <line x1="638" y1="248" x2="604" y2="248" style="stroke:#800080;stroke-width:3" />
    <line x1="638" y1="282" x2="604" y2="282" style="stroke:#800080;stroke-width:3" />
    <line x1="638" y1="316" x2="604" y2="316" style="stroke:#800080;stroke-width:3" />
    <line x1="638" y1="350" x2="604" y2="350" style="stroke:#800080;stroke-width:3" />
    <line x1="638" y1="384" x2="604" y2="384" style="stroke:#800080;stroke-width:3" />
    <line x1="638" y1="418" x2="604" y2="418" style="stroke:#800080;stroke-width:3" />
    <line x1="638" y1="452" x2="604" y2="452" style="stroke:#800080;stroke-width:3" />
    <line x1="638" y1="486" x2="571" y2="486" style="stroke:#800080;stroke-width:3" />
    <line x1="638" y1="520" x2="604" y2="520" style="stroke:#800080;stroke-width:3" />
    <line x1="638" y1="554" x2="604" y2="554" style="stroke:#800080;stroke-width:3" />
    <line x1="638" y1="587" x2="604" y2="587" style="stroke:#800080;stroke-width:3" />
    <line x1="638" y1="621" x2="604" y2="621" style="stroke:#800080;stroke-width:3" />
    <line x1="638" y1="655" x2="604" y2="655" style="stroke:#800080;stroke-width:3" />
    <text x="265" y = "316" fill = "#800080" font-size = "33.92780946979877px" font-family = "Arial">17 mm </text>
    <text x="265" y = "384" fill = "#800080" font-size = "33.92780946979877px" font-family = "Arial">x 20 mm</text>
</svg>