<svg width="700" height="400" viewbox = "0 0 700 400"  xmlns="http://www.w3.org/2000/svg">
<!--<json>{
  "glyph": "0323,0362,0203,0203,0203,0203,0203,0203,0203,0203,0203,0203,0203,0335,0203,0203,0203,0203,0203,0203,0203,0203,0203,0203,0203,0203,0203,0203,0203,0203,0203,0203,0203,0203,0203,0203,0203,0335,0203,0203,0203,0203,0203,0203,0203,0203,0203,0203,0203,0335,0203,0203,0203,0203,0203,0203,0203,0203,0203,0203,0203,0203,0203,0203,0203,0203,0203,0203,0203,0203,0203,0203,0203,0354,0335,0333,0333,0333,0362,0203,0203,0203,0203,0203,0203,0203,0203,0364,0333,0343,0333,0335,0362,0203,0203,0203,0203,0203,0203,0203,0203,0203,0203,0203,0203,0203,0364,0334,0333,0343,0333,0335,0335,0362,0203,0203,0203,0203,0203,0203,0203,0203,0364,0335,0335,0333,0333,0336,0332,0337,0330,0336,0330,0341,0337,0330,0330,0330,0330,0330,0330,0330,0330,0336,0341,0337,0337,0332,0332,0332,0332,0332,0332,0332,0332,0332,0332,0336,0336,0341,0337,0337,0331,0331,0331,0331,0336,0336,0341,0337,0337,0333,0333,0333,0333,0333,0333,0333,0333,0333,0333,0333,0333,0336,0331,0336,0331,0337,0362,0203,0203,0203,0203,0203,0203,0203,0203,0203,0203,0203,0335,0203,0203,0203,0203,0203,0203,0203,0203,0335,0203,0203,0203,0203,0203,0203,0203,0203,0203,0203,0203,0335,0203,0203,0203,0203,0203,0203,0203,0203,0335,0354,0333,0333,0333,0330,0333,0330,0333,0330,0336,0333,0330,0330,0330,0330,0330,0330,0332,0314,0313,0331,0331,0331,0331,0331,0331,0331,0331,0331,0331,0331,0331,0333,0333,0333,0333,0333,0333,0337,0330,0330,0330,0330,0330,0336,0330,0337,0332,0332,0332,0336,0314,0337,0341,0313,0337,0335,0335,0334,0334,0336,0313,0314,0336,0313,0337,0330,0327,0330,0332,0115,063,0365,0330,0330,0330,0330,0332,0332,0332,0332,0336,0331,0337,0333,0333,0333,0333,0333,0333,0333,0333,0342,0332,0332,0332,0332,0332,0332,0332,0332,0342,0333,0333,0333,0336,0330,0337,070,040,0155,0155,0365,0332,0332,0332,0332,0332,0336,0331,0332,0337,0342,0332,0332,0332,0332,0332,0332,0332,0332,0332,0332,0332,0332,0332,0332,0332,0332,0332,0332,0332,0332,0332,0332,0332,0342,0334,0342,0332,0332,0332,0332,0332,0332,0332,0332,0332,0332,0332,0342,0333,0333,0333,0333,0333,0333,0333,0333,0333,0333,0335,0331,0331,0331,0331,0332,0332,0332,061,061,040,0332,0155,0155,0365,0333,0330,0333,0330,0333,0330,0333,0330,0333,0330,0332,0333,0333,0333,0333,0333,0333,0333,0333,0333,0333,0333,0333,0333,0333,0333,0333,0333,0333,0333,0333,0333,0333,0333,0330,0332,0332,0332,0332,0332,0332,0332,0332,0332,0332,0332,0332,0332,0332,062,063,040,0155,0155,0365,",
  "x0": 74.57540088666639,
  "y0": 308.7198620084494,
  "unit": 17.52469497406961,
  "width": 700,
  "height": 400,
  "style": {
    "color0": "black",
    "fill0": "#00000030",
    "line0": 1,
    "color1": "black",
    "fill1": "black",
    "line1": 3,
    "color2": "red",
    "fill2": "red",
    "line2": 3,
    "color3": "#FF7900",
    "fill3": "#FF7900",
    "line3": 3,
    "color4": "yellow",
    "fill4": "yellow",
    "line4": 3,
    "color5": "green",
    "fill5": "green",
    "line5": 3,
    "color6": "blue",
    "fill6": "#8080ff30",
    "line6": 3,
    "color7": "purple",
    "fill7": "purple",
    "line7": 3
  },
  "shapes": [
    "0220:0313,0336,0333,0337,0342,0332,0342,0336,0336,0336,0316,0336,0332,0337,0313,0337,0337,0337,0342,0336,0336,0316,0336,0313,0336,0333,0337,0337,0337,0333,0333,0333,0333,0333,0336,0336,0336,0333,0337,0337,0337,0316,0337,0342,0316,0336,0313,0336,0336,0336,0332,0337,0337,0337,0316,0337,0313,0336,0332,0337,0330,",
    "0221:0336,0335,0331,0337,0342,0336,0334,0333,0337,",
    "0222:0220,0221,0336,0333,0337,0316,0336,0313,0336,0336,0336,0333,0362,0203,0334,0203,0337,0337,0337,0316,0337,0203,0336,0313,0336,0336,0336,0203,0334,0203,0364,0335,0335,0333,0337,0337,0337,0316,0337,0313,0336,0333,0337,",
    "0223:0336,0333,0337,0316,0336,0313,0336,0336,0336,0330,0332,0334,0331,0337,0337,0337,0316,0337,0342,0335,0336,0362,0203,0203,0203,0203,0313,0336,0203,0336,0203,0336,0203,0334,0337,0337,0337,0203,0203,0203,0203,0203,0334,0203,0203,0203,0203,0336,0203,0336,0203,0336,0203,0354,0335,0335,0337,0337,0337,0333,0333,0336,0333,0337,0316,0337,0313,0336,0333,0313,0337,0336,0332,0330,0336,0330,0316,0336,0330,0330,0330,0330,0313,0336,0330,0337,0337,0337,0316,0337,0313,0336,0313,0337,0331,0220,",
    "01220:0333,0200,0336,0332,0336,0330,0220,0331,0331,0333,0333,0337,0337,",
    "01221:0333,0200,0336,0332,0336,0330,0220,0221,0331,0331,0333,0333,0337,0337,",
    "01222:0333,0200,0336,0330,0332,0336,0331,0220,0221,0222,0331,0333,0331,0333,0331,0333,0331,0333,0331,0331,0337,0337,0337,",
    "01223:0333,0200,0336,0332,0336,0223,0223,0223,0223,0331,0333,0331,0333,0331,0331,0337,0337,",
    "01224:0333,0200,0336,0332,0337,0224,0336,0333,0337,0331,",
    "01225:0333,0200,0336,0330,0332,0336,0331,0337,0225,0333,0336,0331,0337,0337,",
    "01226:0333,0200,0336,0330,0332,0336,0332,0337,0336,0330,0332,0337,0226,0336,0333,0330,0337,0337,0331,",
    "01227:0333,0200,0336,0332,0336,0330,0337,0227,0331,0336,0331,0337,0333,0337,",
    "01230:0333,0200,0336,0332,0337,0230,0336,0333,0337,0331,",
    "01231:0333,0200,0336,0332,0337,0342,0336,0330,0335,0342,0335,0342,0335,0342,0335,0337,0231,0336,0333,0331,0337,",
    "01232:0333,0200,0336,0330,0332,0336,0331,0337,0232,0333,0336,0331,0337,0337,",
    "01233:0333,0200,0336,0330,0332,0336,0331,0337,0233,0331,0336,0333,0333,0331,0337,0337,",
    "01234:0333,0200,0336,0330,0332,0336,0331,0333,0332,0337,0234,0333,0331,0336,0331,0337,0337,",
    "01235:0333,0200,0336,0330,0332,0336,0332,0330,0337,0235,0331,0336,0333,0331,0337,0337,",
    "01236:0333,0200,0336,0330,0332,0336,0331,0337,0236,0336,0333,0331,0333,0337,0337,",
    "01237:0333,0200,0336,0330,0332,0336,0237,",
    "0240:0220,0336,0331,0333,0336,0321,0335,0342,0335,0335,0342,0335,0330,0330,0332,0332,0337,0337,",
    "01240:0333,0200,0336,0330,0332,0210,0240,0211,0333,0331,0337,",
    "0241:0220,0336,0321,0343,0332,0350,0335,0336,0342,0334,0334,0342,0335,0304,0337,0333,0337,",
    "01241:0333,0200,0336,0332,0330,0210,0241,0211,0333,0331,0337,",
    "0242:0220,0321,0336,0343,0333,0336,0350,0335,0342,0334,0334,0342,0335,0337,0304,0332,0337,",
    "01242:0333,0200,0336,0330,0332,0210,0242,0211,0333,0331,0337,",
    "0243:0220,0336,0331,0332,0336,0321,0343,0332,0350,0334,0336,0342,0335,0335,0342,0337,0334,0334,0335,0304,0332,0330,0330,0337,0337,0333,",
    "01243:0333,0200,0336,0330,0332,0210,0243,0211,0333,0331,0337,",
    "0244:0220,0336,0331,0333,0336,0321,0343,0333,0350,0336,0335,0342,0334,0334,0342,0335,0337,0304,0333,0330,0330,0337,0337,0332,",
    "01244:0333,0200,0336,0330,0332,0210,0244,0211,0333,0331,0337,",
    "0245:0210,0332,0332,0362,0335,0203,0203,0203,0203,0334,0203,0363,0332,0332,0331,0211,",
    "01245:0333,0200,0336,0330,0332,0336,0245,0337,0333,0331,0337,",
    "0246:0210,0332,0332,0335,0306,0336,0330,0335,0335,0335,0321,0362,0203,0335,0335,0203,0364,0331,0350,0335,0337,0366,0333,0333,0333,0333,0334,0334,0334,0334,0367,0335,0336,0342,0334,0334,0342,0330,0330,0330,0330,0335,0335,0335,0304,0337,0211,",
    "01246:0333,0200,0336,0330,0332,0336,0246,",
    "0247:0330,0332,0336,0332,0336,0221,0333,0333,0333,0222,0333,0333,0333,0223,0333,0333,0333,0225,0333,0331,0331,0331,0332,0332,0332,0332,0332,0332,0332,0332,0332,0332,0332,0332,0333,0333,0226,0331,0331,0331,0333,0333,0333,0333,0333,0333,0333,0333,0333,0333,0333,0333,0333,0330,0333,0330,0330,0333,0330,0331,0332,0332,0332,0332,0332,0332,0332,0332,0332,0332,0332,0332,0227,0333,0333,0333,0230,0333,0331,0331,0331,0331,0332,0332,0332,0330,0332,0332,0332,0332,0332,0332,0333,0333,0231,0333,0333,0333,0232,0331,0333,0330,0333,0333,0233,0333,0333,0333,0234,0330,0330,0332,0330,0332,0332,0337,0337,",
    "01247:0333,0200,0336,0330,0332,0220,0336,0247,0337,0331,0333,0337,"
  ]
}</json>-->	<path d = "M75 309 L75 291 L75 274 L75 256 L75 239 L75 221 L75 204 L75 186 L75 169 L75 151 L75 133 L75 116 L92 116 L110 116 L127 116 L145 116 L162 116 L180 116 L197 116 L215 116 L232 116 L250 116 L267 116 L285 116 L302 116 L320 116 L337 116 L355 116 L372 116 L390 116 L408 116 L425 116 L443 116 L460 116 L478 116 L478 133 L478 151 L478 169 L478 186 L478 204 L478 221 L478 239 L478 256 L478 274 L478 291 L478 309 L460 309 L443 309 L425 309 L408 309 L390 309 L372 309 L355 309 L337 309 L320 309 L302 309 L285 309 L267 309 L250 309 L232 309 L215 309 L197 309 L180 309 L162 309 L145 309 L127 309 L110 309 L92 309 L75 309 Z" stroke = "#ff7900" stroke-width = "3" fill = "none" />	<path d = "M127 309 L127 291 L127 274 L127 256 L127 239 L127 221 L127 204 L127 186 L127 169 " stroke = "#ff7900" stroke-width = "3" fill = "none" />  <path d="M127.14948580887523 168.5223022158925           A17.52469497406961 17.52469497406961 0 0 1 162.19887575701443 168.5223022158925" fill = "none" stroke = "#ff7900" stroke-width = "3" />
	<path d = "M162 169 L180 169 L197 169 L215 169 L232 169 L250 169 L267 169 L285 169 L302 169 L320 169 L337 169 L355 169 L372 169 L390 169 " stroke = "#ff7900" stroke-width = "3" fill = "none" />  <path d="M390.0199104199195 168.5223022158925           A17.52469497406961 17.52469497406961 0 0 1 425.06930036805875 168.5223022158925" fill = "none" stroke = "#ff7900" stroke-width = "3" />
	<path d = "M425 169 L425 186 L425 204 L425 221 L425 239 L425 256 L425 274 L425 291 L425 309 " stroke = "#ff7900" stroke-width = "3" fill = "none" /><circle cx="451" cy = "282" r = "8.762347487034805" stroke = "#ff7900" stroke-width = "3" fill = "none" />
<circle cx="451" cy = "142" r = "8.762347487034805" stroke = "#ff7900" stroke-width = "3" fill = "none" />
<circle cx="101" cy = "142" r = "8.762347487034805" stroke = "#ff7900" stroke-width = "3" fill = "none" />
<circle cx="101" cy = "282" r = "8.762347487034805" stroke = "#ff7900" stroke-width = "3" fill = "none" />
	<path d = "M521 309 L521 291 L521 274 L521 256 L521 239 L521 221 L521 204 L521 186 L521 169 L521 151 L521 133 L521 116 L539 116 L557 116 L574 116 L592 116 L609 116 L627 116 L644 116 L662 116 L662 133 L662 151 L662 169 L662 186 L662 204 L662 221 L662 239 L662 256 L662 274 L662 291 L662 309 L644 309 L627 309 L609 309 L592 309 L574 309 L557 309 L539 309 L521 309 Z" stroke = "#ff7900" stroke-width = "3" fill = "none" /><circle cx="609" cy = "212" r = "26.287042461104416" stroke = "#ff7900" stroke-width = "3" fill = "none" />
    <text x="592" y = "177" fill = "#800080" font-size = "17.52469497406961px" font-family = "Arial">M3</text>
    <line x1="662" y1="116" x2="662" y2="98" style="stroke:#800080;stroke-width:3" />
    <line x1="521" y1="116" x2="521" y2="98" style="stroke:#800080;stroke-width:3" />
    <text x="574" y = "107" fill = "#800080" font-size = "17.52469497406961px" font-family = "Arial">8 mm</text>
    <line x1="478" y1="116" x2="478" y2="98" style="stroke:#800080;stroke-width:3" />
    <line x1="75" y1="116" x2="75" y2="98" style="stroke:#800080;stroke-width:3" />
    <line x1="75" y1="116" x2="57" y2="116" style="stroke:#800080;stroke-width:3" />
    <line x1="75" y1="309" x2="57" y2="309" style="stroke:#800080;stroke-width:3" />
    <text x="4" y = "204" fill = "#800080" font-size = "17.52469497406961px" font-family = "Arial">11 mm</text>
    <text x="232" y = "98" fill = "#800080" font-size = "17.52469497406961px" font-family = "Arial">23 mm</text>
</svg>