<svg width="700" height="700" viewbox = "0 0 700 700"  xmlns="http://www.w3.org/2000/svg">
<!--<json>{
  "glyph": "0331,0331,0331,0331,0331,0331,0331,0331,0331,0331,0323,0334,0362,0203,0203,0203,0203,0203,0203,0203,0203,0203,0335,0337,0203,0203,0203,0203,0203,0203,0203,0203,0203,0203,0335,0336,0203,0203,0203,0203,0203,0203,0203,0203,0203,0203,0203,0203,0203,0203,0203,0203,0203,0335,0337,0203,0203,0203,0203,0203,0203,0203,0203,0203,0203,0335,0203,0203,0203,0203,0354,0335,0336,0333,0333,0333,0333,0330,0330,0330,0330,0330,0330,0330,0330,0330,0330,0337,0323,0341,0325,0331,0332,0332,0332,0331,0331,0331,0331,0333,0336,0336,0201,0330,0201,0330,0201,0330,0201,0330,0201,0330,0201,0330,0334,0201,0330,0201,0330,0201,0335,0330,0201,0330,0201,0330,0201,0330,0201,0330,0201,0330,0201,0330,0201,0330,0201,0330,0330,0330,0330,0330,0330,0330,0330,0330,0330,0330,0330,0335,0330,0330,0330,0330,0330,0335,0201,0330,0201,0330,0201,0330,0201,0330,0201,0330,0201,0330,0335,0201,0330,0201,0330,0201,0327,0335,0337,0331,0332,0332,0332,0331,0332,0331,0331,0332,0331,0332,0331,0331,0331,0331,0331,0331,0331,0331,0331,0336,0332,0337,0333,0342,0333,0342,0333,0342,0333,0342,0333,0342,0333,0342,0333,0342,0333,0342,0333,0333,0342,0333,0342,0333,0342,0333,0342,0333,0342,0333,0342,0333,0342,0334,0331,0333,0342,0333,0342,0333,0342,0333,0342,0333,0342,0333,0342,0333,0342,0333,0342,0333,0342,0333,0342,0337,0342,0336,0333,0342,0333,0342,0333,0342,0333,0342,0333,0342,0333,0342,0333,0342,0333,0342,0333,0342,0334,0331,0333,0342,0333,0342,0333,0342,0333,0342,0333,0342,0333,0342,0333,0342,0333,0342,0333,0342,0333,0342,0333,0342,0333,0342,0333,0342,0333,0342,0333,0342,0333,0342,0334,0331,0333,0342,0333,0342,0333,0342,0333,0342,0333,0342,0333,0342,0333,0342,0333,0342,0333,0342,0333,0342,0333,0342,0333,0342,0333,0342,0333,0342,0333,0342,0333,0342,0333,0342,0333,0342,0333,0342,0334,0333,0333,0333,0333,0333,0331,0332,0332,0332,0332,0332,0334,0331,0331,0331,0333,0333,0333,0333,0333,0331,061,067,040,0155,0155,040,0170,040,062,060,040,0155,0155,0365,",
  "x0": 350,
  "y0": 350,
  "unit": 33.92780946979877,
  "width": 700,
  "height": 700,
  "style": {
    "color0": "black",
    "fill0": "#00000030",
    "line0": 1,
    "color1": "black",
    "fill1": "black",
    "line1": 3,
    "color2": "red",
    "fill2": "red",
    "line2": 3,
    "color3": "#FF7900",
    "fill3": "#FF7900",
    "line3": 3,
    "color4": "yellow",
    "fill4": "yellow",
    "line4": 3,
    "color5": "green",
    "fill5": "green",
    "line5": 3,
    "color6": "blue",
    "fill6": "#8080ff30",
    "line6": 3,
    "color7": "purple",
    "fill7": "purple",
    "line7": 3
  },
  "shapes": [
    "0220:0313,0336,0333,0337,0342,0332,0342,0336,0336,0336,0316,0336,0332,0337,0313,0337,0337,0337,0342,0336,0336,0316,0336,0313,0336,0333,0337,0337,0337,0333,0333,0333,0333,0333,0336,0336,0336,0333,0337,0337,0337,0316,0337,0342,0316,0336,0313,0336,0336,0336,0332,0337,0337,0337,0316,0337,0313,0336,0332,0337,0330,",
    "0221:0336,0335,0331,0337,0342,0336,0334,0333,0337,",
    "0222:0220,0221,0336,0333,0337,0316,0336,0313,0336,0336,0336,0333,0362,0203,0334,0203,0337,0337,0337,0316,0337,0203,0336,0313,0336,0336,0336,0203,0334,0203,0364,0335,0335,0333,0337,0337,0337,0316,0337,0313,0336,0333,0337,",
    "0223:0336,0333,0337,0316,0336,0313,0336,0336,0336,0330,0332,0334,0331,0337,0337,0337,0316,0337,0342,0335,0336,0362,0203,0203,0203,0203,0313,0336,0203,0336,0203,0336,0203,0334,0337,0337,0337,0203,0203,0203,0203,0203,0334,0203,0203,0203,0203,0336,0203,0336,0203,0336,0203,0354,0335,0335,0337,0337,0337,0333,0333,0336,0333,0337,0316,0337,0313,0336,0333,0313,0337,0336,0332,0330,0336,0330,0316,0336,0330,0330,0330,0330,0313,0336,0330,0337,0337,0337,0316,0337,0313,0336,0313,0337,0331,0220,",
    "0224:0336,0336,0336,0201,0330,0330,0337,0341,0330,0341,0330,0336,0201,0337,0337,0337,",
    "0225:0336,0336,0201,0330,0341,0211,0211,0211,0336,0332,0336,0333,0343,0335,0335,0332,0332,0343,0335,0335,0332,0337,0337,0210,0210,0210,0331,0331,0337,0337,",
    "0226:0336,0336,0341,0332,0334,0342,0335,0335,0330,0330,0342,0334,0330,0332,0342,0331,0350,0335,0342,0335,0335,0342,0335,0335,0342,0335,0335,0342,0335,0304,0333,0333,0337,0332,0337,",
    "0227:0335,0312,0336,0306,0362,0203,0334,0334,0313,0337,0203,0334,0334,0203,0334,0334,0336,0203,0354,0304,0334,0312,0337,0313,0330,",
    "0230:0336,0336,0201,0334,0362,0203,0335,0203,0203,0335,0203,0203,0335,0203,0203,0335,0203,0354,0335,0333,0330,0334,0337,0342,0336,0330,0335,0330,0342,0330,0337,0337,",
    "0231:0336,0336,0336,0336,0347,0337,0337,0337,0337,",
    "0232:0336,0201,0336,0336,0330,0341,0331,0337,0337,0331,0337,",
    "0233:0342,0336,0330,0336,0336,0331,0334,0306,0362,0203,0335,0335,0203,0203,0335,0335,0203,0203,0335,0335,0203,0363,0330,0335,0335,0330,0330,0335,0331,0337,0342,0336,0330,0334,0337,0331,0336,0333,0335,0304,0334,0331,0331,0331,0337,0337,0337,0330,",
    "0234:0201,0336,0331,0350,0335,0336,0331,0337,0342,0336,0330,0334,0334,0331,0337,0342,0336,0330,0335,0337,0331,0304,0337,0330,",
    "0235:0336,0366,0330,0333,0333,0336,0331,0337,0367,0335,0335,0366,0331,0333,0333,0367,0335,0335,0337,",
    "0236:0201,0336,0336,0334,0306,0362,0336,0203,0335,0335,0203,0203,0335,0335,0203,0203,0335,0335,0203,0363,0304,0335,0337,0337,0337,0331,",
    "0237:0330,0335,0336,0336,0366,0337,0337,0333,0334,0334,0336,0336,0331,0367,0366,0335,0332,0337,0337,0331,0336,0336,0335,0367,0334,0337,0337,0330,",
    "01220:0333,0200,0336,0332,0336,0330,0220,0331,0331,0333,0333,0337,0337,",
    "01221:0333,0200,0336,0332,0336,0330,0220,0221,0331,0331,0333,0333,0337,0337,",
    "01222:0333,0200,0336,0330,0332,0336,0331,0220,0221,0222,0331,0333,0331,0333,0331,0333,0331,0333,0331,0331,0337,0337,0337,",
    "01223:0333,0200,0336,0332,0336,0223,0223,0223,0223,0331,0333,0331,0333,0331,0331,0337,0337,",
    "01224:0333,0200,0336,0332,0337,0224,0336,0333,0337,0331,",
    "01225:0333,0200,0336,0330,0332,0336,0331,0337,0225,0333,0336,0331,0337,0337,",
    "01226:0333,0200,0336,0330,0332,0336,0332,0337,0336,0330,0332,0337,0226,0336,0333,0330,0337,0337,0331,",
    "01227:0333,0200,0336,0332,0336,0330,0337,0227,0331,0336,0331,0337,0333,0337,",
    "01230:0333,0200,0336,0332,0337,0230,0336,0333,0337,0331,",
    "01231:0333,0200,0336,0332,0337,0342,0336,0330,0335,0342,0335,0342,0335,0342,0335,0337,0231,0336,0333,0331,0337,",
    "01232:0333,0200,0336,0330,0332,0336,0331,0337,0232,0333,0336,0331,0337,0337,",
    "01233:0333,0200,0336,0330,0332,0336,0331,0337,0233,0331,0336,0333,0333,0331,0337,0337,",
    "01234:0333,0200,0336,0330,0332,0336,0331,0333,0332,0337,0234,0333,0331,0336,0331,0337,0337,",
    "01235:0333,0200,0336,0330,0332,0336,0332,0330,0337,0235,0331,0336,0333,0331,0337,0337,",
    "01236:0333,0200,0336,0330,0332,0336,0331,0337,0236,0336,0333,0331,0333,0337,0337,",
    "01237:0333,0200,0336,0330,0332,0336,0237,",
    "0240:0220,0336,0331,0333,0336,0321,0335,0342,0335,0335,0342,0335,0330,0330,0332,0332,0337,0337,",
    "01240:0333,0200,0336,0330,0332,0210,0240,0211,0333,0331,0337,",
    "0241:0220,0336,0321,0343,0332,0350,0335,0336,0342,0334,0334,0342,0335,0304,0337,0333,0337,",
    "01241:0333,0200,0336,0332,0330,0210,0241,0211,0333,0331,0337,",
    "0242:0220,0321,0336,0343,0333,0336,0350,0335,0342,0334,0334,0342,0335,0337,0304,0332,0337,",
    "01242:0333,0200,0336,0330,0332,0210,0242,0211,0333,0331,0337,",
    "0243:0220,0336,0331,0332,0336,0321,0343,0332,0350,0334,0336,0342,0335,0335,0342,0337,0334,0334,0335,0304,0332,0330,0330,0337,0337,0333,",
    "01243:0333,0200,0336,0330,0332,0210,0243,0211,0333,0331,0337,",
    "0244:0220,0336,0331,0333,0336,0321,0343,0333,0350,0336,0335,0342,0334,0334,0342,0335,0337,0304,0333,0330,0330,0337,0337,0332,",
    "01244:0333,0200,0336,0330,0332,0210,0244,0211,0333,0331,0337,",
    "0245:0210,0332,0332,0362,0335,0203,0203,0203,0203,0334,0203,0363,0332,0332,0331,0211,",
    "01245:0333,0200,0336,0330,0332,0336,0245,0337,0333,0331,0337,",
    "0246:0210,0332,0332,0335,0306,0336,0330,0335,0335,0335,0321,0362,0203,0335,0335,0203,0364,0331,0350,0335,0337,0366,0333,0333,0333,0333,0334,0334,0334,0334,0367,0335,0336,0342,0334,0334,0342,0330,0330,0330,0330,0335,0335,0335,0304,0337,0211,",
    "01246:0333,0200,0336,0330,0332,0336,0246,",
    "0247:0330,0332,0336,0332,0336,0221,0333,0333,0333,0222,0333,0333,0333,0223,0333,0333,0333,0225,0333,0331,0331,0331,0332,0332,0332,0332,0332,0332,0332,0332,0332,0332,0332,0332,0333,0333,0226,0331,0331,0331,0333,0333,0333,0333,0333,0333,0333,0333,0333,0333,0333,0333,0333,0330,0333,0330,0330,0333,0330,0331,0332,0332,0332,0332,0332,0332,0332,0332,0332,0332,0332,0332,0227,0333,0333,0333,0230,0333,0331,0331,0331,0331,0332,0332,0332,0330,0332,0332,0332,0332,0332,0332,0333,0333,0231,0333,0333,0333,0232,0331,0333,0330,0333,0333,0233,0333,0333,0333,0234,0330,0330,0332,0330,0332,0332,0337,0337,",
    "01247:0333,0200,0336,0330,0332,0220,0336,0247,0337,0331,0333,0337,"
  ]
}</json>-->	<path d = "M350 689 L316 689 L282 689 L248 689 L214 689 L180 689 L146 689 L113 689 L79 689 L45 689 L45 621 L45 554 L45 486 L45 418 L45 350 L45 282 L45 214 L45 146 L45 79 L45 11 L79 11 L113 11 L146 11 L180 11 L214 11 L248 11 L282 11 L316 11 L350 11 L384 11 L418 11 L452 11 L486 11 L520 11 L554 11 L587 11 L621 11 L621 79 L621 146 L621 214 L621 282 L621 350 L621 418 L621 486 L621 554 L621 621 L621 689 L554 689 L486 689 L418 689 L350 689 Z" stroke = "#ff7900" stroke-width = "3" fill = "none" /><circle cx="486" cy = "350" r = "67.85561893959753" stroke = "#ff7900" stroke-width = "3" fill = "none" />
    <line x1="350" y1="689" x2="350" y2="672" style="stroke:#008000;stroke-width:3" />
    <line x1="350" y1="655" x2="350" y2="638" style="stroke:#008000;stroke-width:3" />
    <line x1="350" y1="621" x2="350" y2="604" style="stroke:#008000;stroke-width:3" />
    <line x1="350" y1="587" x2="350" y2="571" style="stroke:#008000;stroke-width:3" />
    <line x1="350" y1="554" x2="350" y2="537" style="stroke:#008000;stroke-width:3" />
    <line x1="350" y1="520" x2="350" y2="503" style="stroke:#008000;stroke-width:3" />
    <line x1="350" y1="486" x2="333" y2="486" style="stroke:#008000;stroke-width:3" />
    <line x1="316" y1="486" x2="299" y2="486" style="stroke:#008000;stroke-width:3" />
    <line x1="282" y1="486" x2="265" y2="486" style="stroke:#008000;stroke-width:3" />
    <line x1="265" y1="469" x2="265" y2="452" style="stroke:#008000;stroke-width:3" />
    <line x1="265" y1="435" x2="265" y2="418" style="stroke:#008000;stroke-width:3" />
    <line x1="265" y1="401" x2="265" y2="384" style="stroke:#008000;stroke-width:3" />
    <line x1="265" y1="367" x2="265" y2="350" style="stroke:#008000;stroke-width:3" />
    <line x1="265" y1="333" x2="265" y2="316" style="stroke:#008000;stroke-width:3" />
    <line x1="265" y1="299" x2="265" y2="282" style="stroke:#008000;stroke-width:3" />
    <line x1="265" y1="265" x2="265" y2="248" style="stroke:#008000;stroke-width:3" />
    <line x1="265" y1="231" x2="265" y2="214" style="stroke:#008000;stroke-width:3" />
    <line x1="350" y1="11" x2="350" y2="28" style="stroke:#008000;stroke-width:3" />
    <line x1="350" y1="45" x2="350" y2="62" style="stroke:#008000;stroke-width:3" />
    <line x1="350" y1="79" x2="350" y2="96" style="stroke:#008000;stroke-width:3" />
    <line x1="350" y1="113" x2="350" y2="129" style="stroke:#008000;stroke-width:3" />
    <line x1="350" y1="146" x2="350" y2="163" style="stroke:#008000;stroke-width:3" />
    <line x1="350" y1="180" x2="350" y2="197" style="stroke:#008000;stroke-width:3" />
    <line x1="350" y1="214" x2="333" y2="214" style="stroke:#008000;stroke-width:3" />
    <line x1="316" y1="214" x2="299" y2="214" style="stroke:#008000;stroke-width:3" />
    <line x1="282" y1="214" x2="265" y2="214" style="stroke:#008000;stroke-width:3" />
    <line x1="79" y1="689" x2="79" y2="655" style="stroke:#800080;stroke-width:3" />
    <line x1="113" y1="689" x2="113" y2="655" style="stroke:#800080;stroke-width:3" />
    <line x1="146" y1="689" x2="146" y2="655" style="stroke:#800080;stroke-width:3" />
    <line x1="180" y1="689" x2="180" y2="655" style="stroke:#800080;stroke-width:3" />
    <line x1="214" y1="689" x2="214" y2="655" style="stroke:#800080;stroke-width:3" />
    <line x1="248" y1="689" x2="248" y2="655" style="stroke:#800080;stroke-width:3" />
    <line x1="282" y1="689" x2="282" y2="655" style="stroke:#800080;stroke-width:3" />
    <line x1="316" y1="689" x2="316" y2="655" style="stroke:#800080;stroke-width:3" />
    <line x1="384" y1="689" x2="384" y2="655" style="stroke:#800080;stroke-width:3" />
    <line x1="418" y1="689" x2="418" y2="655" style="stroke:#800080;stroke-width:3" />
    <line x1="452" y1="689" x2="452" y2="655" style="stroke:#800080;stroke-width:3" />
    <line x1="486" y1="689" x2="486" y2="655" style="stroke:#800080;stroke-width:3" />
    <line x1="520" y1="689" x2="520" y2="655" style="stroke:#800080;stroke-width:3" />
    <line x1="554" y1="689" x2="554" y2="655" style="stroke:#800080;stroke-width:3" />
    <line x1="587" y1="689" x2="587" y2="655" style="stroke:#800080;stroke-width:3" />
    <line x1="621" y1="655" x2="587" y2="655" style="stroke:#800080;stroke-width:3" />
    <line x1="621" y1="621" x2="587" y2="621" style="stroke:#800080;stroke-width:3" />
    <line x1="621" y1="587" x2="587" y2="587" style="stroke:#800080;stroke-width:3" />
    <line x1="621" y1="554" x2="587" y2="554" style="stroke:#800080;stroke-width:3" />
    <line x1="621" y1="520" x2="587" y2="520" style="stroke:#800080;stroke-width:3" />
    <line x1="621" y1="486" x2="587" y2="486" style="stroke:#800080;stroke-width:3" />
    <line x1="621" y1="452" x2="587" y2="452" style="stroke:#800080;stroke-width:3" />
    <line x1="621" y1="418" x2="587" y2="418" style="stroke:#800080;stroke-width:3" />
    <line x1="621" y1="384" x2="587" y2="384" style="stroke:#800080;stroke-width:3" />
    <line x1="621" y1="350" x2="587" y2="350" style="stroke:#800080;stroke-width:3" />
    <line x1="621" y1="350" x2="554" y2="350" style="stroke:#800080;stroke-width:3" />
    <line x1="621" y1="316" x2="587" y2="316" style="stroke:#800080;stroke-width:3" />
    <line x1="621" y1="282" x2="587" y2="282" style="stroke:#800080;stroke-width:3" />
    <line x1="621" y1="248" x2="587" y2="248" style="stroke:#800080;stroke-width:3" />
    <line x1="621" y1="214" x2="587" y2="214" style="stroke:#800080;stroke-width:3" />
    <line x1="621" y1="180" x2="587" y2="180" style="stroke:#800080;stroke-width:3" />
    <line x1="621" y1="146" x2="587" y2="146" style="stroke:#800080;stroke-width:3" />
    <line x1="621" y1="113" x2="587" y2="113" style="stroke:#800080;stroke-width:3" />
    <line x1="621" y1="79" x2="587" y2="79" style="stroke:#800080;stroke-width:3" />
    <line x1="621" y1="45" x2="587" y2="45" style="stroke:#800080;stroke-width:3" />
    <line x1="587" y1="11" x2="587" y2="45" style="stroke:#800080;stroke-width:3" />
    <line x1="554" y1="11" x2="554" y2="45" style="stroke:#800080;stroke-width:3" />
    <line x1="520" y1="11" x2="520" y2="45" style="stroke:#800080;stroke-width:3" />
    <line x1="486" y1="11" x2="486" y2="45" style="stroke:#800080;stroke-width:3" />
    <line x1="452" y1="11" x2="452" y2="45" style="stroke:#800080;stroke-width:3" />
    <line x1="418" y1="11" x2="418" y2="45" style="stroke:#800080;stroke-width:3" />
    <line x1="384" y1="11" x2="384" y2="45" style="stroke:#800080;stroke-width:3" />
    <line x1="350" y1="11" x2="350" y2="45" style="stroke:#800080;stroke-width:3" />
    <line x1="316" y1="11" x2="316" y2="45" style="stroke:#800080;stroke-width:3" />
    <line x1="282" y1="11" x2="282" y2="45" style="stroke:#800080;stroke-width:3" />
    <line x1="248" y1="11" x2="248" y2="45" style="stroke:#800080;stroke-width:3" />
    <line x1="214" y1="11" x2="214" y2="45" style="stroke:#800080;stroke-width:3" />
    <line x1="180" y1="11" x2="180" y2="45" style="stroke:#800080;stroke-width:3" />
    <line x1="146" y1="11" x2="146" y2="45" style="stroke:#800080;stroke-width:3" />
    <line x1="113" y1="11" x2="113" y2="45" style="stroke:#800080;stroke-width:3" />
    <line x1="79" y1="11" x2="79" y2="45" style="stroke:#800080;stroke-width:3" />
    <line x1="45" y1="45" x2="79" y2="45" style="stroke:#800080;stroke-width:3" />
    <line x1="45" y1="79" x2="79" y2="79" style="stroke:#800080;stroke-width:3" />
    <line x1="45" y1="113" x2="79" y2="113" style="stroke:#800080;stroke-width:3" />
    <line x1="45" y1="146" x2="79" y2="146" style="stroke:#800080;stroke-width:3" />
    <line x1="45" y1="180" x2="79" y2="180" style="stroke:#800080;stroke-width:3" />
    <line x1="45" y1="214" x2="79" y2="214" style="stroke:#800080;stroke-width:3" />
    <line x1="45" y1="248" x2="79" y2="248" style="stroke:#800080;stroke-width:3" />
    <line x1="45" y1="282" x2="79" y2="282" style="stroke:#800080;stroke-width:3" />
    <line x1="45" y1="316" x2="79" y2="316" style="stroke:#800080;stroke-width:3" />
    <line x1="45" y1="350" x2="79" y2="350" style="stroke:#800080;stroke-width:3" />
    <line x1="45" y1="384" x2="79" y2="384" style="stroke:#800080;stroke-width:3" />
    <line x1="45" y1="418" x2="79" y2="418" style="stroke:#800080;stroke-width:3" />
    <line x1="45" y1="452" x2="79" y2="452" style="stroke:#800080;stroke-width:3" />
    <line x1="45" y1="486" x2="79" y2="486" style="stroke:#800080;stroke-width:3" />
    <line x1="45" y1="520" x2="79" y2="520" style="stroke:#800080;stroke-width:3" />
    <line x1="45" y1="554" x2="79" y2="554" style="stroke:#800080;stroke-width:3" />
    <line x1="45" y1="587" x2="79" y2="587" style="stroke:#800080;stroke-width:3" />
    <line x1="45" y1="621" x2="79" y2="621" style="stroke:#800080;stroke-width:3" />
    <line x1="45" y1="655" x2="79" y2="655" style="stroke:#800080;stroke-width:3" />
    <text x="180" y = "520" fill = "#800080" font-size = "33.92780946979877px" font-family = "Arial">17 mm x 20 mm</text>
</svg>