<svg width="700" height="200" viewbox = "0 0 700 200"  xmlns="http://www.w3.org/2000/svg">
<!--<json>{
  "glyph": "0336,0336,0336,0331,0333,0331,0333,0333,0333,0331,0331,0333,0331,0337,0337,0337,0336,0332,0332,0332,0337,0332,0321,0226,0226,0226,0226,0226,0335,0201,0335,0220,0335,0335,0223,0330,0231,0335,0232,0334,0334,0330,0330,0330,0330,0330,0330,0330,0330,0330,0336,0331,0337,0222,0232,0335,0336,0330,0336,0333,0103,0151,0156,0365,0333,0333,0333,0333,0331,0122,0154,0151,0156,0145,0365,0333,0333,0333,0333,0333,0333,0122,0154,0151,0156,0145,0365,0333,0333,0333,0333,0333,0333,0122,0154,0151,0156,0145,0365,0333,0333,0333,0333,0333,0333,0122,0154,0151,0156,0145,0365,0333,0333,0333,0333,0333,0333,0122,0154,0151,0156,0145,0365,0331,0331,0331,0331,0331,0103,0154,0151,0156,0145,0365,0332,0332,0332,0332,0332,0332,0103,0154,0151,0156,0145,0365,0332,0332,0332,0332,0332,0332,0103,0154,0151,0156,0145,0365,0332,0332,0332,0332,0332,0332,0103,0154,0151,0156,0145,0365,0332,0332,0332,0332,0332,0332,0103,0154,0151,0156,0145,0365,0333,0333,0333,0333,0333,0330,0333,0333,0333,0333,0333,0333,0333,0333,0333,0333,0333,0333,0333,0333,0333,0333,0333,0333,0333,0333,0333,0333,0333,0333,0333,0333,0333,0333,0333,0122,0157,0165,0164,0365,",
  "x0": 240.04299033451287,
  "y0": 29.33884297520663,
  "unit": 60.1051840721262,
  "width": 700,
  "height": 200,
  "style": {
    "color0": "black",
    "fill0": "black",
    "line0": 1,
    "color1": "black",
    "fill1": "black",
    "line1": 5,
    "color2": "red",
    "fill2": "red",
    "line2": 6,
    "color3": "#FF7900",
    "fill3": "#FF7900",
    "line3": 1,
    "color4": "yellow",
    "fill4": "yellow",
    "line4": 1,
    "color5": "green",
    "fill5": "green",
    "line5": 1,
    "color6": "blue",
    "fill6": "blue",
    "line6": 6,
    "color7": "purple",
    "fill7": "purple",
    "line7": 1
  },
  "shapes": [
    "0220:0336,0336,0336,0336,0336,0201,0337,0362,0203,0306,0334,0337,0203,0335,0335,0203,0203,0334,0334,0203,0203,0335,0335,0203,0203,0334,0334,0203,0203,0335,0335,0203,0203,0334,0334,0203,0335,0203,0336,0336,0203,0364,0304,0337,0337,0337,0337,0337,",
    "0221:0336,0314,0336,0313,0337,0235,0235,0235,0235,0337,0314,0337,0313,0336,",
    "0222:0336,0336,0362,0203,0336,0203,0334,0364,0337,0342,0335,0335,0342,0332,0342,0335,0335,0342,0335,0336,0362,0203,0337,0203,0335,0364,0335,0337,0337,0335,0335,",
    "0223:0336,0331,0342,0337,0304,0336,0336,0335,0310,0362,0203,0335,0350,0335,0337,0203,0335,0335,0203,0335,0335,0335,0336,0203,0354,0304,0334,0313,0337,0337,0304,0336,0330,0337,",
    "0224:0336,0336,0336,0201,0330,0330,0337,0341,0330,0341,0330,0336,0201,0337,0337,0337,",
    "0225:0336,0336,0201,0330,0337,0334,0336,0336,0336,0336,0331,0337,0362,0203,0335,0337,0337,0337,0305,0352,0334,0203,0335,0304,0335,0336,0336,0336,0203,0363,0331,0334,0337,0337,0337,0305,0352,0334,0331,0335,0304,0336,0336,0336,0362,0335,0203,0334,0337,0337,0337,0305,0352,0335,0203,0334,0304,0334,0336,0336,0336,0203,0363,0335,0333,0337,0337,0337,0305,0352,0335,0331,0334,0304,0336,0336,0336,0336,0332,0337,0337,0337,0337,0336,0330,0337,0341,0331,0337,0336,0336,0331,0337,0337,",
    "0226:0335,0220,0335,0222,0335,0335,0330,0231,0331,0223,0330,0335,0336,0201,0334,0337,",
    "0227:0335,0312,0336,0306,0201,0334,0334,0313,0337,0201,0334,0334,0201,0334,0334,0336,0201,0304,0334,0312,0337,0313,0330,",
    "0230:0336,0336,0201,0334,0201,0335,0201,0335,0201,0201,0335,0201,0335,0201,0335,0330,0334,0330,0335,0201,0335,0201,0201,0335,0201,0335,0335,0330,0332,0201,0337,0337,",
    "0231:0336,0336,0336,0336,0347,0337,0337,0337,0337,",
    "0232:0336,0201,0336,0336,0330,0341,0331,0337,0337,0331,0337,",
    "0233:0342,0336,0330,0336,0336,0331,0334,0306,0362,0203,0335,0335,0203,0203,0335,0335,0203,0203,0335,0335,0203,0363,0330,0335,0335,0330,0330,0335,0331,0337,0342,0336,0330,0334,0337,0331,0336,0333,0335,0304,0334,0331,0331,0331,0337,0337,0337,0330,",
    "0234:0201,0336,0331,0350,0335,0336,0331,0337,0342,0336,0330,0334,0334,0331,0337,0342,0336,0330,0335,0337,0331,0304,0337,0330,",
    "0235:0336,0366,0330,0333,0333,0336,0331,0337,0367,0335,0335,0366,0331,0333,0333,0367,0335,0335,0337,",
    "0236:0201,0336,0336,0334,0306,0362,0336,0203,0335,0335,0203,0203,0335,0335,0203,0203,0335,0335,0203,0363,0304,0335,0337,0337,0337,0331,",
    "0237:0330,0335,0336,0336,0366,0337,0337,0333,0334,0334,0336,0336,0331,0367,0366,0335,0332,0337,0337,0331,0336,0336,0335,0367,0334,0337,0337,0330,",
    "01220:0333,0200,0336,0332,0337,0220,0336,0333,0337,0331,",
    "01221:0333,0200,0336,0332,0337,0336,0336,0336,0332,0337,0337,0337,0221,0331,0336,0333,0336,0336,0333,0337,0337,0337,",
    "01222:0333,0200,0336,0332,0337,0222,0336,0333,0337,0331,",
    "01223:0333,0200,0336,0332,0337,0330,0223,0331,0336,0333,0337,",
    "01224:0333,0200,0336,0332,0337,0224,0336,0333,0337,0331,",
    "01225:0333,0200,0336,0330,0332,0336,0331,0337,0225,0333,0336,0331,0337,0337,",
    "01226:0333,0200,0336,0330,0332,0336,0332,0337,0336,0330,0332,0337,0226,0336,0333,0330,0337,0337,0331,",
    "01227:0333,0200,0336,0332,0336,0330,0337,0227,0331,0336,0331,0337,0333,0337,",
    "01230:0333,0200,0336,0332,0337,0230,0336,0333,0337,0331,",
    "01231:0333,0200,0336,0332,0337,0342,0336,0330,0335,0342,0335,0342,0335,0342,0335,0337,0231,0336,0333,0331,0337,",
    "01232:0333,0200,0336,0330,0332,0336,0331,0337,0232,0333,0336,0331,0337,0337,",
    "01233:0333,0200,0336,0330,0332,0336,0331,0337,0233,0331,0336,0333,0333,0331,0337,0337,",
    "01234:0333,0200,0336,0330,0332,0336,0331,0333,0332,0337,0234,0333,0331,0336,0331,0337,0337,",
    "01235:0333,0200,0336,0330,0332,0336,0332,0330,0337,0235,0331,0336,0333,0331,0337,0337,",
    "01236:0333,0200,0336,0330,0332,0336,0331,0337,0236,0336,0333,0331,0333,0337,0337,",
    "01237:0333,0200,0336,0330,0332,0336,0237,",
    "0240:0220,0336,0331,0333,0336,0321,0335,0342,0335,0335,0342,0335,0330,0330,0332,0332,0337,0337,",
    "01240:0333,0200,0336,0330,0332,0210,0240,0211,0333,0331,0337,",
    "0241:0220,0336,0321,0343,0332,0350,0335,0336,0342,0334,0334,0342,0335,0304,0337,0333,0337,",
    "01241:0333,0200,0336,0332,0330,0210,0241,0211,0333,0331,0337,",
    "0242:0220,0321,0336,0343,0333,0336,0350,0335,0342,0334,0334,0342,0335,0337,0304,0332,0337,",
    "01242:0333,0200,0336,0330,0332,0210,0242,0211,0333,0331,0337,",
    "0243:0220,0336,0331,0332,0336,0321,0343,0332,0350,0334,0336,0342,0335,0335,0342,0337,0334,0334,0335,0304,0332,0330,0330,0337,0337,0333,",
    "01243:0333,0200,0336,0330,0332,0210,0243,0211,0333,0331,0337,",
    "0244:0220,0336,0331,0333,0336,0321,0343,0333,0350,0336,0335,0342,0334,0334,0342,0335,0337,0304,0333,0330,0330,0337,0337,0332,",
    "01244:0333,0200,0336,0330,0332,0210,0244,0211,0333,0331,0337,",
    "0245:0210,0332,0332,0362,0335,0203,0203,0203,0203,0334,0203,0363,0332,0332,0331,0211,",
    "01245:0333,0200,0336,0330,0332,0336,0245,0337,0333,0331,0337,",
    "0246:0210,0332,0332,0335,0306,0336,0330,0335,0335,0335,0321,0362,0203,0335,0335,0203,0364,0331,0350,0335,0337,0366,0333,0333,0333,0333,0334,0334,0334,0334,0367,0335,0336,0342,0334,0334,0342,0330,0330,0330,0330,0335,0335,0335,0304,0337,0211,",
    "01246:0333,0200,0336,0330,0332,0336,0246,",
    "0247:0330,0332,0336,0332,0336,0221,0333,0333,0333,0222,0333,0333,0333,0223,0333,0333,0333,0225,0333,0331,0331,0331,0332,0332,0332,0332,0332,0332,0332,0332,0332,0332,0332,0332,0333,0333,0226,0331,0331,0331,0333,0333,0333,0333,0333,0333,0333,0333,0333,0333,0333,0333,0333,0330,0333,0330,0330,0333,0330,0331,0332,0332,0332,0332,0332,0332,0332,0332,0332,0332,0332,0332,0227,0333,0333,0333,0230,0333,0331,0331,0331,0331,0332,0332,0332,0330,0332,0332,0332,0332,0332,0332,0333,0333,0231,0333,0333,0333,0232,0331,0333,0330,0333,0333,0233,0333,0333,0333,0234,0330,0330,0332,0330,0332,0332,0337,0337,",
    "01247:0333,0200,0336,0330,0332,0220,0336,0247,0337,0331,0333,0337,"
  ]
}</json>-->    <line x1="127" y1="67" x2="129" y2="67" style="stroke:#000000;stroke-width:5" />
	<path d = "M129 67 L133 67 L137 60 L140 67 L144 73 L148 67 L152 60 L156 67 L159 73 L163 67 L167 60 L171 67 L174 73 L178 67 L186 67 L187 67 " stroke = "#000000" stroke-width = "5" fill = "none" />	<path d = "M187 67 L187 82 L187 89 " stroke = "#000000" stroke-width = "5" fill = "none" />    <line x1="187" y1="89" x2="202" y2="89" style="stroke:#000000;stroke-width:5" />
    <line x1="187" y1="89" x2="172" y2="89" style="stroke:#000000;stroke-width:5" />
    <line x1="187" y1="104" x2="172" y2="104" style="stroke:#000000;stroke-width:5" />
    <line x1="187" y1="104" x2="202" y2="104" style="stroke:#000000;stroke-width:5" />
	<path d = "M187 104 L187 112 L187 127 " stroke = "#000000" stroke-width = "5" fill = "none" />    <circle cx="187" cy = "67" r = "3.7565740045078875" stroke = "#000000" stroke-width = "5" fill = "#000000" />
    <line x1="187" y1="157" x2="187" y2="127" style="stroke:#000000;stroke-width:5" />
	<path d = "M187 157 L202 157 L187 172 L172 157 L187 157 Z" stroke = "#000000" stroke-width = "5" fill = "none" />    <line x1="187" y1="67" x2="218" y2="67" style="stroke:#000000;stroke-width:5" />
    <line x1="218" y1="67" x2="219" y2="67" style="stroke:#000000;stroke-width:5" />
	<path d = "M219 67 L223 67 L227 60 L231 67 L234 73 L238 67 L242 60 L246 67 L249 73 L253 67 L257 60 L261 67 L264 73 L268 67 L276 67 L278 67 " stroke = "#000000" stroke-width = "5" fill = "none" />	<path d = "M278 67 L278 82 L278 89 " stroke = "#000000" stroke-width = "5" fill = "none" />    <line x1="278" y1="89" x2="293" y2="89" style="stroke:#000000;stroke-width:5" />
    <line x1="278" y1="89" x2="263" y2="89" style="stroke:#000000;stroke-width:5" />
    <line x1="278" y1="104" x2="263" y2="104" style="stroke:#000000;stroke-width:5" />
    <line x1="278" y1="104" x2="293" y2="104" style="stroke:#000000;stroke-width:5" />
	<path d = "M278 104 L278 112 L278 127 " stroke = "#000000" stroke-width = "5" fill = "none" />    <circle cx="278" cy = "67" r = "3.756574004507887" stroke = "#000000" stroke-width = "5" fill = "#000000" />
    <line x1="278" y1="157" x2="278" y2="127" style="stroke:#000000;stroke-width:5" />
	<path d = "M278 157 L293 157 L278 172 L263 157 L278 157 Z" stroke = "#000000" stroke-width = "5" fill = "none" />    <line x1="278" y1="67" x2="308" y2="67" style="stroke:#000000;stroke-width:5" />
    <line x1="308" y1="67" x2="310" y2="67" style="stroke:#000000;stroke-width:5" />
	<path d = "M310 67 L313 67 L317 60 L321 67 L325 73 L328 67 L332 60 L336 67 L340 73 L343 67 L347 60 L351 67 L355 73 L358 67 L366 67 L368 67 " stroke = "#000000" stroke-width = "5" fill = "none" />	<path d = "M368 67 L368 82 L368 89 " stroke = "#000000" stroke-width = "5" fill = "none" />    <line x1="368" y1="89" x2="383" y2="89" style="stroke:#000000;stroke-width:5" />
    <line x1="368" y1="89" x2="353" y2="89" style="stroke:#000000;stroke-width:5" />
    <line x1="368" y1="104" x2="353" y2="104" style="stroke:#000000;stroke-width:5" />
    <line x1="368" y1="104" x2="383" y2="104" style="stroke:#000000;stroke-width:5" />
	<path d = "M368 104 L368 112 L368 127 " stroke = "#000000" stroke-width = "5" fill = "none" />    <circle cx="368" cy = "67" r = "3.756574004507887" stroke = "#000000" stroke-width = "5" fill = "#000000" />
    <line x1="368" y1="157" x2="368" y2="127" style="stroke:#000000;stroke-width:5" />
	<path d = "M368 157 L383 157 L368 172 L353 157 L368 157 Z" stroke = "#000000" stroke-width = "5" fill = "none" />    <line x1="368" y1="67" x2="398" y2="67" style="stroke:#000000;stroke-width:5" />
    <line x1="398" y1="67" x2="400" y2="67" style="stroke:#000000;stroke-width:5" />
	<path d = "M400 67 L403 67 L407 60 L411 67 L415 73 L418 67 L422 60 L426 67 L430 73 L434 67 L437 60 L441 67 L445 73 L449 67 L456 67 L458 67 " stroke = "#000000" stroke-width = "5" fill = "none" />	<path d = "M458 67 L458 82 L458 89 " stroke = "#000000" stroke-width = "5" fill = "none" />    <line x1="458" y1="89" x2="473" y2="89" style="stroke:#000000;stroke-width:5" />
    <line x1="458" y1="89" x2="443" y2="89" style="stroke:#000000;stroke-width:5" />
    <line x1="458" y1="104" x2="443" y2="104" style="stroke:#000000;stroke-width:5" />
    <line x1="458" y1="104" x2="473" y2="104" style="stroke:#000000;stroke-width:5" />
	<path d = "M458 104 L458 112 L458 127 " stroke = "#000000" stroke-width = "5" fill = "none" />    <circle cx="458" cy = "67" r = "3.756574004507887" stroke = "#000000" stroke-width = "5" fill = "#000000" />
    <line x1="458" y1="157" x2="458" y2="127" style="stroke:#000000;stroke-width:5" />
	<path d = "M458 157 L473 157 L458 172 L443 157 L458 157 Z" stroke = "#000000" stroke-width = "5" fill = "none" />    <line x1="458" y1="67" x2="488" y2="67" style="stroke:#000000;stroke-width:5" />
    <line x1="488" y1="67" x2="490" y2="67" style="stroke:#000000;stroke-width:5" />
	<path d = "M490 67 L494 67 L497 60 L501 67 L505 73 L509 67 L512 60 L516 67 L520 73 L524 67 L527 60 L531 67 L535 73 L539 67 L546 67 L548 67 " stroke = "#000000" stroke-width = "5" fill = "none" />	<path d = "M548 67 L548 82 L548 89 " stroke = "#000000" stroke-width = "5" fill = "none" />    <line x1="548" y1="89" x2="563" y2="89" style="stroke:#000000;stroke-width:5" />
    <line x1="548" y1="89" x2="533" y2="89" style="stroke:#000000;stroke-width:5" />
    <line x1="548" y1="104" x2="533" y2="104" style="stroke:#000000;stroke-width:5" />
    <line x1="548" y1="104" x2="563" y2="104" style="stroke:#000000;stroke-width:5" />
	<path d = "M548 104 L548 112 L548 127 " stroke = "#000000" stroke-width = "5" fill = "none" />    <circle cx="548" cy = "67" r = "3.756574004507887" stroke = "#000000" stroke-width = "5" fill = "#000000" />
    <line x1="548" y1="157" x2="548" y2="127" style="stroke:#000000;stroke-width:5" />
	<path d = "M548 157 L563 157 L548 172 L533 157 L548 157 Z" stroke = "#000000" stroke-width = "5" fill = "none" />    <line x1="548" y1="67" x2="578" y2="67" style="stroke:#000000;stroke-width:5" />
    <line x1="578" y1="67" x2="638" y2="67" style="stroke:#000000;stroke-width:5" />
    <line x1="638" y1="67" x2="638" y2="69" style="stroke:#000000;stroke-width:5" />
	<path d = "M638 69 L638 73 L645 76 L638 80 L632 84 L638 88 L645 91 L638 95 L632 99 L638 103 L645 106 L638 110 L632 114 L638 118 L638 125 L638 127 " stroke = "#000000" stroke-width = "5" fill = "none" />    <line x1="638" y1="157" x2="638" y2="127" style="stroke:#000000;stroke-width:5" />
	<path d = "M638 157 L653 157 L638 172 L623 157 L638 157 Z" stroke = "#000000" stroke-width = "5" fill = "none" />    <circle cx="638" cy = "67" r = "3.756574004507887" stroke = "#000000" stroke-width = "5" fill = "#000000" />
    <line x1="638" y1="67" x2="668" y2="67" style="stroke:#000000;stroke-width:5" />
<circle cx="676" cy = "67" r = "7.513148009015774" stroke = "#000000" stroke-width = "5" fill = "none" />
	<path d = "M127 67 L112 67 L105 67 " stroke = "#000000" stroke-width = "5" fill = "none" />    <line x1="105" y1="67" x2="105" y2="82" style="stroke:#000000;stroke-width:5" />
    <line x1="105" y1="67" x2="105" y2="52" style="stroke:#000000;stroke-width:5" />
    <line x1="90" y1="67" x2="90" y2="52" style="stroke:#000000;stroke-width:5" />
    <line x1="90" y1="67" x2="90" y2="82" style="stroke:#000000;stroke-width:5" />
	<path d = "M90 67 L82 67 L67 67 " stroke = "#000000" stroke-width = "5" fill = "none" />    <line x1="67" y1="67" x2="37" y2="67" style="stroke:#000000;stroke-width:5" />
<circle cx="30" cy = "67" r = "7.513148009015774" stroke = "#000000" stroke-width = "5" fill = "none" />
    <text x="82" y = "37" fill = "#000000" font-size = "15.026296018031548px" font-family = "Arial">Cin</text>
    <text x="142" y = "52" fill = "#000000" font-size = "15.026296018031548px" font-family = "Arial">Rline</text>
    <text x="233" y = "52" fill = "#000000" font-size = "15.026296018031548px" font-family = "Arial">Rline</text>
    <text x="323" y = "52" fill = "#000000" font-size = "15.026296018031548px" font-family = "Arial">Rline</text>
    <text x="413" y = "52" fill = "#000000" font-size = "15.026296018031548px" font-family = "Arial">Rline</text>
    <text x="503" y = "52" fill = "#000000" font-size = "15.026296018031548px" font-family = "Arial">Rline</text>
    <text x="503" y = "127" fill = "#000000" font-size = "15.026296018031548px" font-family = "Arial">Cline</text>
    <text x="413" y = "127" fill = "#000000" font-size = "15.026296018031548px" font-family = "Arial">Cline</text>
    <text x="323" y = "127" fill = "#000000" font-size = "15.026296018031548px" font-family = "Arial">Cline</text>
    <text x="233" y = "127" fill = "#000000" font-size = "15.026296018031548px" font-family = "Arial">Cline</text>
    <text x="142" y = "127" fill = "#000000" font-size = "15.026296018031548px" font-family = "Arial">Cline</text>
    <text x="653" y = "112" fill = "#000000" font-size = "15.026296018031548px" font-family = "Arial">Rout</text>
</svg>