<svg width="700" height="250" viewbox = "0 0 700 250"  xmlns="http://www.w3.org/2000/svg">
<!--<json>{
  "glyph": "0331,0331,0331,0332,0332,0332,0332,0332,0332,0332,0332,0332,0332,0332,0332,0332,0332,0332,0226,0320,0220,",
  "x0": 350,
  "y0": 125,
  "unit": 21.066500344486368,
  "width": 700,
  "height": 250,
  "style": {
    "color0": "black",
    "fill0": "black",
    "line0": 1,
    "color1": "black",
    "fill1": "black",
    "line1": 5,
    "color2": "red",
    "fill2": "red",
    "line2": 1,
    "color3": "#FF7900",
    "fill3": "#FF7900",
    "line3": 1,
    "color4": "yellow",
    "fill4": "yellow",
    "line4": 1,
    "color5": "green",
    "fill5": "green",
    "line5": 1,
    "color6": "blue",
    "fill6": "blue",
    "line6": 1,
    "color7": "purple",
    "fill7": "purple",
    "line7": 1
  },
  "shapes": [
    "0220:0313,0337,0314,0337,0362,0203,0335,0203,0203,0203,0203,0203,0335,0203,0335,0203,0203,0203,0203,0203,0354,0335,0336,0313,0336,",
    "0221:0203,0313,0336,0336,0316,0336,0203,0203,0203,0203,0203,0203,0203,0337,0313,0337,0337,",
    "0222:0362,0221,0335,0337,0316,0337,0203,0203,0203,0335,0336,0313,0336,0221,0335,0337,0316,0337,0203,0203,0203,0354,0335,0336,0313,0336,",
    "0223:0362,0221,0335,0203,0203,0203,0203,0336,0203,0337,0221,0335,0221,0221,0335,0203,0203,0203,0203,0336,0203,0337,0221,0335,0221,0354,",
    "0224:0330,0313,0336,0336,0316,0336,0330,0330,0330,0330,0330,0330,0330,0337,0313,0337,0337,",
    "0225:0224,0335,0362,0221,0335,0221,0221,0335,0221,0221,0335,0221,0221,0335,0221,0354,0335,0224,0335,0335,",
    "0226:0322,0222,0330,0330,0330,0223,0333,0333,0333,0333,0333,0333,0333,0336,0333,0337,0225,0333,0333,0333,0225,0333,0333,0333,0225,0333,0333,0333,0225,0333,0333,0333,0225,0333,0333,0333,0225,0335,0335,0332,0332,0332,0332,0332,0332,0332,0336,0332,0337,0223,0331,0331,0331,0222,0335,0335,0331,0331,0331,0331,0331,0331,0337,0316,0337,0332,0332,0332,0336,0313,0336,",
    "01220:0333,0200,0336,0330,0332,0332,0336,0336,0336,0220,0337,0337,0331,0333,0333,0331,0333,0333,0337,0337,",
    "01221:0333,0200,0336,0330,0332,0332,0336,0331,0333,0336,0330,0332,0330,0337,061,056,063,065,0365,0333,0331,0333,0331,0333,0336,0333,0337,0337,0337,",
    "01222:0333,0200,0336,0330,0332,0336,0331,0336,0336,0332,0332,0332,0332,0332,0330,0332,0332,0332,0330,0222,0331,0331,0331,0331,0331,0331,0337,0337,0337,0337,0333,",
    "01223:0333,0200,0336,0330,0332,0336,0336,0332,0332,0332,0223,0333,0331,0333,0331,0333,0333,0333,0331,0333,0333,0331,0337,0337,0337,",
    "01224:0333,0200,0336,0330,0332,0336,0332,0336,0331,0332,0337,061,056,063,065,0365,0330,0333,0336,0333,0330,0334,0331,0337,0350,0310,0362,0203,0335,0335,0335,0336,0203,0335,0335,0203,0363,0334,0334,0334,0304,0337,0313,0336,0333,0333,0331,0333,0331,0331,0331,0331,0331,0337,0337,0337,",
    "01225:0333,0200,0336,0330,0332,0336,0225,0331,0333,0331,0333,0337,0337,",
    "01226:0333,0200,0336,0330,0332,0332,0336,0331,0336,0330,0337,0336,0336,0336,0226,0337,0337,0337,0331,0333,0333,0333,0333,0336,0331,0337,0337,0337,",
    "01227:0333,0200,",
    "01230:0333,0200,",
    "01231:0333,0200,",
    "01232:0333,0200,",
    "01233:0333,0200,",
    "01234:0333,0200,",
    "01235:0333,0200,",
    "01236:0333,0200,",
    "01237:0333,0200,",
    "0240:0220,0336,0331,0333,0336,0321,0335,0342,0335,0335,0342,0335,0330,0330,0332,0332,0337,0337,",
    "01240:0333,0200,0336,0330,0332,0210,0240,0211,0333,0331,0337,",
    "0241:0220,0336,0321,0343,0332,0350,0335,0336,0342,0334,0334,0342,0335,0304,0337,0333,0337,",
    "01241:0333,0200,0336,0332,0330,0210,0241,0211,0333,0331,0337,",
    "0242:0220,0321,0336,0343,0333,0336,0350,0335,0342,0334,0334,0342,0335,0337,0304,0332,0337,",
    "01242:0333,0200,0336,0330,0332,0210,0242,0211,0333,0331,0337,",
    "0243:0220,0336,0331,0332,0336,0321,0343,0332,0350,0334,0336,0342,0335,0335,0342,0337,0334,0334,0335,0304,0332,0330,0330,0337,0337,0333,",
    "01243:0333,0200,0336,0330,0332,0210,0243,0211,0333,0331,0337,",
    "0244:0220,0336,0331,0333,0336,0321,0343,0333,0350,0336,0335,0342,0334,0334,0342,0335,0337,0304,0333,0330,0330,0337,0337,0332,",
    "01244:0333,0200,0336,0330,0332,0210,0244,0211,0333,0331,0337,",
    "0245:0210,0332,0332,0362,0335,0203,0203,0203,0203,0334,0203,0363,0332,0332,0331,0211,",
    "01245:0333,0200,0336,0330,0332,0336,0245,0337,0333,0331,0337,",
    "0246:0210,0332,0332,0335,0306,0336,0330,0335,0335,0335,0321,0362,0203,0335,0335,0203,0364,0331,0350,0335,0337,0366,0333,0333,0333,0333,0334,0334,0334,0334,0367,0335,0336,0342,0334,0334,0342,0330,0330,0330,0330,0335,0335,0335,0304,0337,0211,",
    "01246:0333,0200,0336,0330,0332,0336,0246,",
    "0247:0330,0332,0336,0332,0336,0221,0333,0333,0333,0222,0333,0333,0333,0223,0333,0333,0333,0225,0333,0331,0331,0331,0332,0332,0332,0332,0332,0332,0332,0332,0332,0332,0332,0332,0333,0333,0226,0331,0331,0331,0333,0333,0333,0333,0333,0333,0333,0333,0333,0333,0333,0333,0333,0330,0333,0330,0330,0333,0330,0331,0332,0332,0332,0332,0332,0332,0332,0332,0332,0332,0332,0332,0227,0333,0333,0333,0230,0333,0331,0331,0331,0331,0332,0332,0332,0330,0332,0332,0332,0332,0332,0332,0333,0333,0231,0333,0333,0333,0232,0331,0333,0330,0333,0333,0233,0333,0333,0333,0234,0330,0330,0332,0330,0332,0332,0337,0337,",
    "01247:0333,0200,0336,0330,0332,0220,0336,0247,0337,0331,0333,0337,"
  ]
}</json>-->	<path d = "M34 188 L34 167 L34 166 L34 165 L34 164 L34 163 L34 162 L34 161 L34 160 L245 160 L455 160 L666 160 L666 181 L666 182 L666 183 L666 184 L666 185 L666 186 L666 187 L666 188 L455 188 L245 188 L34 188 Z" stroke = "#ff0000" stroke-width = "1" fill = "none" />	<path d = "M34 125 L34 104 L34 103 L34 102 L34 101 L34 100 L34 99 L34 98 L34 97 L55 97 L76 97 L97 97 L118 97 L129 97 L150 97 L151 97 L152 97 L153 97 L154 97 L155 97 L156 97 L157 97 L157 118 L157 119 L157 120 L157 121 L157 122 L157 123 L157 124 L157 125 L157 146 L157 147 L157 148 L157 149 L157 150 L157 151 L157 152 L157 153 L136 153 L115 153 L94 153 L73 153 L62 153 L41 153 L40 153 L39 153 L38 153 L37 153 L36 153 L35 153 L34 153 L34 132 L34 131 L34 130 L34 129 L34 128 L34 127 L34 126 L34 125 Z" stroke = "#ff0000" stroke-width = "1" fill = "none" />	<path d = "M192 97 L213 97 L214 97 L215 97 L216 97 L217 97 L218 97 L219 97 L220 97 L220 118 L220 119 L220 120 L220 121 L220 122 L220 123 L220 124 L220 125 L220 146 L220 147 L220 148 L220 149 L220 150 L220 151 L220 152 L220 153 L199 153 L198 153 L197 153 L196 153 L195 153 L194 153 L193 153 L192 153 L171 153 L170 153 L169 153 L168 153 L167 153 L166 153 L165 153 L164 153 L164 132 L164 131 L164 130 L164 129 L164 128 L164 127 L164 126 L164 125 L164 104 L164 103 L164 102 L164 101 L164 100 L164 99 L164 98 L164 97 L185 97 L186 97 L187 97 L188 97 L189 97 L190 97 L191 97 L192 97 Z" stroke = "#ff0000" stroke-width = "1" fill = "none" />	<path d = "M255 97 L276 97 L277 97 L278 97 L279 97 L280 97 L282 97 L283 97 L284 97 L284 118 L284 119 L284 120 L284 121 L284 122 L284 123 L284 124 L284 125 L284 146 L284 147 L284 148 L284 149 L284 150 L284 151 L284 152 L284 153 L263 153 L262 153 L260 153 L259 153 L258 153 L257 153 L256 153 L255 153 L234 153 L233 153 L232 153 L231 153 L230 153 L229 153 L228 153 L227 153 L227 132 L227 131 L227 130 L227 129 L227 128 L227 127 L227 126 L227 125 L227 104 L227 103 L227 102 L227 101 L227 100 L227 99 L227 98 L227 97 L248 97 L249 97 L250 97 L251 97 L252 97 L253 97 L254 97 L255 97 Z" stroke = "#ff0000" stroke-width = "1" fill = "none" />	<path d = "M318 97 L339 97 L341 97 L342 97 L343 97 L344 97 L345 97 L346 97 L347 97 L347 118 L347 119 L347 120 L347 121 L347 122 L347 123 L347 124 L347 125 L347 146 L347 147 L347 148 L347 149 L347 150 L347 151 L347 152 L347 153 L326 153 L325 153 L324 153 L323 153 L322 153 L321 153 L319 153 L318 153 L297 153 L296 153 L295 153 L294 153 L293 153 L292 153 L291 153 L290 153 L290 132 L290 131 L290 130 L290 129 L290 128 L290 127 L290 126 L290 125 L290 104 L290 103 L290 102 L290 101 L290 100 L290 99 L290 98 L290 97 L311 97 L312 97 L313 97 L314 97 L315 97 L316 97 L317 97 L318 97 Z" stroke = "#ff0000" stroke-width = "1" fill = "none" />	<path d = "M382 97 L403 97 L404 97 L405 97 L406 97 L407 97 L408 97 L409 97 L410 97 L410 118 L410 119 L410 120 L410 121 L410 122 L410 123 L410 124 L410 125 L410 146 L410 147 L410 148 L410 149 L410 150 L410 151 L410 152 L410 153 L389 153 L388 153 L387 153 L386 153 L385 153 L384 153 L383 153 L382 153 L361 153 L359 153 L358 153 L357 153 L356 153 L355 153 L354 153 L353 153 L353 132 L353 131 L353 130 L353 129 L353 128 L353 127 L353 126 L353 125 L353 104 L353 103 L353 102 L353 101 L353 100 L353 99 L353 98 L353 97 L374 97 L375 97 L376 97 L377 97 L378 97 L379 97 L381 97 L382 97 Z" stroke = "#ff0000" stroke-width = "1" fill = "none" />	<path d = "M445 97 L466 97 L467 97 L468 97 L469 97 L470 97 L471 97 L472 97 L473 97 L473 118 L473 119 L473 120 L473 121 L473 122 L473 123 L473 124 L473 125 L473 146 L473 147 L473 148 L473 149 L473 150 L473 151 L473 152 L473 153 L452 153 L451 153 L450 153 L449 153 L448 153 L447 153 L446 153 L445 153 L424 153 L423 153 L422 153 L421 153 L420 153 L418 153 L417 153 L416 153 L416 132 L416 131 L416 130 L416 129 L416 128 L416 127 L416 126 L416 125 L416 104 L416 103 L416 102 L416 101 L416 100 L416 99 L416 98 L416 97 L437 97 L438 97 L440 97 L441 97 L442 97 L443 97 L444 97 L445 97 Z" stroke = "#ff0000" stroke-width = "1" fill = "none" />	<path d = "M508 97 L529 97 L530 97 L531 97 L532 97 L533 97 L534 97 L535 97 L536 97 L536 118 L536 119 L536 120 L536 121 L536 122 L536 123 L536 124 L536 125 L536 146 L536 147 L536 148 L536 149 L536 150 L536 151 L536 152 L536 153 L515 153 L514 153 L513 153 L512 153 L511 153 L510 153 L509 153 L508 153 L487 153 L486 153 L485 153 L484 153 L483 153 L482 153 L481 153 L480 153 L480 132 L480 131 L480 130 L480 129 L480 128 L480 127 L480 126 L480 125 L480 104 L480 103 L480 102 L480 101 L480 100 L480 99 L480 98 L480 97 L501 97 L502 97 L503 97 L504 97 L505 97 L506 97 L507 97 L508 97 Z" stroke = "#ff0000" stroke-width = "1" fill = "none" />	<path d = "M666 125 L666 146 L666 147 L666 148 L666 149 L666 150 L666 151 L666 152 L666 153 L645 153 L624 153 L603 153 L582 153 L571 153 L550 153 L549 153 L548 153 L547 153 L546 153 L545 153 L544 153 L543 153 L543 132 L543 131 L543 130 L543 129 L543 128 L543 127 L543 126 L543 125 L543 104 L543 103 L543 102 L543 101 L543 100 L543 99 L543 98 L543 97 L564 97 L585 97 L606 97 L627 97 L638 97 L659 97 L660 97 L661 97 L662 97 L663 97 L664 97 L665 97 L666 97 L666 118 L666 119 L666 120 L666 121 L666 122 L666 123 L666 124 L666 125 Z" stroke = "#ff0000" stroke-width = "1" fill = "none" />	<path d = "M666 62 L666 83 L666 84 L666 85 L666 86 L666 87 L666 88 L666 89 L666 90 L455 90 L245 90 L34 90 L34 69 L34 68 L34 67 L34 66 L34 65 L34 64 L34 63 L34 62 L245 62 L455 62 L666 62 Z" stroke = "#ff0000" stroke-width = "1" fill = "none" />	<path d = "M34 188 L34 62 L160 62 L287 62 L413 62 L540 62 L666 62 L666 188 L540 188 L413 188 L287 188 L160 188 L34 188 Z" stroke = "#000000" stroke-width = "1" fill = "none" /></svg>