<svg width="700" height="400" viewbox = "0 0 700 400"  xmlns="http://www.w3.org/2000/svg">
<!--<json>{
  "glyph": "0226,0320,0220,",
  "x0": 57.692434999999875,
  "y0": 266.55,
  "unit": 21.066500344486368,
  "width": 700,
  "height": 400,
  "style": {
    "color0": "black",
    "fill0": "black",
    "line0": 1,
    "color1": "black",
    "fill1": "black",
    "line1": 5,
    "color2": "red",
    "fill2": "red",
    "line2": 1,
    "color3": "#FF7900",
    "fill3": "#FF7900",
    "line3": 1,
    "color4": "yellow",
    "fill4": "yellow",
    "line4": 1,
    "color5": "green",
    "fill5": "green",
    "line5": 1,
    "color6": "blue",
    "fill6": "blue",
    "line6": 1,
    "color7": "purple",
    "fill7": "purple",
    "line7": 1
  },
  "shapes": [
    "0220:0313,0337,0314,0337,0362,0203,0335,0203,0203,0203,0203,0203,0335,0203,0335,0203,0203,0203,0203,0203,0354,0335,0336,0313,0336,",
    "0221:0203,0313,0336,0336,0316,0336,0203,0203,0203,0203,0203,0203,0203,0337,0313,0337,0337,",
    "0222:0362,0221,0335,0337,0316,0337,0203,0203,0203,0335,0336,0313,0336,0221,0335,0337,0316,0337,0203,0203,0203,0354,0335,0336,0313,0336,",
    "0223:0362,0221,0335,0203,0203,0203,0203,0336,0203,0337,0221,0335,0221,0221,0335,0203,0203,0203,0203,0336,0203,0337,0221,0335,0221,0354,",
    "0224:0330,0313,0336,0336,0316,0336,0330,0330,0330,0330,0330,0330,0330,0337,0313,0337,0337,",
    "0225:0224,0335,0362,0221,0335,0221,0221,0335,0221,0221,0335,0221,0221,0335,0221,0354,0335,0224,0335,0335,",
    "0226:0220,0322,0222,0330,0330,0330,0223,0333,0333,0333,0333,0333,0333,0333,0336,0333,0337,0225,0333,0333,0333,0225,0333,0333,0333,0225,0333,0333,0333,0225,0333,0333,0333,0225,0333,0333,0333,0225,0335,0335,0332,0332,0332,0332,0332,0332,0332,0336,0332,0337,0223,0331,0331,0331,0222,0335,0335,0331,0331,0331,0331,0331,0331,0337,0316,0337,0332,0332,0332,0336,0313,0336,",
    "0227:0335,0312,0336,0306,0362,0203,0334,0334,0313,0337,0203,0334,0334,0203,0334,0334,0336,0203,0354,0304,0334,0312,0337,0313,0330,",
    "0230:0336,0336,0201,0334,0362,0203,0335,0203,0203,0335,0203,0203,0335,0203,0203,0335,0203,0354,0335,0333,0330,0334,0337,0342,0336,0330,0335,0330,0342,0330,0337,0337,",
    "0231:0336,0336,0336,0336,0347,0337,0337,0337,0337,",
    "0232:0336,0201,0336,0336,0330,0341,0331,0337,0337,0331,0337,",
    "0233:0342,0336,0330,0336,0336,0331,0334,0306,0362,0203,0335,0335,0203,0203,0335,0335,0203,0203,0335,0335,0203,0363,0330,0335,0335,0330,0330,0335,0331,0337,0342,0336,0330,0334,0337,0331,0336,0333,0335,0304,0334,0331,0331,0331,0337,0337,0337,0330,",
    "0234:0201,0336,0331,0350,0335,0336,0331,0337,0342,0336,0330,0334,0334,0331,0337,0342,0336,0330,0335,0337,0331,0304,0337,0330,",
    "0235:0336,0366,0330,0333,0333,0336,0331,0337,0367,0335,0335,0366,0331,0333,0333,0367,0335,0335,0337,",
    "0236:0201,0336,0336,0334,0306,0362,0336,0203,0335,0335,0203,0203,0335,0335,0203,0203,0335,0335,0203,0363,0304,0335,0337,0337,0337,0331,",
    "0237:0330,0335,0336,0336,0366,0337,0337,0333,0334,0334,0336,0336,0331,0367,0366,0335,0332,0337,0337,0331,0336,0336,0335,0367,0334,0337,0337,0330,",
    "01220:0333,0200,0336,0330,0332,0332,0336,0336,0336,0220,0337,0337,0331,0333,0333,0331,0333,0333,0337,0337,",
    "01221:0333,0200,0336,0330,0332,0332,0336,0331,0333,0336,0330,0332,0330,0337,061,056,063,065,0365,0333,0331,0333,0331,0333,0336,0333,0337,0337,0337,",
    "01222:0333,0200,0336,0330,0332,0336,0331,0336,0336,0332,0332,0332,0332,0332,0330,0332,0332,0332,0330,0222,0331,0331,0331,0331,0331,0331,0337,0337,0337,0337,0333,",
    "01223:0333,0200,0336,0330,0332,0336,0336,0332,0332,0332,0223,0333,0331,0333,0331,0333,0333,0333,0331,0333,0333,0331,0337,0337,0337,",
    "01224:0333,0200,0336,0330,0332,0336,0332,0336,0331,0332,0337,061,056,063,065,0365,0330,0333,0336,0333,0330,0334,0331,0337,0350,0310,0362,0203,0335,0335,0335,0336,0203,0335,0335,0203,0363,0334,0334,0334,0304,0337,0313,0336,0333,0333,0331,0333,0331,0331,0331,0331,0331,0337,0337,0337,",
    "01225:0333,0200,0336,0330,0332,0336,0225,0331,0333,0331,0333,0337,0337,",
    "01226:0333,0200,0336,0330,0332,0332,0336,0331,0336,0330,0337,0336,0336,0336,0226,0337,0337,0337,0331,0333,0333,0333,0333,0336,0331,0337,0337,0337,",
    "01227:0333,0200,0336,0332,0336,0330,0337,0227,0331,0336,0331,0337,0333,0337,",
    "01230:0333,0200,0336,0332,0337,0230,0336,0333,0337,0331,",
    "01231:0333,0200,0336,0332,0337,0342,0336,0330,0335,0342,0335,0342,0335,0342,0335,0337,0231,0336,0333,0331,0337,",
    "01232:0333,0200,0336,0330,0332,0336,0331,0337,0232,0333,0336,0331,0337,0337,",
    "01233:0333,0200,0336,0330,0332,0336,0331,0337,0233,0331,0336,0333,0333,0331,0337,0337,",
    "01234:0333,0200,0336,0330,0332,0336,0331,0333,0332,0337,0234,0333,0331,0336,0331,0337,0337,",
    "01235:0333,0200,0336,0330,0332,0336,0332,0330,0337,0235,0331,0336,0333,0331,0337,0337,",
    "01236:0333,0200,0336,0330,0332,0336,0331,0337,0236,0336,0333,0331,0333,0337,0337,",
    "01237:0333,0200,0336,0330,0332,0336,0237,",
    "0240:0220,0336,0331,0333,0336,0321,0335,0342,0335,0335,0342,0335,0330,0330,0332,0332,0337,0337,",
    "01240:0333,0200,0336,0330,0332,0210,0240,0211,0333,0331,0337,",
    "0241:0220,0336,0321,0343,0332,0350,0335,0336,0342,0334,0334,0342,0335,0304,0337,0333,0337,",
    "01241:0333,0200,0336,0332,0330,0210,0241,0211,0333,0331,0337,",
    "0242:0220,0321,0336,0343,0333,0336,0350,0335,0342,0334,0334,0342,0335,0337,0304,0332,0337,",
    "01242:0333,0200,0336,0330,0332,0210,0242,0211,0333,0331,0337,",
    "0243:0220,0336,0331,0332,0336,0321,0343,0332,0350,0334,0336,0342,0335,0335,0342,0337,0334,0334,0335,0304,0332,0330,0330,0337,0337,0333,",
    "01243:0333,0200,0336,0330,0332,0210,0243,0211,0333,0331,0337,",
    "0244:0220,0336,0331,0333,0336,0321,0343,0333,0350,0336,0335,0342,0334,0334,0342,0335,0337,0304,0333,0330,0330,0337,0337,0332,",
    "01244:0333,0200,0336,0330,0332,0210,0244,0211,0333,0331,0337,",
    "0245:0210,0332,0332,0362,0335,0203,0203,0203,0203,0334,0203,0363,0332,0332,0331,0211,",
    "01245:0333,0200,0336,0330,0332,0336,0245,0337,0333,0331,0337,",
    "0246:0210,0332,0332,0335,0306,0336,0330,0335,0335,0335,0321,0362,0203,0335,0335,0203,0364,0331,0350,0335,0337,0366,0333,0333,0333,0333,0334,0334,0334,0334,0367,0335,0336,0342,0334,0334,0342,0330,0330,0330,0330,0335,0335,0335,0304,0337,0211,",
    "01246:0333,0200,0336,0330,0332,0336,0246,",
    "0247:0330,0332,0336,0332,0336,0221,0333,0333,0333,0222,0333,0333,0333,0223,0333,0333,0333,0225,0333,0331,0331,0331,0332,0332,0332,0332,0332,0332,0332,0332,0332,0332,0332,0332,0333,0333,0226,0331,0331,0331,0333,0333,0333,0333,0333,0333,0333,0333,0333,0333,0333,0333,0333,0330,0333,0330,0330,0333,0330,0331,0332,0332,0332,0332,0332,0332,0332,0332,0332,0332,0332,0332,0227,0333,0333,0333,0230,0333,0331,0331,0331,0331,0332,0332,0332,0330,0332,0332,0332,0332,0332,0332,0333,0333,0231,0333,0333,0333,0232,0331,0333,0330,0333,0333,0233,0333,0333,0333,0234,0330,0330,0332,0330,0332,0332,0337,0337,",
    "01247:0333,0200,0336,0330,0332,0220,0336,0247,0337,0331,0333,0337,"
  ]
}</json>-->	<path d = "M58 267 L58 140 L184 140 L310 140 L437 140 L563 140 L690 140 L690 267 L563 267 L437 267 L310 267 L184 267 L58 267 Z" stroke = "#000000" stroke-width = "1" fill = "none" />	<path d = "M58 267 L58 245 L58 244 L58 243 L58 242 L58 241 L58 240 L58 239 L58 238 L268 238 L479 238 L690 238 L690 259 L690 260 L690 261 L690 262 L690 263 L690 264 L690 265 L690 267 L479 267 L268 267 L58 267 Z" stroke = "#ff0000" stroke-width = "1" fill = "none" />	<path d = "M58 203 L58 182 L58 181 L58 180 L58 179 L58 178 L58 177 L58 176 L58 175 L79 175 L100 175 L121 175 L142 175 L152 175 L174 175 L175 175 L176 175 L177 175 L178 175 L179 175 L180 175 L181 175 L181 196 L181 197 L181 198 L181 199 L181 200 L181 201 L181 202 L181 203 L181 224 L181 225 L181 227 L181 228 L181 229 L181 230 L181 231 L181 232 L160 232 L139 232 L118 232 L97 232 L86 232 L65 232 L64 232 L63 232 L62 232 L61 232 L60 232 L59 232 L58 232 L58 211 L58 210 L58 209 L58 208 L58 207 L58 205 L58 204 L58 203 Z" stroke = "#ff0000" stroke-width = "1" fill = "none" />	<path d = "M216 175 L237 175 L238 175 L239 175 L240 175 L241 175 L242 175 L243 175 L244 175 L244 196 L244 197 L244 198 L244 199 L244 200 L244 201 L244 202 L244 203 L244 224 L244 225 L244 227 L244 228 L244 229 L244 230 L244 231 L244 232 L223 232 L222 232 L221 232 L220 232 L219 232 L218 232 L217 232 L216 232 L195 232 L194 232 L193 232 L191 232 L190 232 L189 232 L188 232 L187 232 L187 211 L187 210 L187 209 L187 208 L187 207 L187 205 L187 204 L187 203 L187 182 L187 181 L187 180 L187 179 L187 178 L187 177 L187 176 L187 175 L208 175 L209 175 L210 175 L211 175 L213 175 L214 175 L215 175 L216 175 Z" stroke = "#ff0000" stroke-width = "1" fill = "none" />	<path d = "M279 175 L300 175 L301 175 L302 175 L303 175 L304 175 L305 175 L306 175 L307 175 L307 196 L307 197 L307 198 L307 199 L307 200 L307 201 L307 202 L307 203 L307 224 L307 225 L307 227 L307 228 L307 229 L307 230 L307 231 L307 232 L286 232 L285 232 L284 232 L283 232 L282 232 L281 232 L280 232 L279 232 L258 232 L257 232 L256 232 L255 232 L254 232 L253 232 L252 232 L250 232 L250 211 L250 210 L250 209 L250 208 L250 207 L250 205 L250 204 L250 203 L250 182 L250 181 L250 180 L250 179 L250 178 L250 177 L250 176 L250 175 L272 175 L273 175 L274 175 L275 175 L276 175 L277 175 L278 175 L279 175 Z" stroke = "#ff0000" stroke-width = "1" fill = "none" />	<path d = "M342 175 L363 175 L364 175 L365 175 L366 175 L367 175 L368 175 L369 175 L371 175 L371 196 L371 197 L371 198 L371 199 L371 200 L371 201 L371 202 L371 203 L371 224 L371 225 L371 227 L371 228 L371 229 L371 230 L371 231 L371 232 L349 232 L348 232 L347 232 L346 232 L345 232 L344 232 L343 232 L342 232 L321 232 L320 232 L319 232 L318 232 L317 232 L316 232 L315 232 L314 232 L314 211 L314 210 L314 209 L314 208 L314 207 L314 205 L314 204 L314 203 L314 182 L314 181 L314 180 L314 179 L314 178 L314 177 L314 176 L314 175 L335 175 L336 175 L337 175 L338 175 L339 175 L340 175 L341 175 L342 175 Z" stroke = "#ff0000" stroke-width = "1" fill = "none" />	<path d = "M405 175 L426 175 L427 175 L428 175 L430 175 L431 175 L432 175 L433 175 L434 175 L434 196 L434 197 L434 198 L434 199 L434 200 L434 201 L434 202 L434 203 L434 224 L434 225 L434 227 L434 228 L434 229 L434 230 L434 231 L434 232 L413 232 L412 232 L411 232 L410 232 L408 232 L407 232 L406 232 L405 232 L384 232 L383 232 L382 232 L381 232 L380 232 L379 232 L378 232 L377 232 L377 211 L377 210 L377 209 L377 208 L377 207 L377 205 L377 204 L377 203 L377 182 L377 181 L377 180 L377 179 L377 178 L377 177 L377 176 L377 175 L398 175 L399 175 L400 175 L401 175 L402 175 L403 175 L404 175 L405 175 Z" stroke = "#ff0000" stroke-width = "1" fill = "none" />	<path d = "M468 175 L490 175 L491 175 L492 175 L493 175 L494 175 L495 175 L496 175 L497 175 L497 196 L497 197 L497 198 L497 199 L497 200 L497 201 L497 202 L497 203 L497 224 L497 225 L497 227 L497 228 L497 229 L497 230 L497 231 L497 232 L476 232 L475 232 L474 232 L473 232 L472 232 L471 232 L470 232 L468 232 L447 232 L446 232 L445 232 L444 232 L443 232 L442 232 L441 232 L440 232 L440 211 L440 210 L440 209 L440 208 L440 207 L440 205 L440 204 L440 203 L440 182 L440 181 L440 180 L440 179 L440 178 L440 177 L440 176 L440 175 L461 175 L462 175 L463 175 L464 175 L465 175 L466 175 L467 175 L468 175 Z" stroke = "#ff0000" stroke-width = "1" fill = "none" />	<path d = "M532 175 L553 175 L554 175 L555 175 L556 175 L557 175 L558 175 L559 175 L560 175 L560 196 L560 197 L560 198 L560 199 L560 200 L560 201 L560 202 L560 203 L560 224 L560 225 L560 227 L560 228 L560 229 L560 230 L560 231 L560 232 L539 232 L538 232 L537 232 L536 232 L535 232 L534 232 L533 232 L532 232 L511 232 L510 232 L509 232 L507 232 L506 232 L505 232 L504 232 L503 232 L503 211 L503 210 L503 209 L503 208 L503 207 L503 205 L503 204 L503 203 L503 182 L503 181 L503 180 L503 179 L503 178 L503 177 L503 176 L503 175 L524 175 L525 175 L526 175 L527 175 L529 175 L530 175 L531 175 L532 175 Z" stroke = "#ff0000" stroke-width = "1" fill = "none" />	<path d = "M690 203 L690 224 L690 225 L690 227 L690 228 L690 229 L690 230 L690 231 L690 232 L669 232 L648 232 L626 232 L605 232 L595 232 L574 232 L573 232 L572 232 L571 232 L570 232 L569 232 L568 232 L566 232 L566 211 L566 210 L566 209 L566 208 L566 207 L566 205 L566 204 L566 203 L566 182 L566 181 L566 180 L566 179 L566 178 L566 177 L566 176 L566 175 L588 175 L609 175 L630 175 L651 175 L661 175 L682 175 L683 175 L684 175 L685 175 L687 175 L688 175 L689 175 L690 175 L690 196 L690 197 L690 198 L690 199 L690 200 L690 201 L690 202 L690 203 Z" stroke = "#ff0000" stroke-width = "1" fill = "none" />	<path d = "M690 140 L690 161 L690 162 L690 163 L690 164 L690 165 L690 166 L690 168 L690 169 L479 169 L268 169 L58 169 L58 148 L58 146 L58 145 L58 144 L58 143 L58 142 L58 141 L58 140 L268 140 L479 140 L690 140 Z" stroke = "#ff0000" stroke-width = "1" fill = "none" />	<path d = "M58 267 L58 140 L184 140 L310 140 L437 140 L563 140 L690 140 L690 267 L563 267 L437 267 L310 267 L184 267 L58 267 Z" stroke = "#000000" stroke-width = "1" fill = "none" /></svg>