<svg width="700" height="400" viewbox = "0 0 700 400"  xmlns="http://www.w3.org/2000/svg">
<!--<json>{
  "glyph": "0326,0362,0203,0203,0203,0203,0203,0203,0203,0203,0335,0203,0203,0203,0203,0203,0203,0203,0203,0203,0203,0203,0203,0203,0203,0203,0203,0203,0335,0203,0203,0203,0203,0203,0203,0203,0203,0335,0203,0203,0203,0203,0203,0203,0203,0203,0203,0203,0203,0203,0203,0203,0203,0203,0203,0363,0335,0330,0330,0330,0330,0330,0330,0330,0330,0333,0331,0336,0341,0337,0330,0332,0331,0331,0331,0331,0331,0331,0331,0331,0322,0333,0333,0333,0333,0220,0220,0221,0223,0330,0335,0330,0223,0223,0223,0223,0223,0223,0220,0336,0333,0337,0334,0350,0335,0335,0304,0334,0331,0331,0331,0331,0336,0330,0333,0333,0333,0333,0333,0333,0333,0333,0333,0333,0337,0332,0332,0332,0332,0220,0220,0220,0336,0332,0332,0350,0335,0343,0333,0332,0337,0343,0332,0334,0334,0334,0336,0342,0335,0335,0337,0331,0335,0333,0335,0335,0335,0336,0342,0335,0335,0335,0335,0337,0304,0331,0331,0331,0327,0336,0331,0332,0333,0337,0333,0333,0333,0336,0333,0337,0335,0335,0335,0335,0330,0330,0330,0330,0330,0330,0330,0330,0330,0332,0332,0332,0332,0332,0332,0332,0332,0332,0332,0332,0336,0331,0337,061,067,0155,0155,0365,0331,0331,0332,0332,0331,0332,0331,0332,0331,0332,0332,0332,0332,0332,070,0155,0155,0365,0333,0333,0333,0333,0333,0333,0330,0333,0330,0333,0330,0333,0333,0333,0333,0333,0333,0333,0333,0333,0333,0330,0333,0333,0336,0330,0337,0326,0331,0332,0336,0341,0333,0330,0333,0330,0337,0331,0331,0331,0331,0331,0331,0331,0331,0332,0332,0332,0332,0332,0332,0332,0332,0332,0332,0332,0332,0332,0335,0335,0327,0342,0333,0333,0333,0333,0342,0333,0332,0332,0332,0332,0332,0332,0332,0332,0332,0332,0332,0332,0332,0332,0342,0332,0332,0332,0332,0342,0335,0335,0331,0332,0332,0336,0330,0332,0331,064,0155,0155,0365,0332,0332,0332,0332,0332,0332,0332,0332,0332,0332,0332,0332,0332,0332,0332,0332,0332,0332,0332,0332,0332,0332,0332,0332,0332,064,0155,0155,0365,0333,0333,0333,0333,0333,0333,0333,0333,0333,0333,0333,0333,0333,0333,071,0155,0155,0365,",
  "x0": 112.42962177018345,
  "y0": 347.47691745955075,
  "unit": 31.046066152957756,
  "width": 700,
  "height": 400,
  "style": {
    "color0": "black",
    "fill0": "#00000030",
    "line0": 1,
    "color1": "black",
    "fill1": "black",
    "line1": 3,
    "color2": "red",
    "fill2": "red",
    "line2": 3,
    "color3": "#FF7900",
    "fill3": "#FF7900",
    "line3": 1,
    "color4": "yellow",
    "fill4": "yellow",
    "line4": 1,
    "color5": "green",
    "fill5": "green",
    "line5": 1,
    "color6": "blue",
    "fill6": "#8080ff30",
    "line6": 3,
    "color7": "purple",
    "fill7": "purple",
    "line7": 3
  },
  "shapes": [
    "0220:0313,0336,0333,0337,0342,0332,0342,0336,0336,0336,0316,0336,0332,0337,0313,0337,0337,0337,0342,0336,0336,0316,0336,0313,0336,0333,0337,0337,0337,0333,0333,0333,0333,0333,0336,0336,0336,0333,0337,0337,0337,0316,0337,0342,0316,0336,0313,0336,0336,0336,0332,0337,0337,0337,0316,0337,0313,0336,0332,0337,0330,",
    "0221:0336,0335,0331,0337,0342,0336,0334,0333,0337,",
    "0222:0220,0221,0336,0333,0337,0316,0336,0313,0336,0336,0336,0333,0362,0203,0334,0203,0337,0337,0337,0316,0337,0203,0336,0313,0336,0336,0336,0203,0334,0203,0364,0335,0335,0333,0337,0337,0337,0316,0337,0313,0336,0333,0337,",
    "0223:0336,0333,0337,0316,0336,0313,0336,0336,0336,0330,0332,0334,0331,0337,0337,0337,0316,0337,0342,0335,0336,0362,0203,0203,0203,0203,0313,0336,0203,0336,0203,0336,0203,0334,0337,0337,0337,0203,0203,0203,0203,0203,0334,0203,0203,0203,0203,0336,0203,0336,0203,0336,0203,0354,0335,0335,0337,0337,0337,0333,0333,0336,0333,0337,0316,0337,0313,0336,0333,0313,0337,0336,0332,0330,0336,0330,0316,0336,0330,0330,0330,0330,0313,0336,0330,0337,0337,0337,0316,0337,0313,0336,0313,0337,0331,0220,",
    "01220:0333,0200,0336,0332,0336,0330,0220,0331,0331,0333,0333,0337,0337,",
    "01221:0333,0200,0336,0332,0336,0330,0220,0221,0331,0331,0333,0333,0337,0337,",
    "01222:0333,0200,0336,0330,0332,0336,0331,0220,0221,0222,0331,0333,0331,0333,0331,0333,0331,0333,0331,0331,0337,0337,0337,",
    "01223:0333,0200,0336,0332,0336,0223,0223,0223,0223,0331,0333,0331,0333,0331,0331,0337,0337,",
    "01224:0333,0200,0336,0332,0337,0224,0336,0333,0337,0331,",
    "01225:0333,0200,0336,0330,0332,0336,0331,0337,0225,0333,0336,0331,0337,0337,",
    "01226:0333,0200,0336,0330,0332,0336,0332,0337,0336,0330,0332,0337,0226,0336,0333,0330,0337,0337,0331,",
    "01227:0333,0200,0336,0332,0336,0330,0337,0227,0331,0336,0331,0337,0333,0337,",
    "01230:0333,0200,0336,0332,0337,0230,0336,0333,0337,0331,",
    "01231:0333,0200,0336,0332,0337,0342,0336,0330,0335,0342,0335,0342,0335,0342,0335,0337,0231,0336,0333,0331,0337,",
    "01232:0333,0200,0336,0330,0332,0336,0331,0337,0232,0333,0336,0331,0337,0337,",
    "01233:0333,0200,0336,0330,0332,0336,0331,0337,0233,0331,0336,0333,0333,0331,0337,0337,",
    "01234:0333,0200,0336,0330,0332,0336,0331,0333,0332,0337,0234,0333,0331,0336,0331,0337,0337,",
    "01235:0333,0200,0336,0330,0332,0336,0332,0330,0337,0235,0331,0336,0333,0331,0337,0337,",
    "01236:0333,0200,0336,0330,0332,0336,0331,0337,0236,0336,0333,0331,0333,0337,0337,",
    "01237:0333,0200,0336,0330,0332,0336,0237,",
    "0240:0220,0336,0331,0333,0336,0321,0335,0342,0335,0335,0342,0335,0330,0330,0332,0332,0337,0337,",
    "01240:0333,0200,0336,0330,0332,0210,0240,0211,0333,0331,0337,",
    "0241:0220,0336,0321,0343,0332,0350,0335,0336,0342,0334,0334,0342,0335,0304,0337,0333,0337,",
    "01241:0333,0200,0336,0332,0330,0210,0241,0211,0333,0331,0337,",
    "0242:0220,0321,0336,0343,0333,0336,0350,0335,0342,0334,0334,0342,0335,0337,0304,0332,0337,",
    "01242:0333,0200,0336,0330,0332,0210,0242,0211,0333,0331,0337,",
    "0243:0220,0336,0331,0332,0336,0321,0343,0332,0350,0334,0336,0342,0335,0335,0342,0337,0334,0334,0335,0304,0332,0330,0330,0337,0337,0333,",
    "01243:0333,0200,0336,0330,0332,0210,0243,0211,0333,0331,0337,",
    "0244:0220,0336,0331,0333,0336,0321,0343,0333,0350,0336,0335,0342,0334,0334,0342,0335,0337,0304,0333,0330,0330,0337,0337,0332,",
    "01244:0333,0200,0336,0330,0332,0210,0244,0211,0333,0331,0337,",
    "0245:0210,0332,0332,0362,0335,0203,0203,0203,0203,0334,0203,0363,0332,0332,0331,0211,",
    "01245:0333,0200,0336,0330,0332,0336,0245,0337,0333,0331,0337,",
    "0246:0210,0332,0332,0335,0306,0336,0330,0335,0335,0335,0321,0362,0203,0335,0335,0203,0364,0331,0350,0335,0337,0366,0333,0333,0333,0333,0334,0334,0334,0334,0367,0335,0336,0342,0334,0334,0342,0330,0330,0330,0330,0335,0335,0335,0304,0337,0211,",
    "01246:0333,0200,0336,0330,0332,0336,0246,",
    "0247:0330,0332,0336,0332,0336,0221,0333,0333,0333,0222,0333,0333,0333,0223,0333,0333,0333,0225,0333,0331,0331,0331,0332,0332,0332,0332,0332,0332,0332,0332,0332,0332,0332,0332,0333,0333,0226,0331,0331,0331,0333,0333,0333,0333,0333,0333,0333,0333,0333,0333,0333,0333,0333,0330,0333,0330,0330,0333,0330,0331,0332,0332,0332,0332,0332,0332,0332,0332,0332,0332,0332,0332,0227,0333,0333,0333,0230,0333,0331,0331,0331,0331,0332,0332,0332,0330,0332,0332,0332,0332,0332,0332,0333,0333,0231,0333,0333,0333,0232,0331,0333,0330,0333,0333,0233,0333,0333,0333,0234,0330,0330,0332,0330,0332,0332,0337,0337,",
    "01247:0333,0200,0336,0330,0332,0220,0336,0247,0337,0331,0333,0337,"
  ]
}</json>-->	<path d = "M112 347 L112 316 L112 285 L112 254 L112 223 L112 192 L112 161 L112 130 L112 99 L143 99 L175 99 L206 99 L237 99 L268 99 L299 99 L330 99 L361 99 L392 99 L423 99 L454 99 L485 99 L516 99 L547 99 L578 99 L609 99 L640 99 L640 130 L640 161 L640 192 L640 223 L640 254 L640 285 L640 316 L640 347 L609 347 L578 347 L547 347 L516 347 L485 347 L454 347 L423 347 L392 347 L361 347 L330 347 L299 347 L268 347 L237 347 L206 347 L175 347 L143 347 L112 347 Z" stroke = "#0000ff" stroke-width = "3" fill = "rgba(128, 128, 255, 0.19)" /><circle cx="143" cy = "130" r = "15.523033076478878" stroke = "#0000ff" stroke-width = "3" fill = "none" />
    <line x1="252" y1="347" x2="252" y2="316" style="stroke:#ff0000;stroke-width:3" />
    <line x1="221" y1="347" x2="221" y2="316" style="stroke:#ff0000;stroke-width:3" />
    <line x1="220" y1="347" x2="220" y2="316" style="stroke:#ff0000;stroke-width:3" />
    <line x1="253" y1="347" x2="253" y2="316" style="stroke:#ff0000;stroke-width:3" />
    <line x1="252" y1="316" x2="252" y2="285" style="stroke:#ff0000;stroke-width:3" />
    <line x1="221" y1="316" x2="221" y2="285" style="stroke:#ff0000;stroke-width:3" />
    <line x1="220" y1="316" x2="220" y2="285" style="stroke:#ff0000;stroke-width:3" />
    <line x1="253" y1="316" x2="253" y2="285" style="stroke:#ff0000;stroke-width:3" />
    <line x1="221" y1="285" x2="252" y2="285" style="stroke:#ff0000;stroke-width:3" />
    <line x1="252" y1="285" x2="221" y2="285" style="stroke:#ff0000;stroke-width:3" />
	<path d = "M252 285 L252 278 L252 272 L252 266 L252 260 L252 257 L252 255 L252 254 L246 254 L240 254 L234 254 L227 254 L221 254 L221 261 L221 267 L221 273 L221 279 L221 282 L221 284 L221 285 Z" stroke = "#ff0000" stroke-width = "3" fill = "none" />    <line x1="252" y1="285" x2="252" y2="254" style="stroke:#ff0000;stroke-width:3" />
    <line x1="221" y1="285" x2="221" y2="254" style="stroke:#ff0000;stroke-width:3" />
    <line x1="220" y1="285" x2="220" y2="254" style="stroke:#ff0000;stroke-width:3" />
    <line x1="253" y1="285" x2="253" y2="254" style="stroke:#ff0000;stroke-width:3" />
    <line x1="268" y1="239" x2="268" y2="208" style="stroke:#ff0000;stroke-width:3" />
	<path d = "M268 239 L275 239 L281 239 L287 239 L293 239 L296 239 L298 239 L299 239 L299 233 L299 226 L299 220 L299 214 L299 208 L292 208 L286 208 L280 208 L274 208 L271 208 L269 208 L268 208 Z" stroke = "#ff0000" stroke-width = "3" fill = "none" />    <line x1="268" y1="239" x2="299" y2="239" style="stroke:#ff0000;stroke-width:3" />
    <line x1="268" y1="208" x2="299" y2="208" style="stroke:#ff0000;stroke-width:3" />
    <line x1="268" y1="207" x2="299" y2="207" style="stroke:#ff0000;stroke-width:3" />
    <line x1="268" y1="240" x2="299" y2="240" style="stroke:#ff0000;stroke-width:3" />
    <line x1="299" y1="239" x2="299" y2="208" style="stroke:#ff0000;stroke-width:3" />
	<path d = "M299 239 L306 239 L312 239 L318 239 L324 239 L327 239 L329 239 L330 239 L330 233 L330 226 L330 220 L330 214 L330 208 L324 208 L317 208 L311 208 L305 208 L302 208 L300 208 L299 208 Z" stroke = "#ff0000" stroke-width = "3" fill = "none" />    <line x1="299" y1="239" x2="330" y2="239" style="stroke:#ff0000;stroke-width:3" />
    <line x1="299" y1="208" x2="330" y2="208" style="stroke:#ff0000;stroke-width:3" />
    <line x1="299" y1="207" x2="330" y2="207" style="stroke:#ff0000;stroke-width:3" />
    <line x1="299" y1="240" x2="330" y2="240" style="stroke:#ff0000;stroke-width:3" />
    <line x1="331" y1="239" x2="331" y2="208" style="stroke:#ff0000;stroke-width:3" />
	<path d = "M331 239 L337 239 L343 239 L349 239 L355 239 L358 239 L360 239 L361 239 L361 233 L361 226 L361 220 L361 214 L361 208 L355 208 L348 208 L342 208 L336 208 L333 208 L331 208 L331 208 Z" stroke = "#ff0000" stroke-width = "3" fill = "none" />    <line x1="330" y1="239" x2="361" y2="239" style="stroke:#ff0000;stroke-width:3" />
    <line x1="330" y1="208" x2="361" y2="208" style="stroke:#ff0000;stroke-width:3" />
    <line x1="330" y1="207" x2="361" y2="207" style="stroke:#ff0000;stroke-width:3" />
    <line x1="330" y1="240" x2="361" y2="240" style="stroke:#ff0000;stroke-width:3" />
    <line x1="362" y1="239" x2="362" y2="208" style="stroke:#ff0000;stroke-width:3" />
	<path d = "M362 239 L368 239 L374 239 L380 239 L386 239 L390 239 L391 239 L392 239 L392 233 L392 226 L392 220 L392 214 L392 208 L386 208 L379 208 L373 208 L367 208 L364 208 L362 208 L362 208 Z" stroke = "#ff0000" stroke-width = "3" fill = "none" />    <line x1="361" y1="239" x2="392" y2="239" style="stroke:#ff0000;stroke-width:3" />
    <line x1="361" y1="208" x2="392" y2="208" style="stroke:#ff0000;stroke-width:3" />
    <line x1="361" y1="207" x2="392" y2="207" style="stroke:#ff0000;stroke-width:3" />
    <line x1="361" y1="240" x2="392" y2="240" style="stroke:#ff0000;stroke-width:3" />
    <line x1="393" y1="239" x2="393" y2="208" style="stroke:#ff0000;stroke-width:3" />
	<path d = "M393 239 L399 239 L405 239 L411 239 L417 239 L421 239 L422 239 L423 239 L423 233 L423 226 L423 220 L423 214 L423 208 L417 208 L410 208 L404 208 L398 208 L395 208 L393 208 L393 208 Z" stroke = "#ff0000" stroke-width = "3" fill = "none" />    <line x1="392" y1="239" x2="423" y2="239" style="stroke:#ff0000;stroke-width:3" />
    <line x1="392" y1="208" x2="423" y2="208" style="stroke:#ff0000;stroke-width:3" />
    <line x1="392" y1="207" x2="423" y2="207" style="stroke:#ff0000;stroke-width:3" />
    <line x1="392" y1="240" x2="423" y2="240" style="stroke:#ff0000;stroke-width:3" />
    <line x1="424" y1="239" x2="424" y2="208" style="stroke:#ff0000;stroke-width:3" />
	<path d = "M424 239 L430 239 L436 239 L442 239 L449 239 L452 239 L453 239 L454 239 L454 233 L454 226 L454 220 L454 214 L454 208 L448 208 L442 208 L435 208 L429 208 L426 208 L424 208 L424 208 Z" stroke = "#ff0000" stroke-width = "3" fill = "none" />    <line x1="423" y1="239" x2="454" y2="239" style="stroke:#ff0000;stroke-width:3" />
    <line x1="423" y1="208" x2="454" y2="208" style="stroke:#ff0000;stroke-width:3" />
    <line x1="423" y1="207" x2="454" y2="207" style="stroke:#ff0000;stroke-width:3" />
    <line x1="423" y1="240" x2="454" y2="240" style="stroke:#ff0000;stroke-width:3" />
    <line x1="454" y1="239" x2="485" y2="239" style="stroke:#ff0000;stroke-width:3" />
    <line x1="454" y1="208" x2="485" y2="208" style="stroke:#ff0000;stroke-width:3" />
    <line x1="454" y1="207" x2="485" y2="207" style="stroke:#ff0000;stroke-width:3" />
    <line x1="454" y1="240" x2="485" y2="240" style="stroke:#ff0000;stroke-width:3" />
    <line x1="532" y1="347" x2="532" y2="316" style="stroke:#ff0000;stroke-width:3" />
    <line x1="501" y1="347" x2="501" y2="316" style="stroke:#ff0000;stroke-width:3" />
    <line x1="500" y1="347" x2="500" y2="316" style="stroke:#ff0000;stroke-width:3" />
    <line x1="532" y1="347" x2="532" y2="316" style="stroke:#ff0000;stroke-width:3" />
    <line x1="532" y1="316" x2="532" y2="285" style="stroke:#ff0000;stroke-width:3" />
    <line x1="501" y1="316" x2="501" y2="285" style="stroke:#ff0000;stroke-width:3" />
    <line x1="500" y1="316" x2="500" y2="285" style="stroke:#ff0000;stroke-width:3" />
    <line x1="532" y1="316" x2="532" y2="285" style="stroke:#ff0000;stroke-width:3" />
    <line x1="532" y1="285" x2="532" y2="254" style="stroke:#ff0000;stroke-width:3" />
    <line x1="501" y1="285" x2="501" y2="254" style="stroke:#ff0000;stroke-width:3" />
    <line x1="500" y1="285" x2="500" y2="254" style="stroke:#ff0000;stroke-width:3" />
    <line x1="532" y1="285" x2="532" y2="254" style="stroke:#ff0000;stroke-width:3" />
  <path d="M484.9824156056768 238.81568592419848           A15.523033076478878 15.523033076478878 0 0 1 500.5054486821557 254.33871900067734" fill = "none" stroke = "#ff0000" stroke-width = "3" />
  <path d="M500.5054486821557 207.7696197712407           A31.046066152957756 31.046066152957756 0 0 1 531.5515148351135 238.81568592419848" fill = "none" stroke = "#ff0000" stroke-width = "3" />
    <line x1="501" y1="208" x2="485" y2="208" style="stroke:#ff0000;stroke-width:3" />
    <line x1="532" y1="239" x2="532" y2="254" style="stroke:#ff0000;stroke-width:3" />
    <text x="299" y = "84" fill = "#800080" font-size = "31.046066152957756px" font-family = "Arial">17mm</text>
    <text x="19" y = "239" fill = "#800080" font-size = "31.046066152957756px" font-family = "Arial">8mm</text>
<circle cx="609" cy = "130" r = "15.523033076478878" stroke = "#0000ff" stroke-width = "3" fill = "none" />
    <line x1="237" y1="347" x2="237" y2="379" style="stroke:#800080;stroke-width:3" />
    <line x1="112" y1="347" x2="112" y2="379" style="stroke:#800080;stroke-width:3" />
    <line x1="516" y1="347" x2="516" y2="379" style="stroke:#800080;stroke-width:3" />
    <line x1="640" y1="347" x2="640" y2="379" style="stroke:#800080;stroke-width:3" />
    <text x="563" y = "379" fill = "#800080" font-size = "15.523033076478878px" font-family = "Arial">4mm</text>
    <text x="175" y = "379" fill = "#800080" font-size = "15.523033076478878px" font-family = "Arial">4mm</text>
    <text x="392" y = "379" fill = "#800080" font-size = "15.523033076478878px" font-family = "Arial">9mm</text>
</svg>