<svg width="700" height="450" viewbox = "0 0 700 450"  xmlns="http://www.w3.org/2000/svg">
<!--<json>{
  "glyph": "0321,0334,0220,0220,0222,0232,0335,0335,0330,0330,0231,0330,0220,0220,0222,0232,0334,0334,0330,0330,0335,0222,0335,0335,0223,0335,0335,0331,0231,0332,0222,0335,0335,0223,0335,0335,0331,0231,0332,0222,0335,0335,0223,0335,0335,0331,0335,0335,0220,0335,0335,0223,0333,0333,0330,0335,0335,0220,0335,0335,0223,0330,0332,0335,0335,0336,0201,0330,0335,0335,0337,0223,0336,0336,0333,0337,0327,0336,0333,0337,0362,0203,0334,0203,0203,0334,0203,0334,0203,0203,0354,0334,0336,0332,0330,0332,0336,0331,0332,0332,0332,0336,0336,0330,0332,0332,0332,0337,0337,0337,01123,01114,01111,01115,01105,",
  "x0": 350,
  "y0": 225,
  "unit": 87.99999999999999,
  "width": 700,
  "height": 450,
  "style": {
    "color0": "black",
    "fill0": "black",
    "line0": 1,
    "color1": "black",
    "fill1": "black",
    "line1": 5,
    "color2": "red",
    "fill2": "red",
    "line2": 6,
    "color3": "red",
    "fill3": "#ff000040",
    "line3": 1,
    "color4": "yellow",
    "fill4": "yellow",
    "line4": 1,
    "color5": "blue",
    "fill5": "#0000ff40",
    "line5": 1,
    "color6": "blue",
    "fill6": "blue",
    "line6": 6,
    "color7": "purple",
    "fill7": "purple",
    "line7": 4
  },
  "shapes": [
    "0220:0336,0336,0336,0336,0336,0201,0337,0362,0203,0306,0334,0337,0203,0335,0335,0203,0203,0334,0334,0203,0203,0335,0335,0203,0203,0334,0334,0203,0203,0335,0335,0203,0203,0334,0334,0203,0335,0203,0336,0336,0203,0364,0304,0337,0337,0337,0337,0337,",
    "0221:0336,0314,0336,0313,0337,0235,0235,0235,0235,0337,0314,0337,0313,0336,",
    "0222:0336,0336,0362,0203,0336,0203,0334,0364,0337,0342,0335,0335,0342,0332,0342,0335,0335,0342,0335,0336,0362,0203,0337,0203,0335,0364,0335,0337,0337,0335,0335,",
    "0223:0336,0331,0342,0337,0304,0336,0336,0335,0310,0362,0203,0335,0350,0335,0337,0203,0335,0335,0203,0335,0335,0335,0336,0203,0354,0304,0334,0313,0337,0337,0304,0336,0330,0337,",
    "0224:0336,0336,0336,0201,0330,0330,0337,0341,0330,0341,0330,0336,0201,0337,0337,0337,",
    "0225:0336,0336,0201,0330,0341,0211,0211,0211,0336,0332,0336,0333,0343,0335,0335,0332,0332,0343,0335,0335,0332,0337,0337,0210,0210,0210,0331,0331,0337,0337,",
    "0226:0336,0336,0341,0332,0334,0342,0335,0335,0330,0330,0342,0334,0330,0332,0342,0331,0350,0335,0342,0335,0335,0342,0335,0335,0342,0335,0335,0342,0335,0304,0333,0333,0337,0332,0337,",
    "0227:0335,0312,0336,0306,0362,0203,0334,0334,0313,0337,0203,0334,0334,0203,0334,0334,0336,0203,0354,0304,0334,0312,0337,0313,0330,",
    "0230:0336,0336,0201,0334,0362,0203,0335,0203,0203,0335,0203,0203,0335,0203,0203,0335,0203,0354,0335,0333,0330,0334,0337,0342,0336,0330,0335,0330,0342,0330,0337,0337,",
    "0231:0336,0336,0336,0336,0347,0337,0337,0337,0337,",
    "0232:0336,0201,0336,0336,0330,0341,0331,0337,0337,0331,0337,",
    "0233:0342,0336,0330,0336,0336,0331,0334,0306,0362,0203,0335,0335,0203,0203,0335,0335,0203,0203,0335,0335,0203,0363,0330,0335,0335,0330,0330,0335,0331,0337,0342,0336,0330,0334,0337,0331,0336,0333,0335,0304,0334,0331,0331,0331,0337,0337,0337,0330,",
    "0234:0201,0336,0331,0350,0335,0336,0331,0337,0342,0336,0330,0334,0334,0331,0337,0342,0336,0330,0335,0337,0331,0304,0337,0330,",
    "0235:0336,0366,0330,0333,0333,0336,0331,0337,0367,0335,0335,0366,0331,0333,0333,0367,0335,0335,0337,",
    "0236:0201,0336,0336,0334,0306,0362,0336,0203,0335,0335,0203,0203,0335,0335,0203,0203,0335,0335,0203,0363,0304,0335,0337,0337,0337,0331,",
    "0237:0330,0335,0336,0336,0366,0337,0337,0333,0334,0334,0336,0336,0331,0367,0366,0335,0332,0337,0337,0331,0336,0336,0335,0367,0334,0337,0337,0330,",
    "01220:0333,0200,0336,0332,0337,0220,0336,0333,0337,0331,",
    "01221:0333,0200,0336,0332,0337,0336,0336,0336,0332,0337,0337,0337,0221,0331,0336,0333,0336,0336,0333,0337,0337,0337,",
    "01222:0333,0200,0336,0332,0337,0222,0336,0333,0337,0331,",
    "01223:0333,0200,0336,0332,0337,0330,0223,0331,0336,0333,0337,",
    "01224:0333,0200,0336,0332,0337,0224,0336,0333,0337,0331,",
    "01225:0333,0200,0336,0330,0332,0336,0331,0337,0337,0225,0336,0333,0336,0331,0337,0337,",
    "01226:0333,0200,0336,0330,0332,0336,0332,0337,0336,0330,0332,0337,0333,0331,0226,0336,0333,0331,0333,0337,0337,",
    "01227:0333,0200,0336,0332,0336,0330,0337,0227,0331,0336,0331,0337,0333,0337,",
    "01230:0333,0200,0336,0332,0337,0230,0336,0333,0337,0331,",
    "01231:0333,0200,0336,0332,0337,0342,0336,0330,0335,0342,0335,0342,0335,0342,0335,0337,0231,0336,0333,0331,0337,",
    "01232:0333,0200,0336,0330,0332,0336,0331,0337,0232,0333,0336,0331,0337,0337,",
    "01233:0333,0200,0336,0330,0332,0336,0331,0337,0233,0331,0336,0333,0333,0331,0337,0337,",
    "01234:0333,0200,0336,0330,0332,0336,0331,0333,0332,0337,0234,0333,0331,0336,0331,0337,0337,",
    "01235:0333,0200,0336,0330,0332,0336,0332,0330,0337,0235,0331,0336,0333,0331,0337,0337,",
    "01236:0333,0200,0336,0330,0332,0336,0331,0337,0236,0336,0333,0331,0333,0337,0337,",
    "01237:0333,0200,0336,0330,0332,0336,0237,",
    "0240:0220,0336,0331,0333,0336,0321,0335,0342,0335,0335,0342,0335,0330,0330,0332,0332,0337,0337,",
    "01240:0333,0200,0336,0330,0332,0210,0240,0211,0333,0331,0337,",
    "0241:0220,0336,0321,0343,0332,0350,0335,0336,0342,0334,0334,0342,0335,0304,0337,0333,0337,",
    "01241:0333,0200,0336,0332,0330,0210,0241,0211,0333,0331,0337,",
    "0242:0220,0321,0336,0343,0333,0336,0350,0335,0342,0334,0334,0342,0335,0337,0304,0332,0337,",
    "01242:0333,0200,0336,0330,0332,0210,0242,0211,0333,0331,0337,",
    "0243:0220,0336,0331,0332,0336,0321,0343,0332,0350,0334,0336,0342,0335,0335,0342,0337,0334,0334,0335,0304,0332,0330,0330,0337,0337,0333,",
    "01243:0333,0200,0336,0330,0332,0210,0243,0211,0333,0331,0337,",
    "0244:0220,0336,0331,0333,0336,0321,0343,0333,0350,0336,0335,0342,0334,0334,0342,0335,0337,0304,0333,0330,0330,0337,0337,0332,",
    "01244:0333,0200,0336,0330,0332,0210,0244,0211,0333,0331,0337,",
    "0245:0210,0332,0332,0362,0335,0203,0203,0203,0203,0334,0203,0363,0332,0332,0331,0211,",
    "01245:0333,0200,0336,0330,0332,0336,0245,0337,0333,0331,0337,",
    "0246:0210,0332,0332,0335,0306,0336,0330,0335,0335,0335,0321,0362,0203,0335,0335,0203,0364,0331,0350,0335,0337,0366,0333,0333,0333,0333,0334,0334,0334,0334,0367,0335,0336,0342,0334,0334,0342,0330,0330,0330,0330,0335,0335,0335,0304,0337,0211,",
    "01246:0333,0200,0336,0330,0332,0336,0246,",
    "0247:0330,0332,0336,0332,0336,0221,0333,0333,0333,0222,0333,0333,0333,0223,0333,0333,0333,0225,0333,0331,0331,0331,0332,0332,0332,0332,0332,0332,0332,0332,0332,0332,0332,0332,0333,0333,0226,0331,0331,0331,0333,0333,0333,0333,0333,0333,0333,0333,0333,0333,0333,0333,0333,0330,0333,0330,0330,0333,0330,0331,0332,0332,0332,0332,0332,0332,0332,0332,0332,0332,0332,0332,0227,0333,0333,0333,0230,0333,0331,0331,0331,0331,0332,0332,0332,0330,0332,0332,0332,0332,0332,0332,0333,0333,0231,0333,0333,0333,0232,0331,0333,0330,0333,0333,0233,0333,0333,0333,0234,0330,0330,0332,0330,0332,0332,0337,0337,",
    "01247:0333,0200,0336,0330,0332,0220,0336,0247,0337,0331,0333,0337,"
  ]
}</json>-->    <line x1="350" y1="225" x2="347" y2="225" style="stroke:#000000;stroke-width:5" />
	<path d = "M347 225 L342 225 L336 235 L331 225 L325 215 L320 225 L314 235 L309 225 L303 215 L298 225 L292 235 L287 225 L281 215 L276 225 L265 225 L262 225 " stroke = "#000000" stroke-width = "5" fill = "none" />    <line x1="262" y1="225" x2="259" y2="225" style="stroke:#000000;stroke-width:5" />
	<path d = "M259 225 L254 225 L248 235 L243 225 L237 215 L232 225 L226 235 L221 225 L215 215 L210 225 L204 235 L199 225 L193 215 L188 225 L177 225 L174 225 " stroke = "#000000" stroke-width = "5" fill = "none" />	<path d = "M174 225 L152 225 L141 225 " stroke = "#000000" stroke-width = "5" fill = "none" />    <line x1="141" y1="225" x2="141" y2="247" style="stroke:#000000;stroke-width:5" />
    <line x1="141" y1="225" x2="141" y2="203" style="stroke:#000000;stroke-width:5" />
    <line x1="119" y1="225" x2="119" y2="203" style="stroke:#000000;stroke-width:5" />
    <line x1="119" y1="225" x2="119" y2="247" style="stroke:#000000;stroke-width:5" />
	<path d = "M119 225 L108 225 L86 225 " stroke = "#000000" stroke-width = "5" fill = "none" />    <line x1="86" y1="225" x2="42" y2="225" style="stroke:#000000;stroke-width:5" />
<circle cx="31" cy = "225" r = "10.999999999999998" stroke = "#000000" stroke-width = "5" fill = "none" />
    <circle cx="262" cy = "225" r = "5.499999999999999" stroke = "#000000" stroke-width = "5" fill = "#000000" />
    <line x1="350" y1="225" x2="353" y2="225" style="stroke:#000000;stroke-width:5" />
	<path d = "M353 225 L358 225 L364 215 L369 225 L375 235 L380 225 L386 215 L391 225 L397 235 L402 225 L408 215 L413 225 L419 235 L424 225 L435 225 L438 225 " stroke = "#000000" stroke-width = "5" fill = "none" />    <line x1="438" y1="225" x2="441" y2="225" style="stroke:#000000;stroke-width:5" />
	<path d = "M441 225 L446 225 L452 215 L457 225 L463 235 L468 225 L474 215 L479 225 L485 235 L490 225 L496 215 L501 225 L507 235 L512 225 L523 225 L526 225 " stroke = "#000000" stroke-width = "5" fill = "none" />	<path d = "M526 225 L548 225 L559 225 " stroke = "#000000" stroke-width = "5" fill = "none" />    <line x1="559" y1="225" x2="559" y2="203" style="stroke:#000000;stroke-width:5" />
    <line x1="559" y1="225" x2="559" y2="247" style="stroke:#000000;stroke-width:5" />
    <line x1="581" y1="225" x2="581" y2="247" style="stroke:#000000;stroke-width:5" />
    <line x1="581" y1="225" x2="581" y2="203" style="stroke:#000000;stroke-width:5" />
	<path d = "M581 225 L592 225 L614 225 " stroke = "#000000" stroke-width = "5" fill = "none" />    <line x1="614" y1="225" x2="658" y2="225" style="stroke:#000000;stroke-width:5" />
<circle cx="669" cy = "225" r = "10.999999999999998" stroke = "#000000" stroke-width = "5" fill = "none" />
	<path d = "M438 225 L438 203 L438 192 " stroke = "#000000" stroke-width = "5" fill = "none" />    <line x1="438" y1="192" x2="416" y2="192" style="stroke:#000000;stroke-width:5" />
    <line x1="438" y1="192" x2="460" y2="192" style="stroke:#000000;stroke-width:5" />
    <line x1="438" y1="170" x2="460" y2="170" style="stroke:#000000;stroke-width:5" />
    <line x1="438" y1="170" x2="416" y2="170" style="stroke:#000000;stroke-width:5" />
	<path d = "M438 170 L438 159 L438 137 " stroke = "#000000" stroke-width = "5" fill = "none" />    <line x1="438" y1="93" x2="438" y2="137" style="stroke:#000000;stroke-width:5" />
	<path d = "M438 93 L416 93 L438 71 L460 93 L438 93 Z" stroke = "#000000" stroke-width = "5" fill = "none" />    <circle cx="438" cy = "225" r = "5.499999999999999" stroke = "#000000" stroke-width = "5" fill = "#000000" />
	<path d = "M350 225 L350 203 L350 192 " stroke = "#000000" stroke-width = "5" fill = "none" />    <line x1="350" y1="192" x2="328" y2="192" style="stroke:#000000;stroke-width:5" />
    <line x1="350" y1="192" x2="372" y2="192" style="stroke:#000000;stroke-width:5" />
    <line x1="350" y1="170" x2="372" y2="170" style="stroke:#000000;stroke-width:5" />
    <line x1="350" y1="170" x2="328" y2="170" style="stroke:#000000;stroke-width:5" />
	<path d = "M350 170 L350 159 L350 137 " stroke = "#000000" stroke-width = "5" fill = "none" />    <line x1="350" y1="93" x2="350" y2="137" style="stroke:#000000;stroke-width:5" />
	<path d = "M350 93 L328 93 L350 71 L372 93 L350 93 Z" stroke = "#000000" stroke-width = "5" fill = "none" />    <circle cx="350" cy = "225" r = "5.499999999999999" stroke = "#000000" stroke-width = "5" fill = "#000000" />
	<path d = "M262 225 L262 203 L262 192 " stroke = "#000000" stroke-width = "5" fill = "none" />    <line x1="262" y1="192" x2="240" y2="192" style="stroke:#000000;stroke-width:5" />
    <line x1="262" y1="192" x2="284" y2="192" style="stroke:#000000;stroke-width:5" />
    <line x1="262" y1="170" x2="284" y2="170" style="stroke:#000000;stroke-width:5" />
    <line x1="262" y1="170" x2="240" y2="170" style="stroke:#000000;stroke-width:5" />
	<path d = "M262 170 L262 159 L262 137 " stroke = "#000000" stroke-width = "5" fill = "none" />    <line x1="262" y1="93" x2="262" y2="137" style="stroke:#000000;stroke-width:5" />
	<path d = "M262 93 L240 93 L262 71 L284 93 L262 93 Z" stroke = "#000000" stroke-width = "5" fill = "none" />    <line x1="262" y1="225" x2="262" y2="228" style="stroke:#000000;stroke-width:5" />
	<path d = "M262 228 L262 233 L272 239 L262 244 L252 250 L262 255 L272 261 L262 266 L252 272 L262 277 L272 283 L262 288 L252 294 L262 299 L262 310 L262 313 " stroke = "#000000" stroke-width = "5" fill = "none" />    <line x1="262" y1="357" x2="262" y2="313" style="stroke:#000000;stroke-width:5" />
	<path d = "M262 357 L284 357 L262 379 L240 357 L262 357 Z" stroke = "#000000" stroke-width = "5" fill = "none" />    <line x1="438" y1="225" x2="438" y2="228" style="stroke:#000000;stroke-width:5" />
	<path d = "M438 228 L438 233 L448 239 L438 244 L428 250 L438 255 L448 261 L438 266 L428 272 L438 277 L448 283 L438 288 L428 294 L438 299 L438 310 L438 313 " stroke = "#000000" stroke-width = "5" fill = "none" />    <line x1="438" y1="357" x2="438" y2="313" style="stroke:#000000;stroke-width:5" />
	<path d = "M438 357 L460 357 L438 379 L416 357 L438 357 Z" stroke = "#000000" stroke-width = "5" fill = "none" />    <line x1="350" y1="225" x2="350" y2="269" style="stroke:#000000;stroke-width:5" />
    <line x1="350" y1="357" x2="350" y2="313" style="stroke:#000000;stroke-width:5" />
	<path d = "M350 357 L372 357 L350 379 L328 357 L350 357 Z" stroke = "#000000" stroke-width = "5" fill = "none" />	<path d = "M394 313 L394 269 L350 269 L306 269 L306 313 L350 313 L394 313 Z" stroke = "#800080" stroke-width = "4" fill = "none" />    <circle cx="312" cy = "296" r = "1.3749999999999998" stroke = "#800080" stroke-width = "4" fill = "#800080" />
    <circle cx="314" cy = "299" r = "1.3749999999999998" stroke = "#800080" stroke-width = "4" fill = "#800080" />
    <circle cx="317" cy = "299" r = "1.3749999999999998" stroke = "#800080" stroke-width = "4" fill = "#800080" />
    <circle cx="320" cy = "299" r = "1.3749999999999998" stroke = "#800080" stroke-width = "4" fill = "#800080" />
    <circle cx="323" cy = "296" r = "1.3749999999999998" stroke = "#800080" stroke-width = "4" fill = "#800080" />
    <circle cx="323" cy = "294" r = "1.3749999999999998" stroke = "#800080" stroke-width = "4" fill = "#800080" />
    <circle cx="320" cy = "291" r = "1.3749999999999998" stroke = "#800080" stroke-width = "4" fill = "#800080" />
    <circle cx="317" cy = "291" r = "1.3749999999999998" stroke = "#800080" stroke-width = "4" fill = "#800080" />
    <circle cx="314" cy = "291" r = "1.3749999999999998" stroke = "#800080" stroke-width = "4" fill = "#800080" />
    <circle cx="312" cy = "288" r = "1.3749999999999998" stroke = "#800080" stroke-width = "4" fill = "#800080" />
    <circle cx="312" cy = "285" r = "1.3749999999999998" stroke = "#800080" stroke-width = "4" fill = "#800080" />
    <circle cx="314" cy = "283" r = "1.3749999999999998" stroke = "#800080" stroke-width = "4" fill = "#800080" />
    <circle cx="317" cy = "283" r = "1.3749999999999998" stroke = "#800080" stroke-width = "4" fill = "#800080" />
    <circle cx="320" cy = "283" r = "1.3749999999999998" stroke = "#800080" stroke-width = "4" fill = "#800080" />
    <circle cx="323" cy = "285" r = "1.3749999999999998" stroke = "#800080" stroke-width = "4" fill = "#800080" />
    <circle cx="328" cy = "299" r = "1.3749999999999998" stroke = "#800080" stroke-width = "4" fill = "#800080" />
    <circle cx="328" cy = "296" r = "1.3749999999999998" stroke = "#800080" stroke-width = "4" fill = "#800080" />
    <circle cx="328" cy = "294" r = "1.3749999999999998" stroke = "#800080" stroke-width = "4" fill = "#800080" />
    <circle cx="328" cy = "291" r = "1.3749999999999998" stroke = "#800080" stroke-width = "4" fill = "#800080" />
    <circle cx="328" cy = "288" r = "1.3749999999999998" stroke = "#800080" stroke-width = "4" fill = "#800080" />
    <circle cx="328" cy = "285" r = "1.3749999999999998" stroke = "#800080" stroke-width = "4" fill = "#800080" />
    <circle cx="328" cy = "283" r = "1.3749999999999998" stroke = "#800080" stroke-width = "4" fill = "#800080" />
    <circle cx="331" cy = "299" r = "1.3749999999999998" stroke = "#800080" stroke-width = "4" fill = "#800080" />
    <circle cx="334" cy = "299" r = "1.3749999999999998" stroke = "#800080" stroke-width = "4" fill = "#800080" />
    <circle cx="336" cy = "299" r = "1.3749999999999998" stroke = "#800080" stroke-width = "4" fill = "#800080" />
    <circle cx="339" cy = "299" r = "1.3749999999999998" stroke = "#800080" stroke-width = "4" fill = "#800080" />
    <circle cx="347" cy = "299" r = "1.3749999999999998" stroke = "#800080" stroke-width = "4" fill = "#800080" />
    <circle cx="350" cy = "299" r = "1.3749999999999998" stroke = "#800080" stroke-width = "4" fill = "#800080" />
    <circle cx="353" cy = "299" r = "1.3749999999999998" stroke = "#800080" stroke-width = "4" fill = "#800080" />
    <circle cx="350" cy = "296" r = "1.3749999999999998" stroke = "#800080" stroke-width = "4" fill = "#800080" />
    <circle cx="350" cy = "294" r = "1.3749999999999998" stroke = "#800080" stroke-width = "4" fill = "#800080" />
    <circle cx="350" cy = "291" r = "1.3749999999999998" stroke = "#800080" stroke-width = "4" fill = "#800080" />
    <circle cx="350" cy = "288" r = "1.3749999999999998" stroke = "#800080" stroke-width = "4" fill = "#800080" />
    <circle cx="350" cy = "285" r = "1.3749999999999998" stroke = "#800080" stroke-width = "4" fill = "#800080" />
    <circle cx="350" cy = "283" r = "1.3749999999999998" stroke = "#800080" stroke-width = "4" fill = "#800080" />
    <circle cx="347" cy = "283" r = "1.3749999999999998" stroke = "#800080" stroke-width = "4" fill = "#800080" />
    <circle cx="353" cy = "283" r = "1.3749999999999998" stroke = "#800080" stroke-width = "4" fill = "#800080" />
    <circle cx="361" cy = "299" r = "1.3749999999999998" stroke = "#800080" stroke-width = "4" fill = "#800080" />
    <circle cx="361" cy = "296" r = "1.3749999999999998" stroke = "#800080" stroke-width = "4" fill = "#800080" />
    <circle cx="361" cy = "294" r = "1.3749999999999998" stroke = "#800080" stroke-width = "4" fill = "#800080" />
    <circle cx="361" cy = "291" r = "1.3749999999999998" stroke = "#800080" stroke-width = "4" fill = "#800080" />
    <circle cx="361" cy = "288" r = "1.3749999999999998" stroke = "#800080" stroke-width = "4" fill = "#800080" />
    <circle cx="361" cy = "285" r = "1.3749999999999998" stroke = "#800080" stroke-width = "4" fill = "#800080" />
    <circle cx="361" cy = "283" r = "1.3749999999999998" stroke = "#800080" stroke-width = "4" fill = "#800080" />
    <circle cx="364" cy = "285" r = "1.3749999999999998" stroke = "#800080" stroke-width = "4" fill = "#800080" />
    <circle cx="367" cy = "288" r = "1.3749999999999998" stroke = "#800080" stroke-width = "4" fill = "#800080" />
    <circle cx="367" cy = "291" r = "1.3749999999999998" stroke = "#800080" stroke-width = "4" fill = "#800080" />
    <circle cx="369" cy = "285" r = "1.3749999999999998" stroke = "#800080" stroke-width = "4" fill = "#800080" />
    <circle cx="372" cy = "283" r = "1.3749999999999998" stroke = "#800080" stroke-width = "4" fill = "#800080" />
    <circle cx="372" cy = "285" r = "1.3749999999999998" stroke = "#800080" stroke-width = "4" fill = "#800080" />
    <circle cx="372" cy = "288" r = "1.3749999999999998" stroke = "#800080" stroke-width = "4" fill = "#800080" />
    <circle cx="372" cy = "291" r = "1.3749999999999998" stroke = "#800080" stroke-width = "4" fill = "#800080" />
    <circle cx="372" cy = "294" r = "1.3749999999999998" stroke = "#800080" stroke-width = "4" fill = "#800080" />
    <circle cx="372" cy = "296" r = "1.3749999999999998" stroke = "#800080" stroke-width = "4" fill = "#800080" />
    <circle cx="372" cy = "299" r = "1.3749999999999998" stroke = "#800080" stroke-width = "4" fill = "#800080" />
    <circle cx="378" cy = "299" r = "1.3749999999999998" stroke = "#800080" stroke-width = "4" fill = "#800080" />
    <circle cx="378" cy = "296" r = "1.3749999999999998" stroke = "#800080" stroke-width = "4" fill = "#800080" />
    <circle cx="378" cy = "294" r = "1.3749999999999998" stroke = "#800080" stroke-width = "4" fill = "#800080" />
    <circle cx="378" cy = "291" r = "1.3749999999999998" stroke = "#800080" stroke-width = "4" fill = "#800080" />
    <circle cx="378" cy = "288" r = "1.3749999999999998" stroke = "#800080" stroke-width = "4" fill = "#800080" />
    <circle cx="378" cy = "285" r = "1.3749999999999998" stroke = "#800080" stroke-width = "4" fill = "#800080" />
    <circle cx="378" cy = "283" r = "1.3749999999999998" stroke = "#800080" stroke-width = "4" fill = "#800080" />
    <circle cx="380" cy = "283" r = "1.3749999999999998" stroke = "#800080" stroke-width = "4" fill = "#800080" />
    <circle cx="383" cy = "283" r = "1.3749999999999998" stroke = "#800080" stroke-width = "4" fill = "#800080" />
    <circle cx="386" cy = "283" r = "1.3749999999999998" stroke = "#800080" stroke-width = "4" fill = "#800080" />
    <circle cx="389" cy = "283" r = "1.3749999999999998" stroke = "#800080" stroke-width = "4" fill = "#800080" />
    <circle cx="383" cy = "291" r = "1.3749999999999998" stroke = "#800080" stroke-width = "4" fill = "#800080" />
    <circle cx="380" cy = "291" r = "1.3749999999999998" stroke = "#800080" stroke-width = "4" fill = "#800080" />
    <circle cx="380" cy = "299" r = "1.3749999999999998" stroke = "#800080" stroke-width = "4" fill = "#800080" />
    <circle cx="383" cy = "299" r = "1.3749999999999998" stroke = "#800080" stroke-width = "4" fill = "#800080" />
    <circle cx="386" cy = "299" r = "1.3749999999999998" stroke = "#800080" stroke-width = "4" fill = "#800080" />
    <circle cx="389" cy = "299" r = "1.3749999999999998" stroke = "#800080" stroke-width = "4" fill = "#800080" />
</svg>