<svg width="700" height="700" viewbox = "0 0 700 700"  xmlns="http://www.w3.org/2000/svg">
<!--<json>{
  "glyph": "0332,0330,0332,0332,0335,0321,0220,0220,0335,0333,0222,0335,0335,0223,0330,0234,0333,0335,0236,0334,0334,0330,0330,0236,0335,0335,0330,0330,0330,0330,0335,0335,0336,0336,0330,0337,0337,0236,0335,0335,0220,0220,0236,0334,0332,0234,0335,0335,0222,0335,0335,0223,0330,0236,0332,0332,0332,0332,0336,0336,0333,0337,0337,0236,0333,0330,0331,0201,0220,0201,0335,0201,0201,0201,0336,0334,0331,0337,0336,0336,0331,0337,0337,0342,0306,0335,0362,0203,0334,0334,0203,0334,0334,0203,0354,0335,0335,0335,0333,0335,0334,0201,0304,0334,0335,0336,0201,0334,0337,0220,0201,0334,0201,0336,0336,0201,0335,0331,0331,0331,0331,0336,0331,0332,0337,0337,0332,0201,0201,0201,0334,0201,0201,0201,0201,0336,0201,0336,0201,0335,0335,0337,0337,0337,0234,0332,0336,0332,0337,0234,0330,0330,0330,0333,0333,0333,0335,0336,0333,0330,0330,0336,0332,0331,0337,0336,0336,0330,0337,0337,0337,0342,0330,0236,0334,0336,0330,0333,0330,0327,0340,0341,0323,0331,0331,0331,0331,0331,0331,0332,0332,0325,0330,0337,0225,0326,0330,0332,0336,0331,0332,0332,0331,0337,0227,0322,0332,0332,0336,0333,0337,0332,0332,0226,0324,0332,0331,0332,0330,0224,",
  "x0": 350,
  "y0": 450,
  "unit": 66.55000000000003,
  "width": 700,
  "height": 700,
  "style": {
    "color0": "black",
    "fill0": "black",
    "line0": 1,
    "color1": "black",
    "fill1": "black",
    "line1": 5,
    "color2": "red",
    "fill2": "red",
    "line2": 10,
    "color3": "#9f8767",
    "fill3": "#9f8767",
    "line3": 10,
    "color4": "yellow",
    "fill4": "yellow",
    "line4": 10,
    "color5": "green",
    "fill5": "green",
    "line5": 10,
    "color6": "blue",
    "fill6": "blue",
    "line6": 10,
    "color7": "purple",
    "fill7": "purple",
    "line7": 10
  },
  "shapes": [
    "0220:0336,0336,0336,0336,0336,0201,0337,0362,0203,0306,0334,0337,0203,0335,0335,0203,0203,0334,0334,0203,0203,0335,0335,0203,0203,0334,0334,0203,0203,0335,0335,0203,0203,0334,0334,0203,0335,0203,0336,0336,0203,0364,0304,0337,0337,0337,0337,0337,",
    "0221:0336,0314,0336,0313,0337,0237,0237,0237,0237,0337,0314,0337,0313,0336,",
    "0222:0336,0336,0362,0203,0336,0203,0334,0364,0337,0342,0335,0335,0342,0332,0342,0335,0335,0342,0335,0336,0362,0203,0337,0203,0335,0364,0335,0337,0337,0335,0335,",
    "0223:0336,0331,0342,0337,0304,0336,0336,0335,0310,0362,0203,0335,0350,0335,0337,0203,0335,0335,0203,0335,0335,0335,0336,0203,0354,0304,0334,0313,0337,0337,0304,0336,0330,0337,",
    "0224:0312,0336,0306,0330,0335,0335,0350,0335,0337,0362,0203,0335,0335,0335,0335,0203,0335,0335,0335,0335,0203,0354,0334,0336,0331,0304,0337,0313,0336,0335,0331,0337,0342,0336,0334,0333,0337,",
    "0225:0335,0335,0224,0335,0335,",
    "0226:0312,0336,0306,0330,0335,0335,0350,0335,0337,0362,0203,0335,0335,0335,0335,0203,0335,0335,0335,0335,0203,0354,0334,0336,0331,0304,0337,0313,",
    "0227:0335,0335,0226,0335,0335,",
    "0230:0335,0201,0336,0331,0335,0337,0234,0220,0234,0334,0336,0331,0337,0342,0334,0333,0330,",
    "0231:0335,0330,0334,0334,0221,0335,0331,0335,0201,0332,0334,",
    "0232:0335,0342,0336,0330,0335,0337,0234,0221,0335,0234,0335,0335,0336,0331,0337,0342,0334,0330,0333,",
    "0233:0335,0236,0333,0236,0334,0330,",
    "0234:0336,0336,0336,0336,0347,0337,0337,0337,0337,",
    "0235:0336,0366,0330,0333,0333,0336,0331,0337,0367,0335,0335,0366,0331,0333,0333,0367,0335,0335,0337,",
    "0236:0336,0201,0336,0336,0330,0341,0331,0337,0337,0331,0337,",
    "0237:0336,0366,0330,0333,0333,0336,0331,0337,0367,0335,0335,0366,0331,0333,0333,0367,0335,0335,0337,",
    "01220:0333,0200,0336,0332,0337,0220,0336,0333,0337,0331,",
    "01221:0333,0200,0336,0332,0337,0336,0336,0336,0332,0337,0337,0337,0221,0331,0336,0333,0336,0336,0333,0337,0337,0337,",
    "01222:0333,0200,0336,0332,0337,0222,0336,0333,0337,0331,",
    "01223:0333,0200,0336,0332,0337,0330,0223,0331,0336,0333,0337,",
    "01224:0333,0200,0336,0330,0332,0336,0337,0224,0331,0333,0337,",
    "01225:0333,0200,0336,0330,0332,0225,0331,0333,0337,",
    "01226:0333,0200,0336,0330,0332,0226,0331,0333,0337,",
    "01227:0333,0200,0336,0330,0332,0227,0331,0333,0337,",
    "01230:0333,0200,0336,0330,0332,0336,0330,0332,0337,0230,0336,0333,0330,0337,0337,0331,",
    "01231:0333,0200,0336,0330,0332,0336,0330,0332,0337,0231,0331,0336,0331,0333,0337,0337,",
    "01232:0333,0200,0336,0330,0332,0336,0330,0332,0337,0232,0336,0333,0330,0337,0337,0331,",
    "01233:0333,0200,0336,0330,0332,0336,0330,0332,0337,0233,0333,0336,0333,0330,0337,0337,0331,",
    "01234:0333,0200,0336,0330,0332,0234,0342,0335,0342,0335,0342,0335,0342,0335,0331,0333,0337,",
    "01235:0333,0200,0336,0330,0332,0336,0332,0330,0337,0235,0331,0336,0333,0331,0337,0337,",
    "01236:0333,0200,0336,0330,0332,0236,0331,0333,0337,",
    "01237:0333,0200,0336,0330,0332,0336,0331,0332,0332,0337,0337,0237,0331,0333,",
    "0240:0220,0336,0331,0333,0336,0321,0335,0342,0335,0335,0342,0335,0330,0330,0332,0332,0337,0337,",
    "01240:0333,0200,0336,0330,0332,0210,0240,0211,0333,0331,0337,",
    "0241:0220,0336,0321,0343,0332,0350,0335,0336,0342,0334,0334,0342,0335,0304,0337,0333,0337,",
    "01241:0333,0200,0336,0332,0330,0210,0241,0211,0333,0331,0337,",
    "0242:0220,0321,0336,0343,0333,0336,0350,0335,0342,0334,0334,0342,0335,0337,0304,0332,0337,",
    "01242:0333,0200,0336,0330,0332,0210,0242,0211,0333,0331,0337,",
    "0243:0220,0336,0331,0332,0336,0321,0343,0332,0350,0334,0336,0342,0335,0335,0342,0337,0334,0334,0335,0304,0332,0330,0330,0337,0337,0333,",
    "01243:0333,0200,0336,0330,0332,0210,0243,0211,0333,0331,0337,",
    "0244:0220,0336,0331,0333,0336,0321,0343,0333,0350,0336,0335,0342,0334,0334,0342,0335,0337,0304,0333,0330,0330,0337,0337,0332,",
    "01244:0333,0200,0336,0330,0332,0210,0244,0211,0333,0331,0337,",
    "0245:0210,0332,0332,0362,0335,0203,0203,0203,0203,0334,0203,0363,0332,0332,0331,0211,",
    "01245:0333,0200,0336,0330,0332,0336,0245,0337,0333,0331,0337,",
    "0246:0210,0332,0332,0335,0306,0336,0330,0335,0335,0335,0321,0362,0203,0335,0335,0203,0364,0331,0350,0335,0337,0366,0333,0333,0333,0333,0334,0334,0334,0334,0367,0335,0336,0342,0334,0334,0342,0330,0330,0330,0330,0335,0335,0335,0304,0337,0211,",
    "01246:0333,0200,0336,0330,0332,0336,0246,",
    "0247:0330,0332,0336,0332,0336,0221,0333,0333,0333,0222,0333,0333,0333,0223,0333,0333,0333,0225,0333,0331,0331,0331,0332,0332,0332,0332,0332,0332,0332,0332,0332,0332,0332,0332,0333,0333,0226,0331,0331,0331,0333,0333,0333,0333,0333,0333,0333,0333,0333,0333,0333,0333,0333,0330,0333,0330,0330,0333,0330,0331,0332,0332,0332,0332,0332,0332,0332,0332,0332,0332,0332,0332,0227,0333,0333,0333,0230,0333,0331,0331,0331,0331,0332,0332,0332,0330,0332,0332,0332,0332,0332,0332,0333,0333,0231,0333,0333,0333,0232,0331,0333,0330,0333,0333,0233,0333,0333,0333,0234,0330,0330,0332,0330,0332,0332,0337,0337,",
    "01247:0333,0200,0336,0330,0332,0220,0336,0247,0337,0331,0333,0337,"
  ]
}</json>-->    <line x1="150" y1="383" x2="152" y2="383" style="stroke:#000000;stroke-width:5" />
	<path d = "M152 383 L157 383 L161 376 L165 383 L169 391 L173 383 L177 376 L182 383 L186 391 L190 383 L194 376 L198 383 L202 391 L207 383 L215 383 L217 383 " stroke = "#000000" stroke-width = "5" fill = "none" />    <line x1="217" y1="383" x2="219" y2="383" style="stroke:#000000;stroke-width:5" />
	<path d = "M219 383 L223 383 L227 376 L231 383 L236 391 L240 383 L244 376 L248 383 L252 391 L256 383 L261 376 L265 383 L269 391 L273 383 L281 383 L283 383 " stroke = "#000000" stroke-width = "5" fill = "none" />	<path d = "M217 383 L217 400 L217 408 " stroke = "#000000" stroke-width = "5" fill = "none" />    <line x1="217" y1="408" x2="234" y2="408" style="stroke:#000000;stroke-width:5" />
    <line x1="217" y1="408" x2="200" y2="408" style="stroke:#000000;stroke-width:5" />
    <line x1="217" y1="425" x2="200" y2="425" style="stroke:#000000;stroke-width:5" />
    <line x1="217" y1="425" x2="234" y2="425" style="stroke:#000000;stroke-width:5" />
	<path d = "M217 425 L217 433 L217 450 " stroke = "#000000" stroke-width = "5" fill = "none" />    <line x1="217" y1="483" x2="217" y2="450" style="stroke:#000000;stroke-width:5" />
	<path d = "M217 483 L234 483 L217 500 L200 483 L217 483 Z" stroke = "#000000" stroke-width = "5" fill = "none" />    <circle cx="217" cy = "383" r = "4.159375000000002" stroke = "#000000" stroke-width = "5" fill = "#000000" />
    <line x1="283" y1="383" x2="317" y2="383" style="stroke:#000000;stroke-width:5" />
<circle cx="325" cy = "383" r = "8.318750000000003" stroke = "#000000" stroke-width = "5" fill = "none" />
    <line x1="150" y1="383" x2="117" y2="383" style="stroke:#000000;stroke-width:5" />
<circle cx="109" cy = "383" r = "8.318750000000003" stroke = "#000000" stroke-width = "5" fill = "none" />
    <line x1="400" y1="383" x2="367" y2="383" style="stroke:#000000;stroke-width:5" />
<circle cx="358" cy = "383" r = "8.318750000000003" stroke = "#000000" stroke-width = "5" fill = "none" />
    <line x1="400" y1="383" x2="402" y2="383" style="stroke:#000000;stroke-width:5" />
	<path d = "M402 383 L406 383 L410 376 L414 383 L419 391 L423 383 L427 376 L431 383 L435 391 L439 383 L444 376 L448 383 L452 391 L456 383 L464 383 L466 383 " stroke = "#000000" stroke-width = "5" fill = "none" />    <line x1="466" y1="383" x2="469" y2="383" style="stroke:#000000;stroke-width:5" />
	<path d = "M469 383 L473 383 L477 376 L481 383 L485 391 L489 383 L493 376 L498 383 L502 391 L506 383 L510 376 L514 383 L518 391 L523 383 L531 383 L533 383 " stroke = "#000000" stroke-width = "5" fill = "none" />    <line x1="533" y1="383" x2="566" y2="383" style="stroke:#000000;stroke-width:5" />
<circle cx="575" cy = "383" r = "8.318750000000003" stroke = "#000000" stroke-width = "5" fill = "none" />
    <circle cx="466" cy = "383" r = "4.159375000000002" stroke = "#000000" stroke-width = "5" fill = "#000000" />
	<path d = "M466 383 L466 400 L466 408 " stroke = "#000000" stroke-width = "5" fill = "none" />    <line x1="466" y1="408" x2="483" y2="408" style="stroke:#000000;stroke-width:5" />
    <line x1="466" y1="408" x2="450" y2="408" style="stroke:#000000;stroke-width:5" />
    <line x1="466" y1="425" x2="450" y2="425" style="stroke:#000000;stroke-width:5" />
    <line x1="466" y1="425" x2="483" y2="425" style="stroke:#000000;stroke-width:5" />
	<path d = "M466 425 L466 433 L466 450 " stroke = "#000000" stroke-width = "5" fill = "none" />    <line x1="466" y1="483" x2="466" y2="450" style="stroke:#000000;stroke-width:5" />
	<path d = "M466 483 L483 483 L466 500 L450 483 L466 483 Z" stroke = "#000000" stroke-width = "5" fill = "none" />    <line x1="466" y1="383" x2="466" y2="350" style="stroke:#000000;stroke-width:5" />
<circle cx="466" cy = "342" r = "8.318750000000003" stroke = "#000000" stroke-width = "5" fill = "none" />
    <line x1="217" y1="383" x2="217" y2="350" style="stroke:#000000;stroke-width:5" />
<circle cx="217" cy = "342" r = "8.318750000000003" stroke = "#000000" stroke-width = "5" fill = "none" />
    <line x1="283" y1="383" x2="283" y2="317" style="stroke:#000000;stroke-width:5" />
    <line x1="283" y1="317" x2="283" y2="315" style="stroke:#000000;stroke-width:5" />
	<path d = "M283 315 L283 311 L276 307 L283 302 L291 298 L283 294 L276 290 L283 286 L291 282 L283 277 L276 273 L283 269 L291 265 L283 261 L283 252 L283 250 " stroke = "#000000" stroke-width = "5" fill = "none" />    <line x1="283" y1="250" x2="283" y2="184" style="stroke:#000000;stroke-width:5" />
    <line x1="283" y1="184" x2="350" y2="184" style="stroke:#000000;stroke-width:5" />
    <line x1="350" y1="184" x2="417" y2="184" style="stroke:#000000;stroke-width:5" />
    <line x1="417" y1="184" x2="483" y2="184" style="stroke:#000000;stroke-width:5" />
    <line x1="483" y1="234" x2="483" y2="167" style="stroke:#000000;stroke-width:5" />
	<path d = "M483 234 L541 200 L483 167 L483 234 Z" stroke = "#000000" stroke-width = "5" fill = "none" />    <line x1="541" y1="200" x2="541" y2="134" style="stroke:#000000;stroke-width:5" />
    <line x1="541" y1="134" x2="541" y2="101" style="stroke:#000000;stroke-width:5" />
    <line x1="541" y1="101" x2="539" y2="101" style="stroke:#000000;stroke-width:5" />
	<path d = "M539 101 L534 101 L530 108 L526 101 L522 93 L518 101 L514 108 L510 101 L505 93 L501 101 L497 108 L493 101 L489 93 L485 101 L476 101 L474 101 " stroke = "#000000" stroke-width = "5" fill = "none" />    <line x1="474" y1="101" x2="408" y2="101" style="stroke:#000000;stroke-width:5" />
    <line x1="408" y1="101" x2="408" y2="167" style="stroke:#000000;stroke-width:5" />
    <line x1="408" y1="167" x2="408" y2="184" style="stroke:#000000;stroke-width:5" />
    <line x1="483" y1="225" x2="449" y2="225" style="stroke:#000000;stroke-width:5" />
    <line x1="449" y1="225" x2="416" y2="225" style="stroke:#000000;stroke-width:5" />
    <line x1="416" y1="225" x2="383" y2="225" style="stroke:#000000;stroke-width:5" />
    <line x1="383" y1="225" x2="383" y2="259" style="stroke:#000000;stroke-width:5" />
    <line x1="383" y1="259" x2="383" y2="292" style="stroke:#000000;stroke-width:5" />
    <line x1="383" y1="292" x2="383" y2="325" style="stroke:#000000;stroke-width:5" />
    <line x1="383" y1="325" x2="383" y2="358" style="stroke:#000000;stroke-width:5" />
    <line x1="383" y1="358" x2="383" y2="375" style="stroke:#000000;stroke-width:5" />
    <line x1="383" y1="375" x2="383" y2="383" style="stroke:#000000;stroke-width:5" />
    <circle cx="383" cy = "383" r = "4.159375000000002" stroke = "#000000" stroke-width = "5" fill = "#000000" />
    <circle cx="283" cy = "383" r = "4.159375000000002" stroke = "#000000" stroke-width = "5" fill = "#000000" />
    <line x1="541" y1="200" x2="607" y2="200" style="stroke:#000000;stroke-width:5" />
    <line x1="607" y1="200" x2="641" y2="200" style="stroke:#000000;stroke-width:5" />
<circle cx="649" cy = "200" r = "8.318750000000003" stroke = "#000000" stroke-width = "5" fill = "none" />
<circle cx="641" cy = "134" r = "10" stroke = "#800080" stroke-width = "10" fill = "#800080" />
<circle cx="641" cy = "134" r = "33.27500000000001" stroke = "#800080" stroke-width = "10" fill = "none" />
	<path d = "M574 339 L541 281 L607 281 L574 339 Z" stroke = "#008000" stroke-width = "10" fill = "none" />    <line x1="607" y1="300" x2="541" y2="300" style="stroke:#008000;stroke-width:10" />
	<path d = "M441 339 L408 281 L474 281 L441 339 Z" stroke = "#0000ff" stroke-width = "10" fill = "none" />	<path d = "M208 262 L241 319 L175 319 L208 262 Z" stroke = "#ff0000" stroke-width = "10" fill = "none" />	<path d = "M75 262 L108 319 L42 319 L75 262 Z" stroke = "#ffff00" stroke-width = "10" fill = "none" />    <line x1="42" y1="300" x2="108" y2="300" style="stroke:#ffff00;stroke-width:10" />
</svg>