<svg width="700" height="300" viewbox = "0 0 700 300"  xmlns="http://www.w3.org/2000/svg">
<!--<json>{
  "glyph": "0336,0331,0337,0332,0332,0336,0330,0332,0330,0337,0321,0224,0326,0225,0325,0227,0327,0226,0230,0326,0225,0233,0336,0330,0332,01103,01157,01165,01164,0332,0332,0332,0332,0332,0332,0332,0332,0332,0332,0332,0332,0332,01103,01151,01156,0325,0333,01122,01142,01151,01141,01163,0327,0331,0332,0332,0331,0331,0331,0332,0332,0331,0336,0330,0337,0332,0332,01103,01163,01154,01151,01155,01145,0333,0333,01122,01163,01154,01151,01155,01145,",
  "x0": 350,
  "y0": 150,
  "unit": 97.43585500000007,
  "width": 700,
  "height": 300,
  "style": {
    "color0": "black",
    "fill0": "black",
    "line0": 6,
    "color1": "black",
    "fill1": "black",
    "line1": 6,
    "color2": "red",
    "fill2": "red",
    "line2": 6,
    "color3": "red",
    "fill3": "red",
    "line3": 6,
    "color4": "yellow",
    "fill4": "yellow",
    "line4": 1,
    "color5": "green",
    "fill5": "green",
    "line5": 6,
    "color6": "blue",
    "fill6": "blue",
    "line6": 6,
    "color7": "purple",
    "fill7": "purple",
    "line7": 6
  },
  "shapes": [
    "0220:0336,0336,0336,0336,0336,0201,0337,0362,0203,0306,0334,0337,0203,0335,0335,0203,0203,0334,0334,0203,0203,0335,0335,0203,0203,0334,0334,0203,0203,0335,0335,0203,0203,0334,0334,0203,0335,0203,0336,0336,0203,0364,0304,0337,0337,0337,0337,0337,",
    "0221:0336,0314,0336,0313,0337,0237,0237,0237,0237,0337,0314,0337,0313,0336,",
    "0222:0336,0336,0362,0203,0336,0203,0334,0364,0337,0342,0335,0335,0342,0332,0342,0335,0335,0342,0335,0336,0362,0203,0337,0203,0335,0364,0335,0337,0337,0335,0335,",
    "0223:0336,0331,0342,0337,0304,0336,0336,0335,0310,0362,0203,0335,0350,0335,0337,0203,0335,0335,0203,0335,0335,0335,0336,0203,0354,0304,0334,0313,0337,0337,0304,0336,0330,0337,",
    "0224:0334,0236,0332,0236,0335,0330,",
    "0225:0335,0222,0331,0333,0201,0332,0334,",
    "0226:0335,0342,0336,0330,0335,0337,0234,0222,0335,0335,0234,0335,0336,0331,0337,0342,0334,0330,0333,",
    "0227:0335,0220,0331,0333,0201,0334,0330,",
    "0230:0335,0201,0336,0331,0335,0337,0234,0220,0234,0334,0336,0331,0337,0342,0334,0333,0330,",
    "0231:0335,0330,0334,0334,0221,0335,0331,0335,0201,0332,0334,",
    "0232:0335,0342,0336,0330,0335,0337,0234,0221,0335,0234,0335,0335,0336,0331,0337,0342,0334,0330,0333,",
    "0233:0335,0236,0333,0236,0334,0330,",
    "0234:0336,0336,0336,0336,0347,0337,0337,0337,0337,",
    "0235:0336,0366,0330,0333,0333,0336,0331,0337,0367,0335,0335,0366,0331,0333,0333,0367,0335,0335,0337,",
    "0236:0336,0201,0336,0336,0330,0341,0331,0337,0337,0331,0337,",
    "0237:0336,0366,0330,0333,0333,0336,0331,0337,0367,0335,0335,0366,0331,0333,0333,0367,0335,0335,0337,",
    "01220:0333,0200,0336,0332,0337,0220,0336,0333,0337,0331,",
    "01221:0333,0200,0336,0332,0337,0336,0336,0336,0332,0337,0337,0337,0221,0331,0336,0333,0336,0336,0333,0337,0337,0337,",
    "01222:0333,0200,0336,0332,0337,0222,0336,0333,0337,0331,",
    "01223:0333,0200,0336,0332,0337,0330,0223,0331,0336,0333,0337,",
    "01224:0333,0200,0336,0330,0332,0336,0330,0337,0224,0331,0336,0333,0331,0333,0337,0337,",
    "01225:0333,0200,0336,0330,0332,0336,0330,0332,0337,0225,0336,0333,0330,0337,0337,0331,",
    "01226:0333,0200,0336,0330,0332,0336,0330,0332,0337,0226,0336,0333,0330,0337,0331,0331,0337,",
    "01227:0333,0200,0336,0330,0332,0336,0330,0332,0337,0227,0336,0333,0330,0337,0331,0331,0337,",
    "01230:0333,0200,0336,0330,0332,0336,0330,0332,0337,0230,0336,0333,0330,0337,0337,0331,",
    "01231:0333,0200,0336,0330,0332,0336,0330,0332,0337,0231,0331,0336,0331,0333,0337,0337,",
    "01232:0333,0200,0336,0330,0332,0336,0330,0332,0337,0232,0336,0333,0330,0337,0337,0331,",
    "01233:0333,0200,0336,0330,0332,0336,0330,0332,0337,0233,0333,0336,0333,0330,0337,0337,0331,",
    "01234:0333,0200,0336,0330,0332,0234,0342,0335,0342,0335,0342,0335,0342,0335,0331,0333,0337,",
    "01235:0333,0200,0336,0330,0332,0336,0332,0330,0337,0235,0331,0336,0333,0331,0337,0337,",
    "01236:0333,0200,0336,0330,0332,0236,0331,0333,0337,",
    "01237:0333,0200,0336,0330,0332,0336,0331,0332,0332,0337,0337,0237,0331,0333,",
    "0240:0220,0336,0331,0333,0336,0321,0335,0342,0335,0335,0342,0335,0330,0330,0332,0332,0337,0337,",
    "01240:0333,0200,0336,0330,0332,0210,0240,0211,0333,0331,0337,",
    "0241:0220,0336,0321,0343,0332,0350,0335,0336,0342,0334,0334,0342,0335,0304,0337,0333,0337,",
    "01241:0333,0200,0336,0332,0330,0210,0241,0211,0333,0331,0337,",
    "0242:0220,0321,0336,0343,0333,0336,0350,0335,0342,0334,0334,0342,0335,0337,0304,0332,0337,",
    "01242:0333,0200,0336,0330,0332,0210,0242,0211,0333,0331,0337,",
    "0243:0220,0336,0331,0332,0336,0321,0343,0332,0350,0334,0336,0342,0335,0335,0342,0337,0334,0334,0335,0304,0332,0330,0330,0337,0337,0333,",
    "01243:0333,0200,0336,0330,0332,0210,0243,0211,0333,0331,0337,",
    "0244:0220,0336,0331,0333,0336,0321,0343,0333,0350,0336,0335,0342,0334,0334,0342,0335,0337,0304,0333,0330,0330,0337,0337,0332,",
    "01244:0333,0200,0336,0330,0332,0210,0244,0211,0333,0331,0337,",
    "0245:0210,0332,0332,0362,0335,0203,0203,0203,0203,0334,0203,0363,0332,0332,0331,0211,",
    "01245:0333,0200,0336,0330,0332,0336,0245,0337,0333,0331,0337,",
    "0246:0210,0332,0332,0335,0306,0336,0330,0335,0335,0335,0321,0362,0203,0335,0335,0203,0364,0331,0350,0335,0337,0366,0333,0333,0333,0333,0334,0334,0334,0334,0367,0335,0336,0342,0334,0334,0342,0330,0330,0330,0330,0335,0335,0335,0304,0337,0211,",
    "01246:0333,0200,0336,0330,0332,0336,0246,",
    "0247:0330,0332,0336,0332,0336,0221,0333,0333,0333,0222,0333,0333,0333,0223,0333,0333,0333,0225,0333,0331,0331,0331,0332,0332,0332,0332,0332,0332,0332,0332,0332,0332,0332,0332,0333,0333,0226,0331,0331,0331,0333,0333,0333,0333,0333,0333,0333,0333,0333,0333,0333,0333,0333,0330,0333,0330,0330,0333,0330,0331,0332,0332,0332,0332,0332,0332,0332,0332,0332,0332,0332,0332,0227,0333,0333,0333,0230,0333,0331,0331,0331,0331,0332,0332,0332,0330,0332,0332,0332,0332,0332,0332,0333,0333,0231,0333,0333,0333,0232,0331,0333,0330,0333,0333,0233,0333,0333,0333,0234,0330,0330,0332,0330,0332,0332,0337,0337,",
    "01247:0333,0200,0336,0330,0332,0220,0336,0247,0337,0331,0333,0337,"
  ]
}</json>-->    <line x1="106" y1="101" x2="58" y2="101" style="stroke:#000000;stroke-width:6" />
<circle cx="46" cy = "101" r = "12.17948187500001" stroke = "#000000" stroke-width = "6" fill = "none" />
    <line x1="106" y1="199" x2="58" y2="199" style="stroke:#000000;stroke-width:6" />
<circle cx="46" cy = "199" r = "12.17948187500001" stroke = "#000000" stroke-width = "6" fill = "none" />
	<path d = "M106 101 L131 101 L143 101 " stroke = "#0000ff" stroke-width = "6" fill = "none" />    <line x1="143" y1="101" x2="143" y2="77" style="stroke:#0000ff;stroke-width:6" />
    <line x1="143" y1="101" x2="143" y2="126" style="stroke:#0000ff;stroke-width:6" />
    <line x1="167" y1="101" x2="167" y2="126" style="stroke:#0000ff;stroke-width:6" />
    <line x1="167" y1="101" x2="167" y2="77" style="stroke:#0000ff;stroke-width:6" />
	<path d = "M167 101 L179 101 L204 101 " stroke = "#0000ff" stroke-width = "6" fill = "none" />    <line x1="106" y1="199" x2="204" y2="199" style="stroke:#0000ff;stroke-width:6" />
    <line x1="204" y1="101" x2="207" y2="101" style="stroke:#008000;stroke-width:6" />
	<path d = "M207 101 L213 101 L219 91 L225 101 L231 112 L237 101 L243 91 L250 101 L256 112 L262 101 L268 91 L274 101 L280 112 L286 101 L298 101 L301 101 " stroke = "#008000" stroke-width = "6" fill = "none" />    <line x1="204" y1="199" x2="301" y2="199" style="stroke:#008000;stroke-width:6" />
    <line x1="301" y1="101" x2="399" y2="101" style="stroke:#800080;stroke-width:6" />
    <circle cx="350" cy = "101" r = "6.089740937500005" stroke = "#800080" stroke-width = "6" fill = "#800080" />
	<path d = "M350 101 L350 126 L350 138 " stroke = "#800080" stroke-width = "6" fill = "none" />    <line x1="350" y1="138" x2="374" y2="138" style="stroke:#800080;stroke-width:6" />
    <line x1="350" y1="138" x2="326" y2="138" style="stroke:#800080;stroke-width:6" />
    <line x1="350" y1="162" x2="326" y2="162" style="stroke:#800080;stroke-width:6" />
    <line x1="350" y1="162" x2="374" y2="162" style="stroke:#800080;stroke-width:6" />
	<path d = "M350 162 L350 174 L350 199 " stroke = "#800080" stroke-width = "6" fill = "none" />    <circle cx="350" cy = "199" r = "6.089740937500005" stroke = "#800080" stroke-width = "6" fill = "#800080" />
    <line x1="301" y1="199" x2="399" y2="199" style="stroke:#800080;stroke-width:6" />
    <line x1="399" y1="101" x2="496" y2="101" style="stroke:#800080;stroke-width:6" />
    <circle cx="447" cy = "101" r = "6.089740937500005" stroke = "#800080" stroke-width = "6" fill = "#800080" />
    <line x1="447" y1="101" x2="447" y2="104" style="stroke:#800080;stroke-width:6" />
	<path d = "M447 104 L447 110 L458 117 L447 123 L437 129 L447 135 L458 141 L447 147 L437 153 L447 159 L458 165 L447 171 L437 177 L447 183 L447 196 L447 199 " stroke = "#800080" stroke-width = "6" fill = "none" />    <circle cx="447" cy = "199" r = "6.089740937500005" stroke = "#800080" stroke-width = "6" fill = "#800080" />
    <line x1="399" y1="199" x2="496" y2="199" style="stroke:#800080;stroke-width:6" />
	<path d = "M496 101 L521 101 L533 101 " stroke = "#0000ff" stroke-width = "6" fill = "none" />    <line x1="533" y1="101" x2="533" y2="77" style="stroke:#0000ff;stroke-width:6" />
    <line x1="533" y1="101" x2="533" y2="126" style="stroke:#0000ff;stroke-width:6" />
    <line x1="557" y1="101" x2="557" y2="126" style="stroke:#0000ff;stroke-width:6" />
    <line x1="557" y1="101" x2="557" y2="77" style="stroke:#0000ff;stroke-width:6" />
	<path d = "M557 101 L569 101 L594 101 " stroke = "#0000ff" stroke-width = "6" fill = "none" />    <line x1="496" y1="199" x2="594" y2="199" style="stroke:#0000ff;stroke-width:6" />
    <line x1="594" y1="101" x2="642" y2="101" style="stroke:#0000ff;stroke-width:6" />
<circle cx="654" cy = "101" r = "12.17948187500001" stroke = "#0000ff" stroke-width = "6" fill = "none" />
    <line x1="594" y1="199" x2="642" y2="199" style="stroke:#0000ff;stroke-width:6" />
<circle cx="654" cy = "199" r = "12.17948187500001" stroke = "#0000ff" stroke-width = "6" fill = "none" />
    <circle cx="551" cy = "46" r = "3.0448704687500023" stroke = "#0000ff" stroke-width = "6" fill = "#0000ff" />
    <circle cx="551" cy = "40" r = "3.0448704687500023" stroke = "#0000ff" stroke-width = "6" fill = "#0000ff" />
    <circle cx="551" cy = "34" r = "3.0448704687500023" stroke = "#0000ff" stroke-width = "6" fill = "#0000ff" />
    <circle cx="551" cy = "28" r = "3.0448704687500023" stroke = "#0000ff" stroke-width = "6" fill = "#0000ff" />
    <circle cx="551" cy = "22" r = "3.0448704687500023" stroke = "#0000ff" stroke-width = "6" fill = "#0000ff" />
    <circle cx="557" cy = "16" r = "3.0448704687500023" stroke = "#0000ff" stroke-width = "6" fill = "#0000ff" />
    <circle cx="563" cy = "16" r = "3.0448704687500023" stroke = "#0000ff" stroke-width = "6" fill = "#0000ff" />
    <circle cx="569" cy = "16" r = "3.0448704687500023" stroke = "#0000ff" stroke-width = "6" fill = "#0000ff" />
    <circle cx="575" cy = "22" r = "3.0448704687500023" stroke = "#0000ff" stroke-width = "6" fill = "#0000ff" />
    <circle cx="575" cy = "46" r = "3.0448704687500023" stroke = "#0000ff" stroke-width = "6" fill = "#0000ff" />
    <circle cx="569" cy = "53" r = "3.0448704687500023" stroke = "#0000ff" stroke-width = "6" fill = "#0000ff" />
    <circle cx="563" cy = "53" r = "3.0448704687500023" stroke = "#0000ff" stroke-width = "6" fill = "#0000ff" />
    <circle cx="557" cy = "53" r = "3.0448704687500023" stroke = "#0000ff" stroke-width = "6" fill = "#0000ff" />
    <circle cx="587" cy = "46" r = "3.0448704687500023" stroke = "#0000ff" stroke-width = "6" fill = "#0000ff" />
    <circle cx="587" cy = "40" r = "3.0448704687500023" stroke = "#0000ff" stroke-width = "6" fill = "#0000ff" />
    <circle cx="587" cy = "34" r = "3.0448704687500023" stroke = "#0000ff" stroke-width = "6" fill = "#0000ff" />
    <circle cx="594" cy = "28" r = "3.0448704687500023" stroke = "#0000ff" stroke-width = "6" fill = "#0000ff" />
    <circle cx="600" cy = "28" r = "3.0448704687500023" stroke = "#0000ff" stroke-width = "6" fill = "#0000ff" />
    <circle cx="606" cy = "28" r = "3.0448704687500023" stroke = "#0000ff" stroke-width = "6" fill = "#0000ff" />
    <circle cx="612" cy = "34" r = "3.0448704687500023" stroke = "#0000ff" stroke-width = "6" fill = "#0000ff" />
    <circle cx="612" cy = "40" r = "3.0448704687500023" stroke = "#0000ff" stroke-width = "6" fill = "#0000ff" />
    <circle cx="612" cy = "46" r = "3.0448704687500023" stroke = "#0000ff" stroke-width = "6" fill = "#0000ff" />
    <circle cx="606" cy = "53" r = "3.0448704687500023" stroke = "#0000ff" stroke-width = "6" fill = "#0000ff" />
    <circle cx="600" cy = "53" r = "3.0448704687500023" stroke = "#0000ff" stroke-width = "6" fill = "#0000ff" />
    <circle cx="594" cy = "53" r = "3.0448704687500023" stroke = "#0000ff" stroke-width = "6" fill = "#0000ff" />
    <circle cx="624" cy = "46" r = "3.0448704687500023" stroke = "#0000ff" stroke-width = "6" fill = "#0000ff" />
    <circle cx="624" cy = "40" r = "3.0448704687500023" stroke = "#0000ff" stroke-width = "6" fill = "#0000ff" />
    <circle cx="624" cy = "34" r = "3.0448704687500023" stroke = "#0000ff" stroke-width = "6" fill = "#0000ff" />
    <circle cx="624" cy = "28" r = "3.0448704687500023" stroke = "#0000ff" stroke-width = "6" fill = "#0000ff" />
    <circle cx="630" cy = "53" r = "3.0448704687500023" stroke = "#0000ff" stroke-width = "6" fill = "#0000ff" />
    <circle cx="636" cy = "53" r = "3.0448704687500023" stroke = "#0000ff" stroke-width = "6" fill = "#0000ff" />
    <circle cx="642" cy = "46" r = "3.0448704687500023" stroke = "#0000ff" stroke-width = "6" fill = "#0000ff" />
    <circle cx="648" cy = "46" r = "3.0448704687500023" stroke = "#0000ff" stroke-width = "6" fill = "#0000ff" />
    <circle cx="648" cy = "40" r = "3.0448704687500023" stroke = "#0000ff" stroke-width = "6" fill = "#0000ff" />
    <circle cx="648" cy = "34" r = "3.0448704687500023" stroke = "#0000ff" stroke-width = "6" fill = "#0000ff" />
    <circle cx="648" cy = "28" r = "3.0448704687500023" stroke = "#0000ff" stroke-width = "6" fill = "#0000ff" />
    <circle cx="648" cy = "53" r = "3.0448704687500023" stroke = "#0000ff" stroke-width = "6" fill = "#0000ff" />
    <circle cx="667" cy = "46" r = "3.0448704687500023" stroke = "#0000ff" stroke-width = "6" fill = "#0000ff" />
    <circle cx="667" cy = "40" r = "3.0448704687500023" stroke = "#0000ff" stroke-width = "6" fill = "#0000ff" />
    <circle cx="667" cy = "34" r = "3.0448704687500023" stroke = "#0000ff" stroke-width = "6" fill = "#0000ff" />
    <circle cx="667" cy = "28" r = "3.0448704687500023" stroke = "#0000ff" stroke-width = "6" fill = "#0000ff" />
    <circle cx="667" cy = "22" r = "3.0448704687500023" stroke = "#0000ff" stroke-width = "6" fill = "#0000ff" />
    <circle cx="667" cy = "16" r = "3.0448704687500023" stroke = "#0000ff" stroke-width = "6" fill = "#0000ff" />
    <circle cx="661" cy = "22" r = "3.0448704687500023" stroke = "#0000ff" stroke-width = "6" fill = "#0000ff" />
    <circle cx="673" cy = "22" r = "3.0448704687500023" stroke = "#0000ff" stroke-width = "6" fill = "#0000ff" />
    <circle cx="673" cy = "53" r = "3.0448704687500023" stroke = "#0000ff" stroke-width = "6" fill = "#0000ff" />
    <circle cx="679" cy = "53" r = "3.0448704687500023" stroke = "#0000ff" stroke-width = "6" fill = "#0000ff" />
    <circle cx="685" cy = "46" r = "3.0448704687500023" stroke = "#0000ff" stroke-width = "6" fill = "#0000ff" />
    <circle cx="64" cy = "46" r = "3.0448704687500023" stroke = "#0000ff" stroke-width = "6" fill = "#0000ff" />
    <circle cx="64" cy = "40" r = "3.0448704687500023" stroke = "#0000ff" stroke-width = "6" fill = "#0000ff" />
    <circle cx="64" cy = "34" r = "3.0448704687500023" stroke = "#0000ff" stroke-width = "6" fill = "#0000ff" />
    <circle cx="64" cy = "28" r = "3.0448704687500023" stroke = "#0000ff" stroke-width = "6" fill = "#0000ff" />
    <circle cx="64" cy = "22" r = "3.0448704687500023" stroke = "#0000ff" stroke-width = "6" fill = "#0000ff" />
    <circle cx="70" cy = "16" r = "3.0448704687500023" stroke = "#0000ff" stroke-width = "6" fill = "#0000ff" />
    <circle cx="76" cy = "16" r = "3.0448704687500023" stroke = "#0000ff" stroke-width = "6" fill = "#0000ff" />
    <circle cx="82" cy = "16" r = "3.0448704687500023" stroke = "#0000ff" stroke-width = "6" fill = "#0000ff" />
    <circle cx="88" cy = "22" r = "3.0448704687500023" stroke = "#0000ff" stroke-width = "6" fill = "#0000ff" />
    <circle cx="88" cy = "46" r = "3.0448704687500023" stroke = "#0000ff" stroke-width = "6" fill = "#0000ff" />
    <circle cx="82" cy = "53" r = "3.0448704687500023" stroke = "#0000ff" stroke-width = "6" fill = "#0000ff" />
    <circle cx="76" cy = "53" r = "3.0448704687500023" stroke = "#0000ff" stroke-width = "6" fill = "#0000ff" />
    <circle cx="70" cy = "53" r = "3.0448704687500023" stroke = "#0000ff" stroke-width = "6" fill = "#0000ff" />
    <circle cx="106" cy = "53" r = "3.0448704687500023" stroke = "#0000ff" stroke-width = "6" fill = "#0000ff" />
    <circle cx="113" cy = "53" r = "3.0448704687500023" stroke = "#0000ff" stroke-width = "6" fill = "#0000ff" />
    <circle cx="119" cy = "53" r = "3.0448704687500023" stroke = "#0000ff" stroke-width = "6" fill = "#0000ff" />
    <circle cx="113" cy = "46" r = "3.0448704687500023" stroke = "#0000ff" stroke-width = "6" fill = "#0000ff" />
    <circle cx="113" cy = "40" r = "3.0448704687500023" stroke = "#0000ff" stroke-width = "6" fill = "#0000ff" />
    <circle cx="113" cy = "34" r = "3.0448704687500023" stroke = "#0000ff" stroke-width = "6" fill = "#0000ff" />
    <circle cx="113" cy = "28" r = "3.0448704687500023" stroke = "#0000ff" stroke-width = "6" fill = "#0000ff" />
    <circle cx="106" cy = "28" r = "3.0448704687500023" stroke = "#0000ff" stroke-width = "6" fill = "#0000ff" />
    <circle cx="113" cy = "16" r = "3.0448704687500023" stroke = "#0000ff" stroke-width = "6" fill = "#0000ff" />
    <circle cx="137" cy = "53" r = "3.0448704687500023" stroke = "#0000ff" stroke-width = "6" fill = "#0000ff" />
    <circle cx="137" cy = "46" r = "3.0448704687500023" stroke = "#0000ff" stroke-width = "6" fill = "#0000ff" />
    <circle cx="137" cy = "40" r = "3.0448704687500023" stroke = "#0000ff" stroke-width = "6" fill = "#0000ff" />
    <circle cx="137" cy = "34" r = "3.0448704687500023" stroke = "#0000ff" stroke-width = "6" fill = "#0000ff" />
    <circle cx="137" cy = "28" r = "3.0448704687500023" stroke = "#0000ff" stroke-width = "6" fill = "#0000ff" />
    <circle cx="143" cy = "34" r = "3.0448704687500023" stroke = "#0000ff" stroke-width = "6" fill = "#0000ff" />
    <circle cx="149" cy = "28" r = "3.0448704687500023" stroke = "#0000ff" stroke-width = "6" fill = "#0000ff" />
    <circle cx="155" cy = "28" r = "3.0448704687500023" stroke = "#0000ff" stroke-width = "6" fill = "#0000ff" />
    <circle cx="161" cy = "34" r = "3.0448704687500023" stroke = "#0000ff" stroke-width = "6" fill = "#0000ff" />
    <circle cx="161" cy = "40" r = "3.0448704687500023" stroke = "#0000ff" stroke-width = "6" fill = "#0000ff" />
    <circle cx="161" cy = "46" r = "3.0448704687500023" stroke = "#0000ff" stroke-width = "6" fill = "#0000ff" />
    <circle cx="161" cy = "53" r = "3.0448704687500023" stroke = "#0000ff" stroke-width = "6" fill = "#0000ff" />
    <circle cx="222" cy = "53" r = "3.0448704687500023" stroke = "#008000" stroke-width = "6" fill = "#008000" />
    <circle cx="222" cy = "46" r = "3.0448704687500023" stroke = "#008000" stroke-width = "6" fill = "#008000" />
    <circle cx="222" cy = "40" r = "3.0448704687500023" stroke = "#008000" stroke-width = "6" fill = "#008000" />
    <circle cx="222" cy = "34" r = "3.0448704687500023" stroke = "#008000" stroke-width = "6" fill = "#008000" />
    <circle cx="222" cy = "28" r = "3.0448704687500023" stroke = "#008000" stroke-width = "6" fill = "#008000" />
    <circle cx="222" cy = "22" r = "3.0448704687500023" stroke = "#008000" stroke-width = "6" fill = "#008000" />
    <circle cx="222" cy = "16" r = "3.0448704687500023" stroke = "#008000" stroke-width = "6" fill = "#008000" />
    <circle cx="228" cy = "16" r = "3.0448704687500023" stroke = "#008000" stroke-width = "6" fill = "#008000" />
    <circle cx="234" cy = "16" r = "3.0448704687500023" stroke = "#008000" stroke-width = "6" fill = "#008000" />
    <circle cx="240" cy = "16" r = "3.0448704687500023" stroke = "#008000" stroke-width = "6" fill = "#008000" />
    <circle cx="246" cy = "22" r = "3.0448704687500023" stroke = "#008000" stroke-width = "6" fill = "#008000" />
    <circle cx="246" cy = "28" r = "3.0448704687500023" stroke = "#008000" stroke-width = "6" fill = "#008000" />
    <circle cx="240" cy = "34" r = "3.0448704687500023" stroke = "#008000" stroke-width = "6" fill = "#008000" />
    <circle cx="234" cy = "34" r = "3.0448704687500023" stroke = "#008000" stroke-width = "6" fill = "#008000" />
    <circle cx="228" cy = "34" r = "3.0448704687500023" stroke = "#008000" stroke-width = "6" fill = "#008000" />
    <circle cx="234" cy = "40" r = "3.0448704687500023" stroke = "#008000" stroke-width = "6" fill = "#008000" />
    <circle cx="240" cy = "46" r = "3.0448704687500023" stroke = "#008000" stroke-width = "6" fill = "#008000" />
    <circle cx="246" cy = "53" r = "3.0448704687500023" stroke = "#008000" stroke-width = "6" fill = "#008000" />
    <circle cx="259" cy = "53" r = "3.0448704687500023" stroke = "#008000" stroke-width = "6" fill = "#008000" />
    <circle cx="259" cy = "46" r = "3.0448704687500023" stroke = "#008000" stroke-width = "6" fill = "#008000" />
    <circle cx="259" cy = "40" r = "3.0448704687500023" stroke = "#008000" stroke-width = "6" fill = "#008000" />
    <circle cx="259" cy = "34" r = "3.0448704687500023" stroke = "#008000" stroke-width = "6" fill = "#008000" />
    <circle cx="259" cy = "28" r = "3.0448704687500023" stroke = "#008000" stroke-width = "6" fill = "#008000" />
    <circle cx="259" cy = "22" r = "3.0448704687500023" stroke = "#008000" stroke-width = "6" fill = "#008000" />
    <circle cx="259" cy = "16" r = "3.0448704687500023" stroke = "#008000" stroke-width = "6" fill = "#008000" />
    <circle cx="265" cy = "34" r = "3.0448704687500023" stroke = "#008000" stroke-width = "6" fill = "#008000" />
    <circle cx="271" cy = "28" r = "3.0448704687500023" stroke = "#008000" stroke-width = "6" fill = "#008000" />
    <circle cx="277" cy = "28" r = "3.0448704687500023" stroke = "#008000" stroke-width = "6" fill = "#008000" />
    <circle cx="283" cy = "34" r = "3.0448704687500023" stroke = "#008000" stroke-width = "6" fill = "#008000" />
    <circle cx="283" cy = "40" r = "3.0448704687500023" stroke = "#008000" stroke-width = "6" fill = "#008000" />
    <circle cx="283" cy = "46" r = "3.0448704687500023" stroke = "#008000" stroke-width = "6" fill = "#008000" />
    <circle cx="277" cy = "53" r = "3.0448704687500023" stroke = "#008000" stroke-width = "6" fill = "#008000" />
    <circle cx="271" cy = "53" r = "3.0448704687500023" stroke = "#008000" stroke-width = "6" fill = "#008000" />
    <circle cx="265" cy = "53" r = "3.0448704687500023" stroke = "#008000" stroke-width = "6" fill = "#008000" />
    <circle cx="301" cy = "53" r = "3.0448704687500023" stroke = "#008000" stroke-width = "6" fill = "#008000" />
    <circle cx="307" cy = "53" r = "3.0448704687500023" stroke = "#008000" stroke-width = "6" fill = "#008000" />
    <circle cx="313" cy = "53" r = "3.0448704687500023" stroke = "#008000" stroke-width = "6" fill = "#008000" />
    <circle cx="307" cy = "46" r = "3.0448704687500023" stroke = "#008000" stroke-width = "6" fill = "#008000" />
    <circle cx="307" cy = "40" r = "3.0448704687500023" stroke = "#008000" stroke-width = "6" fill = "#008000" />
    <circle cx="307" cy = "34" r = "3.0448704687500023" stroke = "#008000" stroke-width = "6" fill = "#008000" />
    <circle cx="307" cy = "28" r = "3.0448704687500023" stroke = "#008000" stroke-width = "6" fill = "#008000" />
    <circle cx="301" cy = "28" r = "3.0448704687500023" stroke = "#008000" stroke-width = "6" fill = "#008000" />
    <circle cx="307" cy = "16" r = "3.0448704687500023" stroke = "#008000" stroke-width = "6" fill = "#008000" />
    <circle cx="332" cy = "46" r = "3.0448704687500023" stroke = "#008000" stroke-width = "6" fill = "#008000" />
    <circle cx="338" cy = "40" r = "3.0448704687500023" stroke = "#008000" stroke-width = "6" fill = "#008000" />
    <circle cx="344" cy = "40" r = "3.0448704687500023" stroke = "#008000" stroke-width = "6" fill = "#008000" />
    <circle cx="350" cy = "40" r = "3.0448704687500023" stroke = "#008000" stroke-width = "6" fill = "#008000" />
    <circle cx="356" cy = "40" r = "3.0448704687500023" stroke = "#008000" stroke-width = "6" fill = "#008000" />
    <circle cx="356" cy = "34" r = "3.0448704687500023" stroke = "#008000" stroke-width = "6" fill = "#008000" />
    <circle cx="350" cy = "28" r = "3.0448704687500023" stroke = "#008000" stroke-width = "6" fill = "#008000" />
    <circle cx="344" cy = "28" r = "3.0448704687500023" stroke = "#008000" stroke-width = "6" fill = "#008000" />
    <circle cx="338" cy = "28" r = "3.0448704687500023" stroke = "#008000" stroke-width = "6" fill = "#008000" />
    <circle cx="356" cy = "46" r = "3.0448704687500023" stroke = "#008000" stroke-width = "6" fill = "#008000" />
    <circle cx="356" cy = "53" r = "3.0448704687500023" stroke = "#008000" stroke-width = "6" fill = "#008000" />
    <circle cx="350" cy = "53" r = "3.0448704687500023" stroke = "#008000" stroke-width = "6" fill = "#008000" />
    <circle cx="344" cy = "53" r = "3.0448704687500023" stroke = "#008000" stroke-width = "6" fill = "#008000" />
    <circle cx="338" cy = "53" r = "3.0448704687500023" stroke = "#008000" stroke-width = "6" fill = "#008000" />
    <circle cx="368" cy = "53" r = "3.0448704687500023" stroke = "#008000" stroke-width = "6" fill = "#008000" />
    <circle cx="374" cy = "53" r = "3.0448704687500023" stroke = "#008000" stroke-width = "6" fill = "#008000" />
    <circle cx="380" cy = "53" r = "3.0448704687500023" stroke = "#008000" stroke-width = "6" fill = "#008000" />
    <circle cx="387" cy = "53" r = "3.0448704687500023" stroke = "#008000" stroke-width = "6" fill = "#008000" />
    <circle cx="393" cy = "46" r = "3.0448704687500023" stroke = "#008000" stroke-width = "6" fill = "#008000" />
    <circle cx="387" cy = "40" r = "3.0448704687500023" stroke = "#008000" stroke-width = "6" fill = "#008000" />
    <circle cx="380" cy = "40" r = "3.0448704687500023" stroke = "#008000" stroke-width = "6" fill = "#008000" />
    <circle cx="374" cy = "40" r = "3.0448704687500023" stroke = "#008000" stroke-width = "6" fill = "#008000" />
    <circle cx="368" cy = "34" r = "3.0448704687500023" stroke = "#008000" stroke-width = "6" fill = "#008000" />
    <circle cx="374" cy = "28" r = "3.0448704687500023" stroke = "#008000" stroke-width = "6" fill = "#008000" />
    <circle cx="380" cy = "28" r = "3.0448704687500023" stroke = "#008000" stroke-width = "6" fill = "#008000" />
    <circle cx="387" cy = "28" r = "3.0448704687500023" stroke = "#008000" stroke-width = "6" fill = "#008000" />
    <circle cx="393" cy = "28" r = "3.0448704687500023" stroke = "#008000" stroke-width = "6" fill = "#008000" />
    <circle cx="113" cy = "266" r = "3.0448704687500023" stroke = "#800080" stroke-width = "6" fill = "#800080" />
    <circle cx="113" cy = "260" r = "3.0448704687500023" stroke = "#800080" stroke-width = "6" fill = "#800080" />
    <circle cx="113" cy = "254" r = "3.0448704687500023" stroke = "#800080" stroke-width = "6" fill = "#800080" />
    <circle cx="113" cy = "247" r = "3.0448704687500023" stroke = "#800080" stroke-width = "6" fill = "#800080" />
    <circle cx="113" cy = "241" r = "3.0448704687500023" stroke = "#800080" stroke-width = "6" fill = "#800080" />
    <circle cx="119" cy = "235" r = "3.0448704687500023" stroke = "#800080" stroke-width = "6" fill = "#800080" />
    <circle cx="125" cy = "235" r = "3.0448704687500023" stroke = "#800080" stroke-width = "6" fill = "#800080" />
    <circle cx="131" cy = "235" r = "3.0448704687500023" stroke = "#800080" stroke-width = "6" fill = "#800080" />
    <circle cx="137" cy = "241" r = "3.0448704687500023" stroke = "#800080" stroke-width = "6" fill = "#800080" />
    <circle cx="137" cy = "266" r = "3.0448704687500023" stroke = "#800080" stroke-width = "6" fill = "#800080" />
    <circle cx="131" cy = "272" r = "3.0448704687500023" stroke = "#800080" stroke-width = "6" fill = "#800080" />
    <circle cx="125" cy = "272" r = "3.0448704687500023" stroke = "#800080" stroke-width = "6" fill = "#800080" />
    <circle cx="119" cy = "272" r = "3.0448704687500023" stroke = "#800080" stroke-width = "6" fill = "#800080" />
    <circle cx="149" cy = "272" r = "3.0448704687500023" stroke = "#800080" stroke-width = "6" fill = "#800080" />
    <circle cx="155" cy = "272" r = "3.0448704687500023" stroke = "#800080" stroke-width = "6" fill = "#800080" />
    <circle cx="161" cy = "272" r = "3.0448704687500023" stroke = "#800080" stroke-width = "6" fill = "#800080" />
    <circle cx="167" cy = "272" r = "3.0448704687500023" stroke = "#800080" stroke-width = "6" fill = "#800080" />
    <circle cx="173" cy = "266" r = "3.0448704687500023" stroke = "#800080" stroke-width = "6" fill = "#800080" />
    <circle cx="167" cy = "260" r = "3.0448704687500023" stroke = "#800080" stroke-width = "6" fill = "#800080" />
    <circle cx="161" cy = "260" r = "3.0448704687500023" stroke = "#800080" stroke-width = "6" fill = "#800080" />
    <circle cx="155" cy = "260" r = "3.0448704687500023" stroke = "#800080" stroke-width = "6" fill = "#800080" />
    <circle cx="149" cy = "254" r = "3.0448704687500023" stroke = "#800080" stroke-width = "6" fill = "#800080" />
    <circle cx="155" cy = "247" r = "3.0448704687500023" stroke = "#800080" stroke-width = "6" fill = "#800080" />
    <circle cx="161" cy = "247" r = "3.0448704687500023" stroke = "#800080" stroke-width = "6" fill = "#800080" />
    <circle cx="167" cy = "247" r = "3.0448704687500023" stroke = "#800080" stroke-width = "6" fill = "#800080" />
    <circle cx="173" cy = "247" r = "3.0448704687500023" stroke = "#800080" stroke-width = "6" fill = "#800080" />
    <circle cx="192" cy = "272" r = "3.0448704687500023" stroke = "#800080" stroke-width = "6" fill = "#800080" />
    <circle cx="198" cy = "272" r = "3.0448704687500023" stroke = "#800080" stroke-width = "6" fill = "#800080" />
    <circle cx="204" cy = "272" r = "3.0448704687500023" stroke = "#800080" stroke-width = "6" fill = "#800080" />
    <circle cx="198" cy = "266" r = "3.0448704687500023" stroke = "#800080" stroke-width = "6" fill = "#800080" />
    <circle cx="198" cy = "260" r = "3.0448704687500023" stroke = "#800080" stroke-width = "6" fill = "#800080" />
    <circle cx="198" cy = "254" r = "3.0448704687500023" stroke = "#800080" stroke-width = "6" fill = "#800080" />
    <circle cx="198" cy = "247" r = "3.0448704687500023" stroke = "#800080" stroke-width = "6" fill = "#800080" />
    <circle cx="198" cy = "241" r = "3.0448704687500023" stroke = "#800080" stroke-width = "6" fill = "#800080" />
    <circle cx="198" cy = "235" r = "3.0448704687500023" stroke = "#800080" stroke-width = "6" fill = "#800080" />
    <circle cx="192" cy = "235" r = "3.0448704687500023" stroke = "#800080" stroke-width = "6" fill = "#800080" />
    <circle cx="228" cy = "272" r = "3.0448704687500023" stroke = "#800080" stroke-width = "6" fill = "#800080" />
    <circle cx="234" cy = "272" r = "3.0448704687500023" stroke = "#800080" stroke-width = "6" fill = "#800080" />
    <circle cx="240" cy = "272" r = "3.0448704687500023" stroke = "#800080" stroke-width = "6" fill = "#800080" />
    <circle cx="234" cy = "266" r = "3.0448704687500023" stroke = "#800080" stroke-width = "6" fill = "#800080" />
    <circle cx="234" cy = "260" r = "3.0448704687500023" stroke = "#800080" stroke-width = "6" fill = "#800080" />
    <circle cx="234" cy = "254" r = "3.0448704687500023" stroke = "#800080" stroke-width = "6" fill = "#800080" />
    <circle cx="234" cy = "247" r = "3.0448704687500023" stroke = "#800080" stroke-width = "6" fill = "#800080" />
    <circle cx="228" cy = "247" r = "3.0448704687500023" stroke = "#800080" stroke-width = "6" fill = "#800080" />
    <circle cx="234" cy = "235" r = "3.0448704687500023" stroke = "#800080" stroke-width = "6" fill = "#800080" />
    <circle cx="259" cy = "272" r = "3.0448704687500023" stroke = "#800080" stroke-width = "6" fill = "#800080" />
    <circle cx="259" cy = "266" r = "3.0448704687500023" stroke = "#800080" stroke-width = "6" fill = "#800080" />
    <circle cx="259" cy = "260" r = "3.0448704687500023" stroke = "#800080" stroke-width = "6" fill = "#800080" />
    <circle cx="259" cy = "254" r = "3.0448704687500023" stroke = "#800080" stroke-width = "6" fill = "#800080" />
    <circle cx="259" cy = "247" r = "3.0448704687500023" stroke = "#800080" stroke-width = "6" fill = "#800080" />
    <circle cx="265" cy = "247" r = "3.0448704687500023" stroke = "#800080" stroke-width = "6" fill = "#800080" />
    <circle cx="271" cy = "254" r = "3.0448704687500023" stroke = "#800080" stroke-width = "6" fill = "#800080" />
    <circle cx="271" cy = "260" r = "3.0448704687500023" stroke = "#800080" stroke-width = "6" fill = "#800080" />
    <circle cx="271" cy = "266" r = "3.0448704687500023" stroke = "#800080" stroke-width = "6" fill = "#800080" />
    <circle cx="271" cy = "272" r = "3.0448704687500023" stroke = "#800080" stroke-width = "6" fill = "#800080" />
    <circle cx="277" cy = "247" r = "3.0448704687500023" stroke = "#800080" stroke-width = "6" fill = "#800080" />
    <circle cx="283" cy = "254" r = "3.0448704687500023" stroke = "#800080" stroke-width = "6" fill = "#800080" />
    <circle cx="283" cy = "260" r = "3.0448704687500023" stroke = "#800080" stroke-width = "6" fill = "#800080" />
    <circle cx="283" cy = "266" r = "3.0448704687500023" stroke = "#800080" stroke-width = "6" fill = "#800080" />
    <circle cx="283" cy = "272" r = "3.0448704687500023" stroke = "#800080" stroke-width = "6" fill = "#800080" />
    <circle cx="295" cy = "266" r = "3.0448704687500023" stroke = "#800080" stroke-width = "6" fill = "#800080" />
    <circle cx="295" cy = "260" r = "3.0448704687500023" stroke = "#800080" stroke-width = "6" fill = "#800080" />
    <circle cx="295" cy = "254" r = "3.0448704687500023" stroke = "#800080" stroke-width = "6" fill = "#800080" />
    <circle cx="301" cy = "247" r = "3.0448704687500023" stroke = "#800080" stroke-width = "6" fill = "#800080" />
    <circle cx="307" cy = "247" r = "3.0448704687500023" stroke = "#800080" stroke-width = "6" fill = "#800080" />
    <circle cx="313" cy = "247" r = "3.0448704687500023" stroke = "#800080" stroke-width = "6" fill = "#800080" />
    <circle cx="320" cy = "254" r = "3.0448704687500023" stroke = "#800080" stroke-width = "6" fill = "#800080" />
    <circle cx="320" cy = "260" r = "3.0448704687500023" stroke = "#800080" stroke-width = "6" fill = "#800080" />
    <circle cx="313" cy = "260" r = "3.0448704687500023" stroke = "#800080" stroke-width = "6" fill = "#800080" />
    <circle cx="307" cy = "260" r = "3.0448704687500023" stroke = "#800080" stroke-width = "6" fill = "#800080" />
    <circle cx="301" cy = "260" r = "3.0448704687500023" stroke = "#800080" stroke-width = "6" fill = "#800080" />
    <circle cx="301" cy = "272" r = "3.0448704687500023" stroke = "#800080" stroke-width = "6" fill = "#800080" />
    <circle cx="307" cy = "272" r = "3.0448704687500023" stroke = "#800080" stroke-width = "6" fill = "#800080" />
    <circle cx="313" cy = "272" r = "3.0448704687500023" stroke = "#800080" stroke-width = "6" fill = "#800080" />
    <circle cx="429" cy = "272" r = "3.0448704687500023" stroke = "#800080" stroke-width = "6" fill = "#800080" />
    <circle cx="429" cy = "266" r = "3.0448704687500023" stroke = "#800080" stroke-width = "6" fill = "#800080" />
    <circle cx="429" cy = "260" r = "3.0448704687500023" stroke = "#800080" stroke-width = "6" fill = "#800080" />
    <circle cx="429" cy = "254" r = "3.0448704687500023" stroke = "#800080" stroke-width = "6" fill = "#800080" />
    <circle cx="429" cy = "247" r = "3.0448704687500023" stroke = "#800080" stroke-width = "6" fill = "#800080" />
    <circle cx="429" cy = "241" r = "3.0448704687500023" stroke = "#800080" stroke-width = "6" fill = "#800080" />
    <circle cx="429" cy = "235" r = "3.0448704687500023" stroke = "#800080" stroke-width = "6" fill = "#800080" />
    <circle cx="435" cy = "235" r = "3.0448704687500023" stroke = "#800080" stroke-width = "6" fill = "#800080" />
    <circle cx="441" cy = "235" r = "3.0448704687500023" stroke = "#800080" stroke-width = "6" fill = "#800080" />
    <circle cx="447" cy = "235" r = "3.0448704687500023" stroke = "#800080" stroke-width = "6" fill = "#800080" />
    <circle cx="454" cy = "241" r = "3.0448704687500023" stroke = "#800080" stroke-width = "6" fill = "#800080" />
    <circle cx="454" cy = "247" r = "3.0448704687500023" stroke = "#800080" stroke-width = "6" fill = "#800080" />
    <circle cx="447" cy = "254" r = "3.0448704687500023" stroke = "#800080" stroke-width = "6" fill = "#800080" />
    <circle cx="441" cy = "254" r = "3.0448704687500023" stroke = "#800080" stroke-width = "6" fill = "#800080" />
    <circle cx="435" cy = "254" r = "3.0448704687500023" stroke = "#800080" stroke-width = "6" fill = "#800080" />
    <circle cx="441" cy = "260" r = "3.0448704687500023" stroke = "#800080" stroke-width = "6" fill = "#800080" />
    <circle cx="447" cy = "266" r = "3.0448704687500023" stroke = "#800080" stroke-width = "6" fill = "#800080" />
    <circle cx="454" cy = "272" r = "3.0448704687500023" stroke = "#800080" stroke-width = "6" fill = "#800080" />
    <circle cx="466" cy = "272" r = "3.0448704687500023" stroke = "#800080" stroke-width = "6" fill = "#800080" />
    <circle cx="472" cy = "272" r = "3.0448704687500023" stroke = "#800080" stroke-width = "6" fill = "#800080" />
    <circle cx="478" cy = "272" r = "3.0448704687500023" stroke = "#800080" stroke-width = "6" fill = "#800080" />
    <circle cx="484" cy = "272" r = "3.0448704687500023" stroke = "#800080" stroke-width = "6" fill = "#800080" />
    <circle cx="490" cy = "266" r = "3.0448704687500023" stroke = "#800080" stroke-width = "6" fill = "#800080" />
    <circle cx="484" cy = "260" r = "3.0448704687500023" stroke = "#800080" stroke-width = "6" fill = "#800080" />
    <circle cx="478" cy = "260" r = "3.0448704687500023" stroke = "#800080" stroke-width = "6" fill = "#800080" />
    <circle cx="472" cy = "260" r = "3.0448704687500023" stroke = "#800080" stroke-width = "6" fill = "#800080" />
    <circle cx="466" cy = "254" r = "3.0448704687500023" stroke = "#800080" stroke-width = "6" fill = "#800080" />
    <circle cx="472" cy = "247" r = "3.0448704687500023" stroke = "#800080" stroke-width = "6" fill = "#800080" />
    <circle cx="478" cy = "247" r = "3.0448704687500023" stroke = "#800080" stroke-width = "6" fill = "#800080" />
    <circle cx="484" cy = "247" r = "3.0448704687500023" stroke = "#800080" stroke-width = "6" fill = "#800080" />
    <circle cx="490" cy = "247" r = "3.0448704687500023" stroke = "#800080" stroke-width = "6" fill = "#800080" />
    <circle cx="508" cy = "272" r = "3.0448704687500023" stroke = "#800080" stroke-width = "6" fill = "#800080" />
    <circle cx="514" cy = "272" r = "3.0448704687500023" stroke = "#800080" stroke-width = "6" fill = "#800080" />
    <circle cx="521" cy = "272" r = "3.0448704687500023" stroke = "#800080" stroke-width = "6" fill = "#800080" />
    <circle cx="514" cy = "266" r = "3.0448704687500023" stroke = "#800080" stroke-width = "6" fill = "#800080" />
    <circle cx="514" cy = "260" r = "3.0448704687500023" stroke = "#800080" stroke-width = "6" fill = "#800080" />
    <circle cx="514" cy = "254" r = "3.0448704687500023" stroke = "#800080" stroke-width = "6" fill = "#800080" />
    <circle cx="514" cy = "247" r = "3.0448704687500023" stroke = "#800080" stroke-width = "6" fill = "#800080" />
    <circle cx="514" cy = "241" r = "3.0448704687500023" stroke = "#800080" stroke-width = "6" fill = "#800080" />
    <circle cx="514" cy = "235" r = "3.0448704687500023" stroke = "#800080" stroke-width = "6" fill = "#800080" />
    <circle cx="508" cy = "235" r = "3.0448704687500023" stroke = "#800080" stroke-width = "6" fill = "#800080" />
    <circle cx="545" cy = "272" r = "3.0448704687500023" stroke = "#800080" stroke-width = "6" fill = "#800080" />
    <circle cx="551" cy = "272" r = "3.0448704687500023" stroke = "#800080" stroke-width = "6" fill = "#800080" />
    <circle cx="557" cy = "272" r = "3.0448704687500023" stroke = "#800080" stroke-width = "6" fill = "#800080" />
    <circle cx="551" cy = "266" r = "3.0448704687500023" stroke = "#800080" stroke-width = "6" fill = "#800080" />
    <circle cx="551" cy = "260" r = "3.0448704687500023" stroke = "#800080" stroke-width = "6" fill = "#800080" />
    <circle cx="551" cy = "254" r = "3.0448704687500023" stroke = "#800080" stroke-width = "6" fill = "#800080" />
    <circle cx="551" cy = "247" r = "3.0448704687500023" stroke = "#800080" stroke-width = "6" fill = "#800080" />
    <circle cx="545" cy = "247" r = "3.0448704687500023" stroke = "#800080" stroke-width = "6" fill = "#800080" />
    <circle cx="551" cy = "235" r = "3.0448704687500023" stroke = "#800080" stroke-width = "6" fill = "#800080" />
    <circle cx="575" cy = "272" r = "3.0448704687500023" stroke = "#800080" stroke-width = "6" fill = "#800080" />
    <circle cx="575" cy = "266" r = "3.0448704687500023" stroke = "#800080" stroke-width = "6" fill = "#800080" />
    <circle cx="575" cy = "260" r = "3.0448704687500023" stroke = "#800080" stroke-width = "6" fill = "#800080" />
    <circle cx="575" cy = "254" r = "3.0448704687500023" stroke = "#800080" stroke-width = "6" fill = "#800080" />
    <circle cx="575" cy = "247" r = "3.0448704687500023" stroke = "#800080" stroke-width = "6" fill = "#800080" />
    <circle cx="581" cy = "247" r = "3.0448704687500023" stroke = "#800080" stroke-width = "6" fill = "#800080" />
    <circle cx="587" cy = "254" r = "3.0448704687500023" stroke = "#800080" stroke-width = "6" fill = "#800080" />
    <circle cx="587" cy = "260" r = "3.0448704687500023" stroke = "#800080" stroke-width = "6" fill = "#800080" />
    <circle cx="587" cy = "266" r = "3.0448704687500023" stroke = "#800080" stroke-width = "6" fill = "#800080" />
    <circle cx="587" cy = "272" r = "3.0448704687500023" stroke = "#800080" stroke-width = "6" fill = "#800080" />
    <circle cx="594" cy = "247" r = "3.0448704687500023" stroke = "#800080" stroke-width = "6" fill = "#800080" />
    <circle cx="600" cy = "254" r = "3.0448704687500023" stroke = "#800080" stroke-width = "6" fill = "#800080" />
    <circle cx="600" cy = "260" r = "3.0448704687500023" stroke = "#800080" stroke-width = "6" fill = "#800080" />
    <circle cx="600" cy = "266" r = "3.0448704687500023" stroke = "#800080" stroke-width = "6" fill = "#800080" />
    <circle cx="600" cy = "272" r = "3.0448704687500023" stroke = "#800080" stroke-width = "6" fill = "#800080" />
    <circle cx="612" cy = "266" r = "3.0448704687500023" stroke = "#800080" stroke-width = "6" fill = "#800080" />
    <circle cx="612" cy = "260" r = "3.0448704687500023" stroke = "#800080" stroke-width = "6" fill = "#800080" />
    <circle cx="612" cy = "254" r = "3.0448704687500023" stroke = "#800080" stroke-width = "6" fill = "#800080" />
    <circle cx="618" cy = "247" r = "3.0448704687500023" stroke = "#800080" stroke-width = "6" fill = "#800080" />
    <circle cx="624" cy = "247" r = "3.0448704687500023" stroke = "#800080" stroke-width = "6" fill = "#800080" />
    <circle cx="630" cy = "247" r = "3.0448704687500023" stroke = "#800080" stroke-width = "6" fill = "#800080" />
    <circle cx="636" cy = "254" r = "3.0448704687500023" stroke = "#800080" stroke-width = "6" fill = "#800080" />
    <circle cx="636" cy = "260" r = "3.0448704687500023" stroke = "#800080" stroke-width = "6" fill = "#800080" />
    <circle cx="630" cy = "260" r = "3.0448704687500023" stroke = "#800080" stroke-width = "6" fill = "#800080" />
    <circle cx="624" cy = "260" r = "3.0448704687500023" stroke = "#800080" stroke-width = "6" fill = "#800080" />
    <circle cx="618" cy = "260" r = "3.0448704687500023" stroke = "#800080" stroke-width = "6" fill = "#800080" />
    <circle cx="618" cy = "272" r = "3.0448704687500023" stroke = "#800080" stroke-width = "6" fill = "#800080" />
    <circle cx="624" cy = "272" r = "3.0448704687500023" stroke = "#800080" stroke-width = "6" fill = "#800080" />
    <circle cx="630" cy = "272" r = "3.0448704687500023" stroke = "#800080" stroke-width = "6" fill = "#800080" />
</svg>