<svg width="824" height="824" viewbox = "0 0 824 824"  xmlns="http://www.w3.org/2000/svg">
 <path d = "M0 412 L0 422.02540000556354 L1 281.58842151413285 L2 295.3180462785891 L3 480.1924613544544 L4 517.1123993594796 L5 442.5701705555799 L6 518.5535871291369 L7 271.1960544109754 L8 275.4917703045753 L9 424.81006483256465 L10 473.50207888147867 L11 389.8938400267639 L12 370.3404461891527 L13 390.0646566319887 L14 446.68881193310915 L15 395.284904749452 L16 480.3568056197229 L17 314.5201436434755 L18 351.90642365922696 L19 365.28407214680954 L20 540.1781568787719 L21 496.7313676050462 L22 407.1373076086537 L23 485.5253965429142 L24 354.0677979605555 L25 411.92113076370794 L26 469.3146228148145 L27 333.6712824423501 L28 347.9009567064747 L29 420.0086498731504 L30 461.90672399875535 L31 325.90957377651375 L32 351.9843659757584 L33 422.4254093854899 L34 351.6659019784666 L35 484.05597872461396 L36 391.7929741934005 L37 297.7579486480637 L38 363.7585932065114 L39 424.2363471337945 L40 463.2917058489486 L41 507.2887356105548 L42 390.2810768248056 L43 452.97560903210405 L44 484.8454679544009 L45 486.92042419012085 L46 230.49301511175668 L47 328.8509150332091 L48 497.33840992159946 L49 458.28513013194333 L50 344.5254764202398 L51 500.65535019565243 L52 367.55162472700465 L53 456.54073697335707 L54 402.870633710766 L55 438.49750858547384 L56 427.90371255863676 L57 378.96397022462105 L58 353.1220010362559 L59 468.5770438493827 L60 332.1435439558579 L61 304.95803491959555 L62 309.19197125003666 L63 479.0732889241263 L64 499.3431274244555 L65 267.3140612029923 L66 373.1998906782811 L67 346.9231550826105 L68 492.1151299971233 L69 379.2647651716784 L70 425.5529223266443 L71 497.1044838073693 L72 473.4229871427747 L73 463.8231870518259 L74 370.04856653201716 L75 338.4472957102848 L76 386.0113574985824 L77 371.56246957203274 L78 475.4317725168709 L79 527.3192865522964 L80 423.2436939189214 L81 339.7230982254467 L82 363.12155686963797 L83 439.13957311658766 L84 561.1911898528954 L85 458.73025650642444 L86 336.5437048576545 L87 553.5346507969725 L88 477.85017445216215 L89 392.1941912219753 L90 492.04014092270035 L91 341.08736083230383 L92 391.12270137775715 L93 449.41890632828404 L94 387.41752850336167 L95 416.76156375822603 L96 513.0815795710239 L97 380.61696765096974 L98 487.25416715519657 L99 337.73472034147204 L100 406.00678536534633 L101 398.9822056377614 L102 449.3312415426341 L103 489.6023551856342 L104 425.13599008078717 L105 337.27843874220684 L106 297.1634648986478 L107 393.56739146103763 L108 335.70963647820435 L109 595.2763238401297 L110 492.7155416713505 L111 554.154202776615 L112 482.32985017997896 L113 354.0240734985758 L114 576.2305637024933 L115 339.7028850250344 L116 594.4095858723852 L117 460.53618683733043 L118 309.283649844822 L119 459.57853754914584 L120 440.5154359633432 L121 492.13828859062926 L122 371.271559964802 L123 352.24512867827855 L124 285.48667858916406 L125 402.15157329089016 L126 568.8512730302116 L127 350.7052550539057 L128 278.3321431602567 L129 410.9893789326484 L130 310.8938757961838 L131 443.77015557842503 L132 403.82119664293725 L133 428.53793836295586 L134 417.0236180213767 L135 404.4803115536384 L136 379.4314806428123 L137 362.5319126713191 L138 458.2381655577348 L139 342.88201507900783 L140 412.1538130318987 L141 292.0386982258563 L142 528.3278727096753 L143 489.2104329030567 L144 276.09523860625495 L145 378.10957863159774 L146 331.9848971057055 L147 420.7242887828692 L148 362.32236647642094 L149 414.35612798754465 L150 302.1986776964161 L151 377.97056862678625 L152 444.20594454730235 L153 506.5232867103525 L154 312.3899275870365 L155 463.64264677728147 L156 478.3088132114825 L157 394.15621626321325 L158 341.60602735814416 L159 391.5804701560327 L160 461.54096613834463 L161 363.0184816221391 L162 391.85303371261836 L163 484.17523975216636 L164 469.6817103490695 L165 493.1789027766541 L166 467.82149022391354 L167 399.0172202032006 L168 356.3080823155008 L169 524.6903358372236 L170 407.05871732048917 L171 436.73396021556357 L172 427.6203335854588 L173 458.62736026287115 L174 322.51306304031385 L175 328.3682336778611 L176 386.99717802272 L177 418.27104156864493 L178 402.63465101724177 L179 418.6728084510682 L180 447.96539840866154 L181 310.38240406468384 L182 462.4163369590917 L183 300.5472744146307 L184 420.62764763427265 L185 492.6463925236076 L186 474.74882461604955 L187 318.16277298280374 L188 382.15866990865095 L189 371.88615811381266 L190 358.9098298503039 L191 424.77442328940134 L192 450.7692611051295 L193 319.2274419769227 L194 346.0203176711316 L195 548.0033796851153 L196 388.3739516145272 L197 424.4186306077315 L198 486.52145158482875 L199 484.421198833232 L200 462.5630522172644 L201 375.48087375762447 L202 279.4615291959843 L203 432.635067256853 L204 394.6972763015876 L205 350.56360963558984 L206 470.04840300453304 L207 348.289904206796 L208 421.84881814123383 L209 313.7588340606254 L210 431.21738193193653 L211 343.93780657062894 L212 459.5639171491483 L213 464.17364570543447 L214 518.4437887178494 L215 365.8787940937615 L216 424.4592153232693 L217 396.94430514278764 L218 466.3703347184899 L219 395.95733385148776 L220 370.6160721217625 L221 350.6657538055497 L222 454.2131636866021 L223 296.2564375895965 L224 323.74429279849477 L225 353.14712192680275 L226 424.2668031466278 L227 427.5372028353695 L228 502.9974728536986 L229 370.1627167704525 L230 432.01774466151886 L231 399.6517548946457 L232 505.5086483909449 L233 333.1039368539796 L234 304.1462608389023 L235 488.423058562498 L236 376.2549470902587 L237 386.4341683652017 L238 473.04507997876397 L239 410.6234295501935 L240 275.0776708799578 L241 466.2696305931732 L242 408.4303205373359 L243 366.44885163757226 L244 385.3154349156525 L245 513.3521855359741 L246 383.27193562440465 L247 476.4877502058478 L248 411.44194471272186 L249 386.30567720208586 L250 356.58150733599183 L251 300.19971191606857 L252 440.7589125559447 L253 433.7614201916273 L254 395.51765797842705 L255 418.3462868413211 L256 425.1547981009757 L257 424.22775646972195 L258 484.56927650350036 L259 381.73153205307057 L260 486.66103041670374 L261 469.8986963604686 L262 459.01758327247006 L263 408.70750275347007 L264 337.96456273168803 L265 363.28034086293286 L266 366.03970138024056 L267 328.1543110997232 L268 423.4723706267534 L269 436.0293608780785 L270 428.18514543352626 L271 333.72944521704574 L272 358.8296702252882 L273 391.6669394019856 L274 388.0920697172704 L275 361.0437110016063 L276 338.29333099192263 L277 402.96334219193506 L278 369.37312665901777 L279 427.8707565971007 L280 396.3888137466284 L281 416.11283745725046 L282 381.60278273862156 L283 404.53252197288896 L284 509.1643580347291 L285 452.4302158893492 L286 514.8859144485784 L287 407.27917957871557 L288 381.18994083522426 L289 354.875955014111 L290 261.3216908759353 L291 359.75056483715133 L292 511.4469946077189 L293 375.9920790929823 L294 334.4020206161406 L295 509.6901235570065 L296 263.2962981243762 L297 262.4600288097769 L298 413.5778387236814 L299 601.38186536641 L300 468.4213178723997 L301 481.39052503336455 L302 503.7652784644885 L303 443.67340093253 L304 441.11990814733065 L305 433.4001708863583 L306 450.91270142337237 L307 353.44449363503975 L308 496.2357448423452 L309 412.5968226883365 L310 413.75853126249154 L311 514.6730919656873 L312 516.7077567251168 L313 457.2358387676425 L314 471.1345139503348 L315 472.49559638509834 L316 344.3908032629123 L317 498.4371874010304 L318 361.9813841832391 L319 306.74816432646656 L320 420.1787667115309 L321 436.6817985583658 L322 406.75795526169935 L323 410.8254350809364 L324 316.5588395085893 L325 516.0965120094905 L326 527.2477005632419 L327 534.219103434131 L328 501.58567007955094 L329 424.1808396346688 L330 580.603930884199 L331 501.55770116825704 L332 533.6936847430601 L333 436.21350039081926 L334 436.01534133067906 L335 412.75429142182895 L336 335.99174337052875 L337 430.7358399777017 L338 367.0723264483686 L339 439.7375009522858 L340 584.0355467327003 L341 416.5236535869332 L342 402.21194128019664 L343 338.8631145516222 L344 458.5325064772892 L345 449.6500847043107 L346 407.31035126466827 L347 398.9726953731071 L348 419.21339353416795 L349 530.5715786787488 L350 401.3806525463326 L351 463.534404217661 L352 446.4789546860566 L353 413.75951774894537 L354 260.35508823187797 L355 357.6663718507356 L356 387.84340066551607 L357 413.8595220911278 L358 665.4163096651955 L359 445.5124927278458 L360 383.4857382156145 L361 278.1183165032403 L362 311.8142597531269 L363 408.07969455022584 L364 383.6440935713427 L365 457.78882915038446 L366 362.7367646128276 L367 486.3324537271965 L368 443.95391643449875 L369 461.32485758415805 L370 240.73445921930664 L371 326.32452279985955 L372 366.4213081908592 L373 374.58689770993414 L374 403.0827419279918 L375 388.8350598493407 L376 292.7433342200299 L377 424.006259373247 L378 388.3267915671379 L379 379.542683721573 L380 391.04172013303815 L381 445.3366718395686 L382 393.6790654842986 L383 254.5534440422711 L384 453.9175617568864 L385 522.3931437946477 L386 510.2109955327084 L387 518.6041526303842 L388 461.17295532199734 L389 460.1318380859296 L390 267.87739777881006 L391 485.7745219011706 L392 399.16510588305084 L393 584.8813150967927 L394 464.83687540415434 L395 451.55134484953663 L396 508.2503881363208 L397 440.03838714295244 L398 424.41199337812435 L399 320.9574831706081 L400 470.787470399564 L401 381.4976743278382 L402 439.0644449006023 L403 458.2022739223087 L404 406.2540675144339 L405 467.3195162472806 L406 416.9668898330475 L407 486.4182090657535 L408 374.4595617761585 L409 376.5004197673401 L410 381.7462256820235 L411 339.0305294177965 L412 376.10731833048436 L413 314.5175721240828 L414 480.6637421406764 L415 369.58161715056656 L416 346.5211523782452 L417 403.61347529493094 L418 392.88196538099925 L419 495.8780929871331 L420 517.7200638478168 L421 436.790327996648 L422 402.58602749133263 L423 468.33626870542633 L424 389.2041383414572 L425 321.8687539711692 L426 487.17838626308503 L427 454.6100233939689 L428 378.93017622805314 L429 408.25037566899124 L430 396.6565033728656 L431 425.4237483298596 L432 471.8141712318262 L433 353.01495836871914 L434 508.8269326604523 L435 299.0872941897078 L436 564.637467831173 L437 447.7342472191042 L438 339.337294751136 L439 483.29772724710523 L440 418.74670974513003 L441 535.9328781161711 L442 416.44073646536606 L443 576.8475564247542 L444 400.4302398233171 L445 609.5148372899207 L446 506.2914161524642 L447 389.7602712638759 L448 361.3521765809938 L449 385.78490276880285 L450 415.86303916758504 L451 538.1961433985437 L452 677.9026344428971 L453 492.20424838285544 L454 427.71707206386344 L455 317.77230123794146 L456 420.1671866080095 L457 432.5225913175721 L458 446.7999179365153 L459 438.59629950553864 L460 496.3810741021346 L461 575.7556961703478 L462 353.6724837292316 L463 413.377006606577 L464 468.9873388686668 L465 437.90953842812183 L466 448.19175826204224 L467 508.0386104282873 L468 464.32361290095844 L469 455.06862601447733 L470 332.4141899181892 L471 363.30019114698587 L472 419.47458292831413 L473 381.5583466246787 L474 335.5779863441786 L475 467.8299856426354 L476 319.7660385432928 L477 387.3441553687463 L478 456.9128732147295 L479 373.9408620255474 L480 363.5344915910482 L481 370.59085376831626 L482 449.9782469386248 L483 401.3429123190575 L484 543.0697447281192 L485 381.9714394834953 L486 359.47493851002184 L487 425.98195361217546 L488 459.08376766343696 L489 438.89600250769934 L490 287.1363605170242 L491 392.0150156748569 L492 485.0546891035923 L493 394.0912255519019 L494 413.2690876999001 L495 448.8897287308557 L496 346.90599888993825 L497 376.53496674702103 L498 397.4769896011988 L499 472.9184076099477 L500 346.8686539931164 L501 257.33703012083055 L502 494.7202051050872 L503 391.03577081345827 L504 473.8228659558997 L505 267.60333779164694 L506 429.41813050552423 L507 470.37930317268996 L508 361.6606546956413 L509 402.3440272344764 L510 550.4425364573046 L511 462.9949909895716 L512 384.0843548893486 L513 474.0429789287205 L514 442.3371079113553 L515 340.08911207042826 L516 456.1413450420892 L517 453.55035338868083 L518 448.0490500244299 L519 461.7050365560784 L520 461.96832234596764 L521 529.0697729182762 L522 393.33970793497815 L523 462.5640673468885 L524 514.1445260905125 L525 405.7014321606544 L526 458.13583450859136 L527 514.2773438107654 L528 472.95268686689735 L529 250.19317017639892 L530 383.9086718468853 L531 367.99029956557484 L532 439.7132223264214 L533 362.59397303333503 L534 524.7110178309125 L535 396.48814514509326 L536 330.7162571516691 L537 316.1076956450055 L538 370.4718864059837 L539 439.8544217334297 L540 549.5193700805855 L541 514.5785111609084 L542 357.8512676454684 L543 387.49902431541364 L544 383.6764180856914 L545 456.9927079146169 L546 395.37375804232846 L547 322.4627499258954 L548 437.67008276986866 L549 332.91121645661093 L550 287.5373978974183 L551 452.70769575725876 L552 416.0569758645206 L553 505.60678344014127 L554 532.2694989446032 L555 557.70424190362 L556 463.44662048612855 L557 386.972089908737 L558 455.35321498706384 L559 683.8852944428351 L560 425.33739002805265 L561 367.68130209371236 L562 294.6658119388038 L563 319.7774404743607 L564 481.461344074193 L565 545.0685683066984 L566 431.35197580730596 L567 399.81163484627916 L568 369.11889026906323 L569 295.47602480283877 L570 352.1169255611594 L571 292.61421555175264 L572 511.92058604078954 L573 208.27434874877036 L574 424.2212121707923 L575 384.32687364788796 L576 416.0975427462469 L577 460.0394456573106 L578 299.9955990248957 L579 414.50130922403247 L580 417.5611561287357 L581 372.72032410864654 L582 345.57447381933883 L583 426.01954190209045 L584 458.44464944278957 L585 391.1376467944299 L586 435.1197644929383 L587 440.53961454312963 L588 487.89618621132473 L589 358.29435592306385 L590 535.0391036251982 L591 336.3637080639553 L592 393.91297179596745 L593 442.6393990000972 L594 427.4028225371002 L595 382.26594532467686 L596 420.96815951181446 L597 443.5528098819764 L598 354.7703440416385 L599 489.4250298829112 L600 542.9441038849109 L601 384.60903386980516 L602 395.08176927444646 L603 428.8257653722876 L604 438.5363157740112 L605 459.78207079141475 L606 378.17784265200424 L607 379.18817118843316 L608 417.4699148796414 L609 448.7328650806225 L610 347.71119546887047 L611 353.6905464304271 L612 430.50261131992283 L613 291.65368774537586 L614 393.4216739008176 L615 477.1701978840336 L616 571.9072002693292 L617 411.82652014450093 L618 364.33341244903266 L619 443.7379184476766 L620 366.3342827389175 L621 388.4936768481842 L622 393.05910578969014 L623 449.76260357838055 L624 447.15211110603667 L625 349.560289021769 L626 301.771297206604 L627 468.09060859521486 L628 303.95650221647725 L629 419.03144819818795 L630 412.1703576211682 L631 362.6827759905255 L632 414.6247322763794 L633 437.5863256106335 L634 394.447539778435 L635 440.14948325680734 L636 331.27524766316225 L637 367.2152618761345 L638 395.40623247414743 L639 464.31746589723593 L640 442.52347533966906 L641 392.9266783353055 L642 525.983701025103 L643 518.586519052976 L644 332.71845291180756 L645 307.18813477411044 L646 346.47973558851584 L647 440.1620883417806 L648 429.64354136083165 L649 315.1048638978392 L650 465.09192023016345 L651 381.99840002107896 L652 372.23470955788923 L653 456.15050784456054 L654 408.0060880611998 L655 470.311479221512 L656 541.0647855852126 L657 396.31687199790815 L658 375.59481966290787 L659 352.86408893974266 L660 334.6510212087388 L661 366.26019402488936 L662 442.37284856822896 L663 488.5524311413899 L664 626.160632033667 L665 527.0270283032249 L666 446.95988929087986 L667 345.25588893752933 L668 466.69372928049853 L669 386.79956832762576 L670 374.14974915054836 L671 577.3473247022591 L672 417.3109408900036 L673 379.35938593871003 L674 476.58034342720737 L675 439.21321129155774 L676 381.99521514246857 L677 268.11275658321176 L678 393.2279746283813 L679 392.7864869679885 L680 289.7296333122513 L681 325.1268819343081 L682 478.02207637296556 L683 362.08935888700086 L684 444.68021066911507 L685 392.0950034784798 L686 344.3043244197043 L687 344.50797004754446 L688 395.22771371670956 L689 372.2963278441501 L690 439.71723564024364 L691 354.6501093497241 L692 326.9296381194495 L693 455.0491494677535 L694 462.0339378123423 L695 361.63667315533195 L696 445.1932448548114 L697 396.8072545691585 L698 357.572744439815 L699 300.57636128510626 L700 532.5938775159839 L701 388.56799313521924 L702 386.6372930175129 L703 516.4271683642631 L704 438.49433940957755 L705 459.93543759907743 L706 439.31382779158645 L707 326.9359667242774 L708 460.2973457761896 L709 496.649582145031 L710 346.0837435823957 L711 353.14496891670916 L712 440.6272615471217 L713 408.8589632386632 L714 397.7882138587894 L715 420.6468697142214 L716 399.5185594260837 L717 424.1485566748424 L718 461.36602348077645 L719 462.97759918379035 L720 458.74234401423246 L721 439.4382242034171 L722 495.9671148569166 L723 346.973937758792 L724 462.23370601292163 L725 317.7683033282114 L726 488.7504920113814 L727 428.7143847293519 L728 481.80523493419736 L729 404.13945518370525 L730 332.3538066038115 L731 394.2624143135279 L732 551.606287602792 L733 272.43710165979564 L734 499.2818015666654 L735 376.28413632502435 L736 430.0721770020678 L737 374.49760579387714 L738 457.1567760283374 L739 452.33691021444184 L740 348.91927926804465 L741 481.6180521020358 L742 353.06457940557095 L743 400.4928187033354 L744 470.35455436285605 L745 506.0261598160886 L746 417.6154500538514 L747 344.6629707928531 L748 389.637461686479 L749 493.3958284850423 L750 294.81870468075897 L751 380.70462961229515 L752 421.8360189763767 L753 365.28806718807994 L754 469.2997538737705 L755 518.2171545941152 L756 506.8792904188779 L757 468.1087495317916 L758 422.3094725150635 L759 536.6156429574289 L760 368.5696810220689 L761 447.9253676004691 L762 398.8837911228847 L763 377.7117361175243 L764 543.9976499796564 L765 261.4081055514034 L766 370.72866454486996 L767 318.05098986660437 L768 463.8685797983045 L769 483.5075225998959 L770 414.9545897695064 L771 369.11168953606574 L772 357.0973947020738 L773 487.8115244545356 L774 315.15035251847337 L775 478.27089430313697 L776 400.3152287705453 L777 279.95926915387093 L778 351.49351815675374 L779 436.4669822528912 L780 542.0805446541049 L781 469.64725538723906 L782 437.28661074236743 L783 489.6029417039143 L784 337.9543113812796 L785 551.0347516725938 L786 393.0130444887848 L787 468.83140393241507 L788 395.8769812165324 L789 353.31799783821145 L790 388.5141188660706 L791 373.45926943566377 L792 404.3386710057334 L793 341.54325184149934 L794 460.2236005148888 L795 284.44292481753894 L796 396.8242630457843 L797 474.09446556796644 L798 502.1442995017982 L799 337.30626245773635 L800 492.03707731879837 L801 454.6369013506828 L802 433.2209491346193 L803 333.8559661563238 L804 456.021361197368 L805 416.1857063065603 L806 392.1529596996938 L807 510.25802472850455 L808 523.3722619145137 L809 421.45366622546317 L810 279.17119429395484 L811 345.70852085124943 L812 523.1991248725149 L813 312.61294581281305 L814 563.9465135308025 L815 418.522661700176 L816 410.4313013506022 L817 382.5880794976221 L818 488.0679108037199 L819 384.81689587797223 L820 475.5419137647496 L821 366.4422291264539 L822 352.41027741758774 L823 508.84663014634623 L824 412  " stroke = "#000000" stroke-width = "3" fill = "none" />
</svg>