<svg width="824" height="824" viewbox = "0 0 824 824"  xmlns="http://www.w3.org/2000/svg">
 <path d = "M0 412 L0 368.042817816775 L1 381.96907867208665 L2 425.16328123336064 L3 371.2472440638336 L4 421.45648716236843 L5 417.93291438303584 L6 478.07838935562006 L7 409.3719796803971 L8 343.64765592761563 L9 346.74363837215606 L10 431.8584614780683 L11 346.05162347211717 L12 370.99937601416445 L13 572.447069927744 L14 335.59657740559834 L15 428.9247166723626 L16 417.14450716082604 L17 408.8225168517238 L18 461.7902507637151 L19 500.06974208016914 L20 381.6046445479029 L21 413.17105443082204 L22 443.4892402942542 L23 368.49647469609494 L24 505.8309018912278 L25 493.91381849566335 L26 412.9044201005877 L27 349.3212184514188 L28 332.0762701771582 L29 474.59070935632633 L30 327.5847117871261 L31 495.91399206527404 L32 508.5936644805732 L33 354.88908221451305 L34 490.58222142952013 L35 478.14291276609555 L36 468.1487161599406 L37 333.0659293661742 L38 476.8033725481606 L39 355.180801431214 L40 402.9803283912357 L41 500.9807757279589 L42 458.2350549852856 L43 410.81021437145216 L44 429.7410131569767 L45 466.36928616516013 L46 369.8130564680144 L47 429.31854059835626 L48 391.65501864335374 L49 462.59473533128136 L50 419.4240906025899 L51 457.70305850436796 L52 390.50764254212 L53 345.5252542845105 L54 375.83915927537345 L55 400.979965879673 L56 416.4488327602733 L57 421.77196484297485 L58 414.9209881830903 L59 343.77926415188267 L60 471.0584486750503 L61 403.1977564799846 L62 493.58136896015776 L63 313.0155046391241 L64 388.77571150847115 L65 537.9120059289742 L66 388.8051899586354 L67 373.4968907194068 L68 413.1954709145242 L69 344.9170581907153 L70 338.31759009598886 L71 441.75774300519635 L72 310.92550964645363 L73 428.543940680745 L74 443.7163614204529 L75 361.1135521702722 L76 349.0766397414283 L77 317.0331747859818 L78 361.26986142461976 L79 387.93977029918665 L80 380.5099665201915 L81 374.5326924272371 L82 310.5087790381505 L83 426.20605566637784 L84 352.72651160578096 L85 385.7668847775046 L86 317.76574139939447 L87 350.97317816984236 L88 338.9166973943039 L89 395.3129115516757 L90 454.75585097982287 L91 461.24913035293105 L92 491.32215038296823 L93 425.5511904616708 L94 384.92881728158113 L95 462.8020436726926 L96 446.99881426305416 L97 434.3173151360841 L98 390.31601172710435 L99 421.42616766053123 L100 449.8703993077911 L101 340.99242289963706 L102 427.07735539948226 L103 416.0015936426016 L104 534.0367619703563 L105 426.4414652156378 L106 407.91007420522277 L107 377.60870797748896 L108 360.73476088485853 L109 382.30437251118826 L110 415.2094311755252 L111 354.607076401968 L112 378.00660511260594 L113 432.62534319770685 L114 326.1362626579155 L115 434.452864265719 L116 400.04465809063566 L117 422.53813230392484 L118 400.09179900412624 L119 433.42172179850655 L120 425.1539706312113 L121 391.6889246011703 L122 429.47439976810455 L123 323.7520114989832 L124 529.1165894416695 L125 483.1119945731556 L126 507.03055351782217 L127 509.78407186729913 L128 426.5779699808151 L129 499.0249783178917 L130 305.88115732457226 L131 441.6327532193902 L132 501.28138241993605 L133 327.6353402857467 L134 417.711847556662 L135 337.61298148546007 L136 527.6189092715484 L137 504.11147718251414 L138 418.2400126105476 L139 510.55703165913235 L140 520.9593537673311 L141 388.8146602603766 L142 454.5360167646 L143 407.9741919686681 L144 419.2715882791706 L145 467.6618995062454 L146 512.4065746864185 L147 386.352540921836 L148 465.6586416645718 L149 469.98942092474357 L150 414.46930159630057 L151 454.17634042258567 L152 418.6320691102056 L153 368.80773179790594 L154 462.3942524530198 L155 442.02153477196606 L156 414.0058837876301 L157 264.4020956509451 L158 400.17795485976774 L159 374.3382657331157 L160 499.58532828335996 L161 413.15915585168403 L162 401.49830117610617 L163 410.22887041392204 L164 452.27358630086985 L165 379.1283764094558 L166 379.8299216379479 L167 429.5842506365023 L168 399.8197323220538 L169 412.939864367357 L170 366.06881274341856 L171 406.8283406755596 L172 398.2283655334553 L173 395.96901501488645 L174 408.46459342348453 L175 471.19328640720187 L176 486.1368845797132 L177 432.5752854158023 L178 419.1111691113143 L179 450.54356103341837 L180 473.9275578119728 L181 378.2958173918073 L182 378.0233803989221 L183 435.6865182930675 L184 514.5430906218438 L185 447.1464976628174 L186 453.6413084220868 L187 326.3207909884414 L188 400.1490273493372 L189 354.9385281127281 L190 333.82392603110475 L191 386.9254683132647 L192 409.97515292076037 L193 488.38817405101327 L194 444.9892541506827 L195 301.59011902227894 L196 482.7782934638959 L197 435.9965562985431 L198 343.554342705096 L199 468.5783957657868 L200 436.6274679591063 L201 486.5127384196372 L202 406.9140042596588 L203 299.98576220691905 L204 498.67887623741456 L205 433.6305875850465 L206 274.41159219864414 L207 496.75036540741166 L208 428.8666679991986 L209 427.63173429884887 L210 393.52292055874784 L211 410.3426887582033 L212 478.22075403034825 L213 441.8950410425158 L214 426.4019312088924 L215 402.8721825486677 L216 452.25242867958497 L217 313.37382459006676 L218 447.115762240449 L219 339.71572157727803 L220 411.67284114906704 L221 337.3054225894578 L222 420.9903074976476 L223 476.8144104750339 L224 394.4334039296418 L225 505.2789702919503 L226 390.3651876472672 L227 479.69956484022725 L228 389.35555482861884 L229 389.47226296056124 L230 341.2545335301114 L231 389.40916600554726 L232 343.30191949527585 L233 389.3647575660876 L234 436.04133929733615 L235 362.8789326170718 L236 363.7440888377762 L237 388.3601894843088 L238 332.82302320190365 L239 419.89747478421873 L240 490.8800826445463 L241 410.01694384468954 L242 412.57639316573676 L243 456.56450968440146 L244 399.5952824101853 L245 401.8819727035181 L246 467.90273125961386 L247 413.23837654219443 L248 352.0481066090125 L249 349.68804027788354 L250 334.8176707693461 L251 355.2752092544466 L252 359.8186838037452 L253 392.30075760242454 L254 432.8530466515028 L255 334.8319315256283 L256 379.8299743553283 L257 378.1582130343654 L258 438.9196072582968 L259 383.580661403293 L260 456.84530857170046 L261 426.88991609687594 L262 479.8265328075014 L263 404.38567364197087 L264 361.54915406763735 L265 458.8879730131569 L266 427.55490706097896 L267 427.72610118205137 L268 326.38209450330373 L269 304.0860580119037 L270 464.7516945348379 L271 379.82759684507255 L272 354.1055138441934 L273 390.34610138492303 L274 397.66637874397696 L275 288.5864818806631 L276 308.1089379357056 L277 394.04637265592834 L278 438.9100694715208 L279 319.8939923602144 L280 363.40338444208226 L281 427.4030724842267 L282 412.0076594610645 L283 456.1203802884294 L284 446.62703394760763 L285 463.09616973733483 L286 303.6445198015362 L287 471.1709353855892 L288 295.9284427183358 L289 476.3310121933441 L290 337.73222056066396 L291 354.83915495700467 L292 422.11108763435846 L293 440.4062159625906 L294 314.38056777460145 L295 393.19651748185487 L296 477.99118192034985 L297 421.65960228422 L298 480.74246470046666 L299 392.7840670423768 L300 283.66802213708394 L301 319.4193065300485 L302 373.28189241562114 L303 427.5633574279306 L304 408.3951593836738 L305 473.4633802189477 L306 425.3514283382688 L307 387.2731721352717 L308 470.699230283962 L309 352.6020001141039 L310 404.9910408161136 L311 423.41964498626925 L312 431.27092053779273 L313 474.0564075411399 L314 440.63356443504233 L315 423.9188413952394 L316 430.5103799678151 L317 386.57080225209666 L318 394.47163652577143 L319 411.7484345611575 L320 441.4819086395263 L321 276.22002397445624 L322 435.200603388214 L323 385.63046700010733 L324 404.90370607478377 L325 407.3946999270377 L326 388.7909726498932 L327 509.01483619236416 L328 428.47556745673256 L329 402.35404197154855 L330 471.1777105971096 L331 370.2727619293007 L332 366.3100951945801 L333 386.1824999456108 L334 435.25117978803604 L335 370.47747959802814 L336 494.708494326385 L337 439.2881189620315 L338 381.2077132451686 L339 426.31311858160655 L340 463.35797952721464 L341 363.3498281921977 L342 358.1942861373066 L343 417.04575198556915 L344 319.20644528230736 L345 455.25638169136 L346 445.84732162302254 L347 452.3403139339627 L348 353.46434160462064 L349 342.03307964573827 L350 447.968966723721 L351 392.6399941985925 L352 361.14343156775243 L353 331.35499248189467 L354 302.78487986082786 L355 314.4707505106733 L356 355.9376897414764 L357 499.6623700418466 L358 350.10532390863483 L359 389.04157360094126 L360 401.10567670263293 L361 355.1712273512967 L362 429.9037782281942 L363 456.5857196438679 L364 403.6688054242939 L365 344.86212848530715 L366 388.365974575548 L367 296.09577444715023 L368 437.62258983576487 L369 384.5621025209754 L370 330.1257102329126 L371 442.8110260990918 L372 320.0928461979821 L373 424.5869829836346 L374 463.9271473044048 L375 358.92097791277746 L376 274.59903343171493 L377 384.82400069423915 L378 276.5543920249769 L379 514.2537051765951 L380 464.2552840499852 L381 523.4611490659478 L382 522.8408157102565 L383 535.4362854538712 L384 523.5610194647611 L385 416.27295817272415 L386 446.4766309469756 L387 279.3276430118797 L388 458.09617445868105 L389 388.73870405339966 L390 438.67518721802327 L391 386.9782059795183 L392 519.542753150923 L393 360.4345509137813 L394 437.24359001622616 L395 367.24896245290495 L396 365.1934428803162 L397 406.98388596851765 L398 429.52666533913583 L399 399.9276789117659 L400 462.45495464929377 L401 476.9314882099747 L402 518.8224297474392 L403 394.33633239958095 L404 398.9383825226976 L405 463.23143506972286 L406 403.90854730568293 L407 385.8622442886878 L408 436.45242988373275 L409 375.927456210988 L410 357.1657947542557 L411 330.75849856716803 L412 444.4171831480461 L413 408.3797718515298 L414 483.52904089941273 L415 465.45613868726315 L416 459.21735908783353 L417 432.12185707704833 L418 446.38446524691693 L419 388.1948217685151 L420 446.20757738425203 L421 410.83551820986486 L422 404.53528306259807 L423 320.98929351859516 L424 462.2954422702027 L425 429.05117612951506 L426 445.4669279943288 L427 381.6520825797035 L428 354.52556593715906 L429 414.6598514001662 L430 455.02732092979164 L431 379.4505237774913 L432 451.04825164348796 L433 352.4539842469036 L434 422.966266061265 L435 284.8418736257571 L436 368.53237134367964 L437 393.1355782414126 L438 427.208901779163 L439 369.0463424495277 L440 423.3892299124047 L441 448.86776757767626 L442 402.9109452358051 L443 376.8529975116794 L444 420.8958413048781 L445 440.19928246385 L446 511.4005509734085 L447 323.85911043152674 L448 369.9153049489097 L449 299.2565624157903 L450 454.68615376723085 L451 394.45126261433904 L452 441.53915310390653 L453 398.3778891438896 L454 394.25643402792895 L455 326.4067340748898 L456 366.3038641146064 L457 399.0941967422583 L458 397.10058693599234 L459 444.6339773326294 L460 456.56851482472723 L461 348.5856186519336 L462 466.3789888971247 L463 436.9939481380294 L464 450.74503688133416 L465 373.18075264755623 L466 405.14779287534765 L467 384.85212595735265 L468 409.62323831460685 L469 364.4525951683487 L470 454.7912659757579 L471 413.0789135826931 L472 415.71728340524953 L473 269.54043367648273 L474 425.67577554832883 L475 475.05358855034416 L476 449.7761933004187 L477 514.9679193733081 L478 567.8825683503262 L479 402.82739188568803 L480 468.3086987862838 L481 396.5665167075982 L482 439.6311898785844 L483 349.02965165838265 L484 472.22760708643665 L485 465.91967267290937 L486 440.9888711223483 L487 418.8776818106505 L488 322.892753165043 L489 391.7128470902049 L490 234.17085508354245 L491 406.38198860353646 L492 313.1590572903468 L493 480.7126342028926 L494 449.1385695260248 L495 379.3483842798946 L496 526.420395827622 L497 422.616856528468 L498 397.88352820315833 L499 450.56705298724927 L500 341.0716082171318 L501 344.61520351970637 L502 363.25165654493645 L503 382.44632807151226 L504 454.01201137603323 L505 349.87362950969367 L506 440.8332908238359 L507 411.5887596011607 L508 393.88379591021493 L509 406.73249835937787 L510 333.48190177351825 L511 436.2189669316509 L512 447.45365366698195 L513 332.62741362541 L514 353.66452708540317 L515 428.24606046173324 L516 433.14446214893064 L517 447.0445271944503 L518 490.92069281852105 L519 510.9676258477381 L520 287.7036237893739 L521 387.0970276693913 L522 428.5677485102132 L523 408.2030822175903 L524 343.202121524617 L525 375.81880855073877 L526 308.57091533660036 L527 358.5302916084297 L528 511.43800616263104 L529 374.1199893831451 L530 364.9862890089056 L531 391.2943739573052 L532 380.9473067772208 L533 330.1001131338914 L534 400.78065430693766 L535 374.88033624182606 L536 489.8817414373606 L537 513.7242182144606 L538 399.90285408148685 L539 395.7731610633264 L540 325.0341416432238 L541 450.72402487267743 L542 357.78089575103854 L543 470.40825529337906 L544 397.6811399502411 L545 350.76296174800746 L546 345.54285161717763 L547 445.10170011417097 L548 404.1508023208749 L549 321.5511971289979 L550 459.5038042007342 L551 476.5460400305298 L552 331.2507312193149 L553 353.2723201709683 L554 583.090194956884 L555 328.87962716047446 L556 481.0010076876158 L557 428.80374138667287 L558 373.6116329924629 L559 332.5022355540609 L560 376.29048459118457 L561 364.6633417686395 L562 467.04450965912235 L563 427.7063125032683 L564 355.2014430455963 L565 341.1980857566366 L566 467.85889462097515 L567 480.11138224818694 L568 370.05632595879234 L569 404.65404553609824 L570 363.8439204367865 L571 402.30276661005195 L572 398.0872493088419 L573 454.0712273499954 L574 389.8849040829824 L575 401.341893133134 L576 487.1024700629363 L577 427.8981535470979 L578 429.426037861438 L579 367.4764945070115 L580 448.52553501169535 L581 399.63456216677383 L582 368.5117035120159 L583 434.16219363342003 L584 484.00496766064407 L585 417.2596745346046 L586 390.1447672241719 L587 451.7888617197344 L588 423.99664615005236 L589 391.5675604585001 L590 334.0389205898597 L591 435.0560991932793 L592 448.3173053172967 L593 319.36189588086177 L594 416.6103192088881 L595 374.23749111567935 L596 355.94943913348976 L597 503.36632506663165 L598 486.38924903084205 L599 448.75906019386093 L600 478.3251098271383 L601 371.8645861623028 L602 370.2439487752516 L603 417.26852714225515 L604 491.12737685423957 L605 432.11141539031615 L606 344.3288479695018 L607 415.34008487659065 L608 450.4392556107825 L609 398.4463320210649 L610 400.8020300867615 L611 323.3644115042146 L612 480.6652791433911 L613 380.39256830853793 L614 326.99010579990244 L615 494.71855700249205 L616 409.35862569200253 L617 386.80858376752724 L618 363.0812229981965 L619 402.64077788868013 L620 389.1279164468928 L621 387.1545111725286 L622 522.4808229377703 L623 469.87381847470266 L624 436.384894436705 L625 450.7071872554868 L626 478.0385039326504 L627 541.2940855415561 L628 499.20954317299777 L629 483.5035213793498 L630 350.2625448184006 L631 485.0595196378911 L632 283.7258639870082 L633 426.68182066190434 L634 361.46857952224684 L635 383.6692548810039 L636 423.45318134619816 L637 439.17359204155593 L638 399.11788233191993 L639 480.25765086139177 L640 480.43877595997327 L641 371.3296762636531 L642 500.43232156458475 L643 490.29946448295186 L644 320.298471900546 L645 331.85737840261913 L646 485.97821889669314 L647 448.50212947719336 L648 478.6578703403053 L649 377.510487719285 L650 341.78308532925473 L651 495.012389185635 L652 449.12282648627183 L653 346.2326479951264 L654 355.5902827318365 L655 422.02476214145446 L656 492.09335930764337 L657 366.643205939984 L658 387.4497513791225 L659 379.46313802265456 L660 323.67459908937496 L661 359.5912293664655 L662 361.9389822980171 L663 339.27270939172047 L664 332.7406234433533 L665 416.52783815043233 L666 529.0719712277049 L667 379.7863084450969 L668 298.52237117031393 L669 567.0593646267675 L670 394.4003294962405 L671 343.05405137765086 L672 423.00738048689556 L673 303.6460425149885 L674 410.60613515187595 L675 443.85164709639525 L676 373.175563399776 L677 472.8292232117813 L678 414.9162542340205 L679 377.1716168153706 L680 382.77460411448413 L681 390.8259160828608 L682 417.47959053011226 L683 395.9982185798598 L684 468.36578772311276 L685 340.61087496537573 L686 545.819128660545 L687 409.15311526369425 L688 331.2657639436568 L689 338.3270066395636 L690 401.5938408553343 L691 423.52978540881656 L692 416.6071493697333 L693 318.5671752583074 L694 437.9458343693274 L695 466.14656466405745 L696 448.93882723170884 L697 413.90687392923866 L698 479.15033833706923 L699 466.4167490670321 L700 498.26083239815455 L701 485.7437863413941 L702 328.3720117419337 L703 397.33275740170143 L704 419.1180647937843 L705 412.7548665406775 L706 463.4175402998336 L707 422.60983584981335 L708 416.3068253082386 L709 416.0730157359357 L710 321.90500670161146 L711 356.5176067332397 L712 377.10070445076514 L713 348.2082446628672 L714 481.141944028402 L715 462.78235403158203 L716 415.7124926828439 L717 350.5850067580046 L718 400.44134177757104 L719 456.4723932337322 L720 403.14603859634695 L721 450.8660528988604 L722 388.4451172047139 L723 429.5764804030976 L724 393.93114694926294 L725 490.5415733977904 L726 484.8363337986349 L727 319.0702800102738 L728 434.68734651836996 L729 402.43549195364443 L730 385.71801117973564 L731 518.0132647182772 L732 423.22633287002907 L733 458.70530162375013 L734 400.44972262334966 L735 405.7158856358872 L736 451.3055421366333 L737 431.5381148670691 L738 338.86526922147743 L739 400.937876596556 L740 331.4912039144136 L741 474.2284556794825 L742 453.96653154740824 L743 351.0451163874512 L744 434.01785170780795 L745 433.99209337060887 L746 467.37145363046244 L747 436.23739837746183 L748 537.5727915261764 L749 485.73921391671206 L750 403.8921655555447 L751 352.34088203389837 L752 341.6805268030722 L753 387.25294814903566 L754 427.1931323392396 L755 437.1974427110589 L756 337.23929735069805 L757 359.436870094995 L758 390.91054689037554 L759 365.70036156330843 L760 296.5493819776259 L761 395.0688830104047 L762 330.9868093561285 L763 393.62397806015736 L764 431.82693810089273 L765 347.2193103591522 L766 340.94046488494496 L767 481.1591748071516 L768 371.09371092016534 L769 334.1567306711155 L770 436.3486782003796 L771 512.7313446969624 L772 486.85185649015705 L773 492.7200712667804 L774 401.5356038924332 L775 480.7451640338389 L776 314.983349174955 L777 462.9710183247598 L778 403.7157008158474 L779 406.1178243213793 L780 468.7790431602998 L781 345.1788992320383 L782 447.66244303272777 L783 369.7717684399697 L784 476.7799223579035 L785 445.58580231201967 L786 470.4972403319898 L787 346.89097991300673 L788 299.26862645302026 L789 538.6663396222556 L790 514.8056177263201 L791 456.0181061093913 L792 493.5535158619617 L793 488.6477611789718 L794 420.8205453473538 L795 340.1141482832174 L796 438.5520677258123 L797 372.27064992948704 L798 304.64301086851964 L799 473.17689019686895 L800 423.25173356926456 L801 278.259910260011 L802 465.9711299518302 L803 390.41550864461203 L804 423.7017484002243 L805 426.34982768387516 L806 455.8360698365128 L807 326.5394240379325 L808 364.2152389546869 L809 488.91840741990495 L810 436.2794068298664 L811 362.5541190564128 L812 362.81955545766516 L813 375.47667632316245 L814 418.1984847552529 L815 391.21030257615314 L816 348.9461656604348 L817 362.56097987404286 L818 375.31817643033907 L819 477.0595373825591 L820 444.0730562707683 L821 387.07728809537025 L822 481.3777638017898 L823 390.18546485610227 L824 412  " stroke = "blue" stroke-width = "5" fill = "none" />
</svg>