<svg width="649" height="649" viewbox = "0 0 649 649"  xmlns="http://www.w3.org/2000/svg">

<!--
<xml>

  <deck>
    <equation>
      $$
      \Gamma\epsilon\omega\mu\epsilon\tau\rho\omicron\nu
      $$
      $$x = x_0 - \frac{w}{2} + index;$$
      
      $$
      X = X_{min} + index \times \frac{X_{max} - X_{min}}{w}
      $$
      $$Y = f(X)$$
    $$
    y = y_0 - \frac{h}{2} +   (Y - Y_{min}) \times \frac{h}{Y_{max} - Y_{min}}
    $$
    </equation>
    <action>
        Y = variables.A*Math.sin(variables.omega*(X + variables.phi))*Math.exp(-X/variables.tau);        
    </action>
    <variables>
      {
        "A":2.1,
        "omega":2,
        "phi":0,
        "tau":10
      }
    </variables>
    <plotparams>
      {
        "w":600,
        "h":600,
        "margin":100,
        "ymax":2,
        "ymin":-2,
        "xmin":0,
        "xmax":40
      }
    </plotparams>
    <graticule>
      {
        "on":false,
        "vertical":8,
        "horizontal":8,
        "lineWidth":1
      }
    </graticule>
    <tics>
      {
        "inout":"in",
        "vertical":8,
        "horizontal":8,
        "top":true,
        "bottom":true,
        "left":true,
        "right":true,
        "size":15,
        "lineWidth":3
      }
    </tics>
    <xlabel>time [s]</xlabel>
    <ylabel>voltage [V]</ylabel>    
    <labels>
      {
        "size":20,
        "margin":10
      }
    </labels>
  </deck>

</xml>
-->
	<path d = "M100 325 L101 283 L102 244 L103 208 L104 176 L105 149 L106 129 L107 115 L108 107 L109 107 L110 114 L111 127 L112 146 L113 170 L114 199 L115 231 L116 266 L117 302 L118 338 L119 373 L120 405 L121 435 L122 461 L123 481 L124 497 L125 507 L126 511 L127 509 L128 501 L129 488 L130 470 L131 448 L132 422 L133 393 L134 363 L135 333 L136 302 L137 273 L138 246 L139 222 L140 201 L141 185 L142 173 L143 167 L144 165 L145 169 L146 177 L147 190 L148 207 L149 227 L150 250 L151 275 L152 301 L153 327 L154 353 L155 377 L156 400 L157 419 L158 435 L159 448 L160 456 L161 460 L162 460 L163 455 L164 447 L165 435 L166 419 L167 401 L168 381 L169 359 L170 336 L171 314 L172 292 L173 272 L174 254 L175 238 L176 225 L177 216 L178 210 L179 208 L180 210 L181 215 L182 223 L183 235 L184 249 L185 265 L186 283 L187 302 L188 321 L189 340 L190 359 L191 375 L192 390 L193 403 L194 413 L195 419 L196 423 L197 424 L198 421 L199 416 L200 408 L201 397 L202 384 L203 369 L204 354 L205 338 L206 321 L207 305 L208 290 L209 276 L210 264 L211 254 L212 247 L213 242 L214 240 L215 240 L216 243 L217 249 L218 257 L219 267 L220 278 L221 291 L222 305 L223 319 L224 332 L225 346 L226 358 L227 370 L228 379 L229 387 L230 393 L231 396 L232 397 L233 396 L234 392 L235 387 L236 380 L237 371 L238 360 L239 349 L240 337 L241 325 L242 313 L243 302 L244 292 L245 283 L246 275 L247 269 L248 265 L249 263 L250 263 L251 264 L252 268 L253 273 L254 280 L255 288 L256 297 L257 307 L258 317 L259 328 L260 338 L261 347 L262 355 L263 363 L264 369 L265 373 L266 376 L267 378 L268 377 L269 375 L270 371 L271 366 L272 360 L273 353 L274 345 L275 336 L276 327 L277 319 L278 310 L279 303 L280 296 L281 290 L282 285 L283 282 L284 280 L285 279 L286 280 L287 282 L288 286 L289 291 L290 296 L291 303 L292 310 L293 317 L294 325 L295 332 L296 339 L297 346 L298 351 L299 356 L300 359 L301 362 L302 363 L303 363 L304 362 L305 359 L306 356 L307 352 L308 347 L309 341 L310 335 L311 328 L312 322 L313 316 L314 310 L315 305 L316 300 L317 296 L318 294 L319 292 L320 291 L321 292 L322 293 L323 296 L324 299 L325 303 L326 307 L327 312 L328 318 L329 323 L330 329 L331 334 L332 339 L333 343 L334 347 L335 349 L336 351 L337 353 L338 353 L339 352 L340 351 L341 348 L342 345 L343 342 L344 338 L345 333 L346 328 L347 324 L348 319 L349 315 L350 311 L351 308 L352 305 L353 302 L354 301 L355 300 L356 300 L357 301 L358 303 L359 305 L360 308 L361 311 L362 315 L363 319 L364 323 L365 327 L366 330 L367 334 L368 337 L369 340 L370 342 L371 344 L372 345 L373 345 L374 345 L375 344 L376 342 L377 340 L378 338 L379 335 L380 332 L381 328 L382 325 L383 322 L384 318 L385 315 L386 313 L387 311 L388 309 L389 308 L390 307 L391 307 L392 307 L393 308 L394 310 L395 312 L396 314 L397 317 L398 319 L399 322 L400 325 L401 328 L402 331 L403 333 L404 335 L405 337 L406 338 L407 339 L408 340 L409 339 L410 339 L411 338 L412 336 L413 335 L414 333 L415 330 L416 328 L417 325 L418 323 L419 321 L420 318 L421 316 L422 315 L423 313 L424 312 L425 312 L426 312 L427 312 L428 312 L429 313 L430 315 L431 316 L432 318 L433 320 L434 322 L435 324 L436 327 L437 329 L438 330 L439 332 L440 333 L441 334 L442 335 L443 335 L444 335 L445 335 L446 335 L447 334 L448 332 L449 331 L450 329 L451 327 L452 326 L453 324 L454 322 L455 320 L456 319 L457 318 L458 317 L459 316 L460 315 L461 315 L462 315 L463 316 L464 316 L465 317 L466 318 L467 320 L468 321 L469 323 L470 324 L471 326 L472 327 L473 328 L474 330 L475 331 L476 332 L477 332 L478 332 L479 333 L480 332 L481 332 L482 331 L483 330 L484 329 L485 328 L486 327 L487 326 L488 324 L489 323 L490 322 L491 321 L492 320 L493 319 L494 318 L495 318 L496 318 L497 318 L498 318 L499 318 L500 319 L501 320 L502 321 L503 322 L504 323 L505 324 L506 325 L507 326 L508 327 L509 328 L510 329 L511 330 L512 330 L513 330 L514 330 L515 330 L516 330 L517 330 L518 329 L519 328 L520 327 L521 327 L522 326 L523 325 L524 324 L525 323 L526 322 L527 321 L528 321 L529 320 L530 320 L531 320 L532 319 L533 320 L534 320 L535 320 L536 321 L537 321 L538 322 L539 323 L540 324 L541 325 L542 325 L543 326 L544 327 L545 328 L546 328 L547 328 L548 329 " fill = "none" stroke = "blue" stroke-width = "2" />
</svg>