<svg width="1247" height="672" viewbox = "0 0 1247 672"  xmlns="http://www.w3.org/2000/svg">
	<path d = "M424 272 L424.5 272.9999990933851 L425.5 273.99999900307046 L426.5 274.99999890378706 L427.5 275.99999879464707 L428.5 276.99999867467557 L429.5 277.9999985428013 L430.5 278.99999839784766 L431.5 279.9999982385222 L432.5 280.9999980634052 L433.5 281.99999787093736 L434.5 282.99999765940595 L435.5 283.9999974269301 L436.5 284.9999971714439 L437.5 285.99999689067886 L438.5 286.9999965821436 L439.5 287.99999624310243 L440.5 288.9999958705513 L441.5 289.99999546119193 L442.5 290.9999950114026 L443.5 291.99999451720726 L444.5 292.9999939742403 L445.5 293.9999933777095 L446.5 294.99999272235374 L447.5 295.9999920023979 L448.5 296.99999121150273 L449.5 297.9999903427101 L450.5 298.9999893883828 L451.5 299.9999883401391 L452.5 300.9999871887802 L453.5 301.99998592421116 L454.5 302.99998453535426 L455.5 303.9999830100538 L456.5 304.9999813349721 L457.5 305.9999794954751 L458.5 306.9999774755073 L459.5 307.99997525745476 L460.5 308.99997282199456 L461.5 309.9999701479306 L462.5 310.99996721201273 L463.5 311.99996398874003 L464.5 312.99996045014353 L465.5 313.99995656554984 L466.5 314.9999523013214 L467.5 315.99994762057224 L468.5 316.9999424828571 L469.5 317.99993684383014 L470.5 318.9999306548724 L471.5 319.9999238626832 L472.5 320.99991640883337 L473.5 321.9999082292758 L474.5 322.9998992538101 L475.5 323.999889405497 L476.5 324.99987860001704 L477.5 325.99986674496927 L478.5 326.9998537391041 L479.5 327.99983947148417 L480.5 328.9998238205664 L481.5 329.9998066531982 L482.5 330.99978782351997 L483.5 331.99976717176503 L484.5 332.9997445229477 L485.5 333.99971968542934 L486.5 334.99969244935073 L487.5 335.9996625849197 L488.5 336.9996298405392 L489.5 337.9995939407627 L490.5 338.99955458406043 L491.5 339.9995114403797 L492.5 340.99946414848046 L493.5 341.9994123130258 L494.5 342.99935550140594 L495.5 343.99929324027033 L496.5 344.99922501174365 L497.5 345.9991502492956 L498.5 346.99906833323496 L499.5 347.99897858579374 L500.5 348.9988802657653 L501.5 349.99877256265734 L502.5 350.9986545903157 L503.5 351.9985253799748 L504.5 352.99838387268164 L505.5 353.99822891104077 L506.5 354.99805923022 L507.5 355.99787344815303 L508.5 356.99767005486973 L509.5 357.9974474008783 L510.5 358.99720368451824 L511.5 359.9969369381964 L512.5 360.99664501341033 L513.5 361.9963255644568 L514.5 362.99597603071356 L515.5 363.99559361737516 L516.5 364.99517527451343 L517.5 365.99471767432243 L518.5 366.9942171863984 L519.5 367.99366985089205 L520.5 368.99307134935975 L521.5 369.99241697312493 L522.5 370.99170158894947 L523.5 371.99091960179805 L524.5 372.9900649144631 L525.5 373.9891308838014 L526.5 374.98811027331567 L527.5 375.9869952017952 L528.5 376.9857770877103 L529.5 377.98444658903395 L530.5 378.98299353814235 L531.5 379.98140687142336 L532.5 380.97967455319736 L533.5 381.97778349352967 L534.5 382.97571945948937 L535.5 383.9734669793794 L536.5 384.9710092394388 L537.5 385.96832797248544 L538.5 386.9654033379418 L539.5 387.9622137926546 L540.5 388.95873595188976 L541.5 389.9549444398541 L542.5 390.9508117290659 L543.5 391.9463079678654 L544.5 392.9414007953309 L545.5 393.93605514283445 L546.5 394.93023302145104 L547.5 395.9238932944071 L548.5 396.9169914337372 L549.5 397.9094792603007 L550.5 398.9013046662968 L551.5 399.8924113194117 L552.5 400.8827383477296 L553.5 401.8722200045489 L554.5 402.86078531225746 L555.5 403.84835768445066 L556.5 404.83485452551156 L557.5 405.82018680692306 L558.5 406.80425861965 L559.5 407.78696670200804 L560.5 408.7681999425415 L561.5 409.7478388575515 L562.5 410.7257550430616 L563.5 411.70181060117864 L564.5 412.6758575410055 L565.5 413.64773715448683 L566.5 414.6172793678332 L567.5 415.58430206945957 L568.5 416.54861041570825 L569.5 417.50999611599354 L570.5 418.4682366994164 L571.5 419.4230947653492 L572.5 420.37431722098336 L573.5 421.3216345093696 L574.5 422.26475983206177 L575.5 423.2033883710919 L576.5 424.1371965156663 L577.5 425.0658410996682 L578.5 425.9889586567763 L579.5 426.90616470076327 L580.5 427.81705303930624 L581.5 428.7211951304197 L582.5 429.618139491396 L583.5 430.5074111708981 L584.5 431.3885112955764 L585.5 432.2609167032612 L586.5 433.1240796753932 L587.5 433.97742778187734 L588.5 434.820363851954 L589.5 435.65226608495607 L590.5 436.4724883149291 L591.5 437.2803604430151 L592.5 438.07518905120423 L593.5 438.85625821052463 L594.5 439.6228304959386 L595.5 440.3741482191229 L596.5 441.1094348889157 L597.5 441.82789690749524 L598.5 442.5287255083074 L599.5 443.2110989393836 L600.5 443.87418489298483 L601.5 444.5171431794971 L602.5 445.1391286402039 L603.5 445.7392942900134 L604.5 446.31679467746727 L605.5 446.87078944545976 L606.5 447.40044707211587 L607.5 447.9049487673007 L608.5 448.38349249633393 L609.5 448.8352970987632 L610.5 449.2596064666017 L611.5 449.65569374336 L612.5 450.0228655025897 L613.5 450.36046586261347 L614.5 450.66788049270986 L615.5 450.94454046534247 L616.5 451.1899259091175 L617.5 451.40356941806954 L618.5 451.585059174632 L619.5 451.7340417462421 L620.5 451.8502245189395 L621.5 451.933377735492 L622.5 451.9833361104499 L623.5 452 L624.5 451.9833361104499 L625.5 451.933377735492 L626.5 451.8502245189395 L627.5 451.7340417462421 L628.5 451.585059174632 L629.5 451.40356941806954 L630.5 451.1899259091175 L631.5 450.94454046534247 L632.5 450.66788049270986 L633.5 450.36046586261347 L634.5 450.0228655025897 L635.5 449.65569374336 L636.5 449.2596064666017 L637.5 448.8352970987632 L638.5 448.38349249633393 L639.5 447.9049487673007 L640.5 447.40044707211587 L641.5 446.87078944545976 L642.5 446.31679467746727 L643.5 445.7392942900134 L644.5 445.1391286402039 L645.5 444.5171431794971 L646.5 443.87418489298483 L647.5 443.2110989393836 L648.5 442.5287255083074 L649.5 441.82789690749524 L650.5 441.1094348889157 L651.5 440.3741482191229 L652.5 439.6228304959386 L653.5 438.85625821052463 L654.5 438.07518905120423 L655.5 437.2803604430151 L656.5 436.4724883149291 L657.5 435.65226608495607 L658.5 434.820363851954 L659.5 433.97742778187734 L660.5 433.1240796753932 L661.5 432.2609167032612 L662.5 431.3885112955764 L663.5 430.5074111708981 L664.5 429.618139491396 L665.5 428.7211951304197 L666.5 427.81705303930624 L667.5 426.90616470076327 L668.5 425.9889586567763 L669.5 425.0658410996682 L670.5 424.1371965156663 L671.5 423.2033883710919 L672.5 422.26475983206177 L673.5 421.3216345093696 L674.5 420.37431722098336 L675.5 419.4230947653492 L676.5 418.4682366994164 L677.5 417.50999611599354 L678.5 416.54861041570825 L679.5 415.58430206945957 L680.5 414.6172793678332 L681.5 413.64773715448683 L682.5 412.6758575410055 L683.5 411.70181060117864 L684.5 410.7257550430616 L685.5 409.7478388575515 L686.5 408.7681999425415 L687.5 407.78696670200804 L688.5 406.80425861965 L689.5 405.82018680692306 L690.5 404.83485452551156 L691.5 403.84835768445066 L692.5 402.86078531225746 L693.5 401.8722200045489 L694.5 400.8827383477296 L695.5 399.8924113194117 L696.5 398.9013046662968 L697.5 397.9094792603007 L698.5 396.9169914337372 L699.5 395.9238932944071 L700.5 394.93023302145104 L701.5 393.93605514283445 L702.5 392.9414007953309 L703.5 391.9463079678654 L704.5 390.9508117290659 L705.5 389.9549444398541 L706.5 388.95873595188976 L707.5 387.9622137926546 L708.5 386.9654033379418 L709.5 385.96832797248544 L710.5 384.9710092394388 L711.5 383.9734669793794 L712.5 382.97571945948937 L713.5 381.97778349352967 L714.5 380.97967455319736 L715.5 379.98140687142336 L716.5 378.98299353814235 L717.5 377.98444658903395 L718.5 376.9857770877103 L719.5 375.9869952017952 L720.5 374.98811027331567 L721.5 373.9891308838014 L722.5 372.9900649144631 L723.5 371.99091960179805 L724.5 370.99170158894947 L725.5 369.99241697312493 L726.5 368.99307134935975 L727.5 367.99366985089205 L728.5 366.9942171863984 L729.5 365.99471767432243 L730.5 364.99517527451343 L731.5 363.99559361737516 L732.5 362.99597603071356 L733.5 361.9963255644568 L734.5 360.99664501341033 L735.5 359.9969369381964 L736.5 358.99720368451824 L737.5 357.9974474008783 L738.5 356.99767005486973 L739.5 355.99787344815303 L740.5 354.99805923022 L741.5 353.99822891104077 L742.5 352.99838387268164 L743.5 351.9985253799748 L744.5 350.9986545903157 L745.5 349.99877256265734 L746.5 348.9988802657653 L747.5 347.99897858579374 L748.5 346.99906833323496 L749.5 345.9991502492956 L750.5 344.99922501174365 L751.5 343.99929324027033 L752.5 342.99935550140594 L753.5 341.9994123130258 L754.5 340.99946414848046 L755.5 339.9995114403797 L756.5 338.99955458406043 L757.5 337.9995939407627 L758.5 336.9996298405392 L759.5 335.9996625849197 L760.5 334.99969244935073 L761.5 333.99971968542934 L762.5 332.9997445229477 L763.5 331.99976717176503 L764.5 330.99978782351997 L765.5 329.9998066531982 L766.5 328.9998238205664 L767.5 327.99983947148417 L768.5 326.9998537391041 L769.5 325.99986674496927 L770.5 324.99987860001704 L771.5 323.999889405497 L772.5 322.9998992538101 L773.5 321.9999082292758 L774.5 320.99991640883337 L775.5 319.9999238626832 L776.5 318.9999306548724 L777.5 317.99993684383014 L778.5 316.9999424828571 L779.5 315.99994762057224 L780.5 314.9999523013214 L781.5 313.99995656554984 L782.5 312.99996045014353 L783.5 311.99996398874003 L784.5 310.99996721201273 L785.5 309.9999701479306 L786.5 308.99997282199456 L787.5 307.99997525745476 L788.5 306.9999774755073 L789.5 305.9999794954751 L790.5 304.9999813349721 L791.5 303.9999830100538 L792.5 302.99998453535426 L793.5 301.99998592421116 L794.5 300.9999871887802 L795.5 299.9999883401391 L796.5 298.9999893883828 L797.5 297.9999903427101 L798.5 296.99999121150273 L799.5 295.9999920023979 L800.5 294.99999272235374 L801.5 293.9999933777095 L802.5 292.9999939742403 L803.5 291.99999451720726 L804.5 290.9999950114026 L805.5 289.99999546119193 L806.5 288.9999958705513 L807.5 287.99999624310243 L808.5 286.9999965821436 L809.5 285.99999689067886 L810.5 284.9999971714439 L811.5 283.9999974269301 L812.5 282.99999765940595 L813.5 281.99999787093736 L814.5 280.9999980634052 L815.5 279.9999982385222 L816.5 278.99999839784766 L817.5 277.9999985428013 L818.5 276.99999867467557 L819.5 275.99999879464707 L820.5 274.99999890378706 L821.5 273.99999900307046 L822.5 272.9999990933851 L823.5 271.9999991755385 " stroke = "black" stroke-width = "2" fill = "none"/></svg>